<svg xmlns="http://www.w3.org/2000/svg" viewBox="0 0 600 540" width="600" height="540" role="img"><title>PIP / original object concept</title><ellipse cx="305" cy="435" rx="177" ry="20" fill="#172b32" opacity=".08"/><path d="M191 203Q192 146 251 133Q325 117 383 162Q408 191 410 248V357Q397 410 303 411Q209 409 191 358Z" fill="#7b9bdc" stroke="#172b32" stroke-width="3"/><path d="M214 207Q214 161 261 153Q326 140 371 176" fill="none" stroke="#aac3ef" stroke-width="10" stroke-linecap="round"/><rect x="270" y="125" width="59" height="18" rx="8" fill="#f57861" stroke="#172b32" stroke-width="3"/><g transform="translate(210 235) scale(0.9473684210526315)"><path d="M0 3H77V68H0Z M113 3H190V68H113Z" fill="#264bd7"/><path d="M77 19H113V32H77Z" fill="#264bd7"/><path d="M13 16H64V55H13Z M126 16H177V55H126Z" fill="#f9f4e9"/><path d="M43 21H61V51H43Z M155 21H173V51H155Z" fill="#172b32"/><path d="M-18 9H0V25H-18Z" fill="#264bd7"/></g><path d="M287 321Q300 332 315 321" stroke="#172b32" fill="none" stroke-width="4"/><rect x="259" y="346" width="82" height="26" rx="13" fill="#264bd7"/><circle cx="300" cy="359" r="5" fill="#fffaf0"/><path d="M215 298L174 277M387 298L425 277" fill="none" stroke="#172b32" stroke-width="6" stroke-linecap="round"/><path d="M245 415L232 439H267M358 415L371 439H336" fill="none" stroke="#172b32" stroke-width="8" stroke-linecap="round"/></svg>