<svg xmlns="http://www.w3.org/2000/svg" viewBox="0 0 400 560" width="400" height="560" shape-rendering="crispEdges" role="img" aria-labelledby="t d">
<title id="t">Campus Cards · Set 02 · Berkeley · 03/12 The Bay from Above (Rare)</title>
<desc id="d">Climb the fire trails at sunset and the whole bay lines up, bridge and all. Unofficial. An independent PointCast art project about places. Not affiliated with, sponsored by, or endorsed by the University of California or any campus. No university logos, seals, mascots, or marks are used.</desc>
<style>
.glint{animation:blink 2.4s steps(2) infinite}
.twinkle{animation:blink 3.1s steps(2) infinite .7s}
.waves{animation:slide 3s steps(3) infinite}
.drift{animation:drift 14s linear infinite alternate}
.drift2{animation:drift 19s linear infinite alternate-reverse}
.bob{animation:bob 2.2s steps(2) infinite}
.sway{animation:sway 2.8s steps(2) infinite}
.peck{animation:bob 1.7s steps(2) infinite}
.ride{animation:ride 6s steps(24) infinite}
.ride2{animation:ride 7.5s steps(30) infinite reverse}
.spin{transform-box:fill-box;transform-origin:center;animation:spin 9s steps(36) infinite}
.glow{animation:glow 4s ease-in-out infinite}
.ring{animation:ring 3.2s steps(2) infinite}
.bell{animation:blink 1.6s steps(2) infinite}
.alpen{animation:glow 6s ease-in-out infinite}
.foil{animation:foil 5s linear infinite}
@keyframes blink{50%{opacity:.25}}
@keyframes slide{to{transform:translateX(8px)}}
@keyframes drift{to{transform:translateX(24px)}}
@keyframes bob{50%{transform:translateY(4px)}}
@keyframes sway{50%{transform:translateX(4px)}}
@keyframes ride{from{transform:translateX(-160px)}to{transform:translateX(160px)}}
@keyframes spin{to{transform:rotate(-360deg)}}
@keyframes glow{50%{opacity:.6}}
@keyframes ring{0%,100%{opacity:0}50%{opacity:.9}}
@keyframes foil{from{transform:translateX(-360px)}to{transform:translateX(360px)}}
</style>
<defs>
<clipPath id="art"><rect x="0" y="0" width="352" height="256"/></clipPath>
<linearGradient id="sheen" x1="0" y1="0" x2="1" y2="1"><stop offset="0" stop-color="#fff" stop-opacity="0"/><stop offset=".45" stop-color="#fff" stop-opacity="0"/><stop offset=".5" stop-color="#fff" stop-opacity=".55"/><stop offset=".55" stop-color="#fff" stop-opacity="0"/><stop offset="1" stop-color="#fff" stop-opacity="0"/></linearGradient>
<pattern id="dots" width="8" height="8" patternUnits="userSpaceOnUse"><rect width="8" height="8" fill="#8e3fd0"/><rect x="0" y="0" width="2" height="2" fill="#000" fill-opacity=".18"/></pattern>
</defs>
<rect width="400" height="560" fill="#12121c"/>
<rect x="6" y="6" width="388" height="548" fill="url(#dots)"/>
<rect x="14" y="14" width="372" height="532" fill="#f7f1e1" stroke="#12121c" stroke-width="3"/>
<rect x="14" y="14" width="372" height="44" fill="#1f7a5c" stroke="#12121c" stroke-width="3"/>
<text x="26" y="34" font-family="ui-monospace, 'SF Mono', Menlo, 'DejaVu Sans Mono', monospace" font-size="10" font-weight="700" fill="#ffffff" letter-spacing="1.5">CAMPUS CARDS · SET 02 · BERKELEY</text>
<text x="26" y="51" font-family="ui-monospace, 'SF Mono', Menlo, 'DejaVu Sans Mono', monospace" font-size="17" font-weight="700" fill="#ffffff">The Bay from Above</text>
<text x="374" y="51" font-family="ui-monospace, 'SF Mono', Menlo, 'DejaVu Sans Mono', monospace" font-size="14" font-weight="700" fill="#ffffff" text-anchor="end">03/12</text>
<rect x="21" y="73" width="358" height="262" fill="#12121c"/>
<g transform="translate(24 76)" clip-path="url(#art)"><rect x="0" y="0" width="352" height="28" fill="#4b3f8e"/><rect x="0" y="24" width="4" height="4" fill="#a2549a"/><rect x="8" y="24" width="4" height="4" fill="#a2549a"/><rect x="16" y="24" width="4" height="4" fill="#a2549a"/><rect x="24" y="24" width="4" height="4" fill="#a2549a"/><rect x="32" y="24" width="4" height="4" fill="#a2549a"/><rect x="40" y="24" width="4" height="4" fill="#a2549a"/><rect x="48" y="24" width="4" height="4" fill="#a2549a"/><rect x="56" y="24" width="4" height="4" fill="#a2549a"/><rect x="64" y="24" width="4" height="4" fill="#a2549a"/><rect x="72" y="24" width="4" height="4" fill="#a2549a"/><rect x="80" y="24" width="4" height="4" fill="#a2549a"/><rect x="88" y="24" width="4" height="4" fill="#a2549a"/><rect x="96" y="24" width="4" height="4" fill="#a2549a"/><rect x="104" y="24" width="4" height="4" fill="#a2549a"/><rect x="112" y="24" width="4" height="4" fill="#a2549a"/><rect x="120" y="24" width="4" height="4" fill="#a2549a"/><rect x="128" y="24" width="4" height="4" fill="#a2549a"/><rect x="136" y="24" width="4" height="4" fill="#a2549a"/><rect x="144" y="24" width="4" height="4" fill="#a2549a"/><rect x="152" y="24" width="4" height="4" fill="#a2549a"/><rect x="160" y="24" width="4" height="4" fill="#a2549a"/><rect x="168" y="24" width="4" height="4" fill="#a2549a"/><rect x="176" y="24" width="4" height="4" fill="#a2549a"/><rect x="184" y="24" width="4" height="4" fill="#a2549a"/><rect x="192" y="24" width="4" height="4" fill="#a2549a"/><rect x="200" y="24" width="4" height="4" fill="#a2549a"/><rect x="208" y="24" width="4" height="4" fill="#a2549a"/><rect x="216" y="24" width="4" height="4" fill="#a2549a"/><rect x="224" y="24" width="4" height="4" fill="#a2549a"/><rect x="232" y="24" width="4" height="4" fill="#a2549a"/><rect x="240" y="24" width="4" height="4" fill="#a2549a"/><rect x="248" y="24" width="4" height="4" fill="#a2549a"/><rect x="256" y="24" width="4" height="4" fill="#a2549a"/><rect x="264" y="24" width="4" height="4" fill="#a2549a"/><rect x="272" y="24" width="4" height="4" fill="#a2549a"/><rect x="280" y="24" width="4" height="4" fill="#a2549a"/><rect x="288" y="24" width="4" height="4" fill="#a2549a"/><rect x="296" y="24" width="4" height="4" fill="#a2549a"/><rect x="304" y="24" width="4" height="4" fill="#a2549a"/><rect x="312" y="24" width="4" height="4" fill="#a2549a"/><rect x="320" y="24" width="4" height="4" fill="#a2549a"/><rect x="328" y="24" width="4" height="4" fill="#a2549a"/><rect x="336" y="24" width="4" height="4" fill="#a2549a"/><rect x="344" y="24" width="4" height="4" fill="#a2549a"/><rect x="0" y="28" width="352" height="28" fill="#a2549a"/><rect x="4" y="52" width="4" height="4" fill="#ec7a6a"/><rect x="12" y="52" width="4" height="4" fill="#ec7a6a"/><rect x="20" y="52" width="4" height="4" fill="#ec7a6a"/><rect x="28" y="52" width="4" height="4" fill="#ec7a6a"/><rect x="36" y="52" width="4" height="4" fill="#ec7a6a"/><rect x="44" y="52" width="4" height="4" fill="#ec7a6a"/><rect x="52" y="52" width="4" height="4" fill="#ec7a6a"/><rect x="60" y="52" width="4" height="4" fill="#ec7a6a"/><rect x="68" y="52" width="4" height="4" fill="#ec7a6a"/><rect x="76" y="52" width="4" height="4" fill="#ec7a6a"/><rect x="84" y="52" width="4" height="4" fill="#ec7a6a"/><rect x="92" y="52" width="4" height="4" fill="#ec7a6a"/><rect x="100" y="52" width="4" height="4" fill="#ec7a6a"/><rect x="108" y="52" width="4" height="4" fill="#ec7a6a"/><rect x="116" y="52" width="4" height="4" fill="#ec7a6a"/><rect x="124" y="52" width="4" height="4" fill="#ec7a6a"/><rect x="132" y="52" width="4" height="4" fill="#ec7a6a"/><rect x="140" y="52" width="4" height="4" fill="#ec7a6a"/><rect x="148" y="52" width="4" height="4" fill="#ec7a6a"/><rect x="156" y="52" width="4" height="4" fill="#ec7a6a"/><rect x="164" y="52" width="4" height="4" fill="#ec7a6a"/><rect x="172" y="52" width="4" height="4" fill="#ec7a6a"/><rect x="180" y="52" width="4" height="4" fill="#ec7a6a"/><rect x="188" y="52" width="4" height="4" fill="#ec7a6a"/><rect x="196" y="52" width="4" height="4" fill="#ec7a6a"/><rect x="204" y="52" width="4" height="4" fill="#ec7a6a"/><rect x="212" y="52" width="4" height="4" fill="#ec7a6a"/><rect x="220" y="52" width="4" height="4" fill="#ec7a6a"/><rect x="228" y="52" width="4" height="4" fill="#ec7a6a"/><rect x="236" y="52" width="4" height="4" fill="#ec7a6a"/><rect x="244" y="52" width="4" height="4" fill="#ec7a6a"/><rect x="252" y="52" width="4" height="4" fill="#ec7a6a"/><rect x="260" y="52" width="4" height="4" fill="#ec7a6a"/><rect x="268" y="52" width="4" height="4" fill="#ec7a6a"/><rect x="276" y="52" width="4" height="4" fill="#ec7a6a"/><rect x="284" y="52" width="4" height="4" fill="#ec7a6a"/><rect x="292" y="52" width="4" height="4" fill="#ec7a6a"/><rect x="300" y="52" width="4" height="4" fill="#ec7a6a"/><rect x="308" y="52" width="4" height="4" fill="#ec7a6a"/><rect x="316" y="52" width="4" height="4" fill="#ec7a6a"/><rect x="324" y="52" width="4" height="4" fill="#ec7a6a"/><rect x="332" y="52" width="4" height="4" fill="#ec7a6a"/><rect x="340" y="52" width="4" height="4" fill="#ec7a6a"/><rect x="348" y="52" width="4" height="4" fill="#ec7a6a"/><rect x="0" y="56" width="352" height="28" fill="#ec7a6a"/><rect x="0" y="80" width="4" height="4" fill="#f7a95a"/><rect x="8" y="80" width="4" height="4" fill="#f7a95a"/><rect x="16" y="80" width="4" height="4" fill="#f7a95a"/><rect x="24" y="80" width="4" height="4" fill="#f7a95a"/><rect x="32" y="80" width="4" height="4" fill="#f7a95a"/><rect x="40" y="80" width="4" height="4" fill="#f7a95a"/><rect x="48" y="80" width="4" height="4" fill="#f7a95a"/><rect x="56" y="80" width="4" height="4" fill="#f7a95a"/><rect x="64" y="80" width="4" height="4" fill="#f7a95a"/><rect x="72" y="80" width="4" height="4" fill="#f7a95a"/><rect x="80" y="80" width="4" height="4" fill="#f7a95a"/><rect x="88" y="80" width="4" height="4" fill="#f7a95a"/><rect x="96" y="80" width="4" height="4" fill="#f7a95a"/><rect x="104" y="80" width="4" height="4" fill="#f7a95a"/><rect x="112" y="80" width="4" height="4" fill="#f7a95a"/><rect x="120" y="80" width="4" height="4" fill="#f7a95a"/><rect x="128" y="80" width="4" height="4" fill="#f7a95a"/><rect x="136" y="80" width="4" height="4" fill="#f7a95a"/><rect x="144" y="80" width="4" height="4" fill="#f7a95a"/><rect x="152" y="80" width="4" height="4" fill="#f7a95a"/><rect x="160" y="80" width="4" height="4" fill="#f7a95a"/><rect x="168" y="80" width="4" height="4" fill="#f7a95a"/><rect x="176" y="80" width="4" height="4" fill="#f7a95a"/><rect x="184" y="80" width="4" height="4" fill="#f7a95a"/><rect x="192" y="80" width="4" height="4" fill="#f7a95a"/><rect x="200" y="80" width="4" height="4" fill="#f7a95a"/><rect x="208" y="80" width="4" height="4" fill="#f7a95a"/><rect x="216" y="80" width="4" height="4" fill="#f7a95a"/><rect x="224" y="80" width="4" height="4" fill="#f7a95a"/><rect x="232" y="80" width="4" height="4" fill="#f7a95a"/><rect x="240" y="80" width="4" height="4" fill="#f7a95a"/><rect x="248" y="80" width="4" height="4" fill="#f7a95a"/><rect x="256" y="80" width="4" height="4" fill="#f7a95a"/><rect x="264" y="80" width="4" height="4" fill="#f7a95a"/><rect x="272" y="80" width="4" height="4" fill="#f7a95a"/><rect x="280" y="80" width="4" height="4" fill="#f7a95a"/><rect x="288" y="80" width="4" height="4" fill="#f7a95a"/><rect x="296" y="80" width="4" height="4" fill="#f7a95a"/><rect x="304" y="80" width="4" height="4" fill="#f7a95a"/><rect x="312" y="80" width="4" height="4" fill="#f7a95a"/><rect x="320" y="80" width="4" height="4" fill="#f7a95a"/><rect x="328" y="80" width="4" height="4" fill="#f7a95a"/><rect x="336" y="80" width="4" height="4" fill="#f7a95a"/><rect x="344" y="80" width="4" height="4" fill="#f7a95a"/><rect x="0" y="84" width="352" height="24" fill="#f7a95a"/><rect x="4" y="104" width="4" height="4" fill="#ffd27a"/><rect x="12" y="104" width="4" height="4" fill="#ffd27a"/><rect x="20" y="104" width="4" height="4" fill="#ffd27a"/><rect x="28" y="104" width="4" height="4" fill="#ffd27a"/><rect x="36" y="104" width="4" height="4" fill="#ffd27a"/><rect x="44" y="104" width="4" height="4" fill="#ffd27a"/><rect x="52" y="104" width="4" height="4" fill="#ffd27a"/><rect x="60" y="104" width="4" height="4" fill="#ffd27a"/><rect x="68" y="104" width="4" height="4" fill="#ffd27a"/><rect x="76" y="104" width="4" height="4" fill="#ffd27a"/><rect x="84" y="104" width="4" height="4" fill="#ffd27a"/><rect x="92" y="104" width="4" height="4" fill="#ffd27a"/><rect x="100" y="104" width="4" height="4" fill="#ffd27a"/><rect x="108" y="104" width="4" height="4" fill="#ffd27a"/><rect x="116" y="104" width="4" height="4" fill="#ffd27a"/><rect x="124" y="104" width="4" height="4" fill="#ffd27a"/><rect x="132" y="104" width="4" height="4" fill="#ffd27a"/><rect x="140" y="104" width="4" height="4" fill="#ffd27a"/><rect x="148" y="104" width="4" height="4" fill="#ffd27a"/><rect x="156" y="104" width="4" height="4" fill="#ffd27a"/><rect x="164" y="104" width="4" height="4" fill="#ffd27a"/><rect x="172" y="104" width="4" height="4" fill="#ffd27a"/><rect x="180" y="104" width="4" height="4" fill="#ffd27a"/><rect x="188" y="104" width="4" height="4" fill="#ffd27a"/><rect x="196" y="104" width="4" height="4" fill="#ffd27a"/><rect x="204" y="104" width="4" height="4" fill="#ffd27a"/><rect x="212" y="104" width="4" height="4" fill="#ffd27a"/><rect x="220" y="104" width="4" height="4" fill="#ffd27a"/><rect x="228" y="104" width="4" height="4" fill="#ffd27a"/><rect x="236" y="104" width="4" height="4" fill="#ffd27a"/><rect x="244" y="104" width="4" height="4" fill="#ffd27a"/><rect x="252" y="104" width="4" height="4" fill="#ffd27a"/><rect x="260" y="104" width="4" height="4" fill="#ffd27a"/><rect x="268" y="104" width="4" height="4" fill="#ffd27a"/><rect x="276" y="104" width="4" height="4" fill="#ffd27a"/><rect x="284" y="104" width="4" height="4" fill="#ffd27a"/><rect x="292" y="104" width="4" height="4" fill="#ffd27a"/><rect x="300" y="104" width="4" height="4" fill="#ffd27a"/><rect x="308" y="104" width="4" height="4" fill="#ffd27a"/><rect x="316" y="104" width="4" height="4" fill="#ffd27a"/><rect x="324" y="104" width="4" height="4" fill="#ffd27a"/><rect x="332" y="104" width="4" height="4" fill="#ffd27a"/><rect x="340" y="104" width="4" height="4" fill="#ffd27a"/><rect x="348" y="104" width="4" height="4" fill="#ffd27a"/><rect x="0" y="108" width="352" height="20" fill="#ffd27a"/><rect x="96" y="108" width="4" height="4" fill="#fff0b0"/><rect x="88" y="112" width="20" height="4" fill="#fff0b0"/><rect x="84" y="116" width="28" height="4" fill="#fff0b0"/><rect x="80" y="120" width="36" height="4" fill="#fff0b0"/><rect x="80" y="124" width="36" height="4" fill="#fff0b0"/><rect x="80" y="128" width="36" height="4" fill="#fff0b0"/><rect x="84" y="132" width="28" height="4" fill="#fff0b0"/><rect x="88" y="136" width="20" height="4" fill="#fff0b0"/><rect x="96" y="140" width="4" height="4" fill="#fff0b0"/><rect x="0" y="128" width="352" height="12" fill="#e89a6a"/><rect x="0" y="136" width="4" height="4" fill="#8c6f9e"/><rect x="8" y="136" width="4" height="4" fill="#8c6f9e"/><rect x="16" y="136" width="4" height="4" fill="#8c6f9e"/><rect x="24" y="136" width="4" height="4" fill="#8c6f9e"/><rect x="32" y="136" width="4" height="4" fill="#8c6f9e"/><rect x="40" y="136" width="4" height="4" fill="#8c6f9e"/><rect x="48" y="136" width="4" height="4" fill="#8c6f9e"/><rect x="56" y="136" width="4" height="4" fill="#8c6f9e"/><rect x="64" y="136" width="4" height="4" fill="#8c6f9e"/><rect x="72" y="136" width="4" height="4" fill="#8c6f9e"/><rect x="80" y="136" width="4" height="4" fill="#8c6f9e"/><rect x="88" y="136" width="4" height="4" fill="#8c6f9e"/><rect x="96" y="136" width="4" height="4" fill="#8c6f9e"/><rect x="104" y="136" width="4" height="4" fill="#8c6f9e"/><rect x="112" y="136" width="4" height="4" fill="#8c6f9e"/><rect x="120" y="136" width="4" height="4" fill="#8c6f9e"/><rect x="128" y="136" width="4" height="4" fill="#8c6f9e"/><rect x="136" y="136" width="4" height="4" fill="#8c6f9e"/><rect x="144" y="136" width="4" height="4" fill="#8c6f9e"/><rect x="152" y="136" width="4" height="4" fill="#8c6f9e"/><rect x="160" y="136" width="4" height="4" fill="#8c6f9e"/><rect x="168" y="136" width="4" height="4" fill="#8c6f9e"/><rect x="176" y="136" width="4" height="4" fill="#8c6f9e"/><rect x="184" y="136" width="4" height="4" fill="#8c6f9e"/><rect x="192" y="136" width="4" height="4" fill="#8c6f9e"/><rect x="200" y="136" width="4" height="4" fill="#8c6f9e"/><rect x="208" y="136" width="4" height="4" fill="#8c6f9e"/><rect x="216" y="136" width="4" height="4" fill="#8c6f9e"/><rect x="224" y="136" width="4" height="4" fill="#8c6f9e"/><rect x="232" y="136" width="4" height="4" fill="#8c6f9e"/><rect x="240" y="136" width="4" height="4" fill="#8c6f9e"/><rect x="248" y="136" width="4" height="4" fill="#8c6f9e"/><rect x="256" y="136" width="4" height="4" fill="#8c6f9e"/><rect x="264" y="136" width="4" height="4" fill="#8c6f9e"/><rect x="272" y="136" width="4" height="4" fill="#8c6f9e"/><rect x="280" y="136" width="4" height="4" fill="#8c6f9e"/><rect x="288" y="136" width="4" height="4" fill="#8c6f9e"/><rect x="296" y="136" width="4" height="4" fill="#8c6f9e"/><rect x="304" y="136" width="4" height="4" fill="#8c6f9e"/><rect x="312" y="136" width="4" height="4" fill="#8c6f9e"/><rect x="320" y="136" width="4" height="4" fill="#8c6f9e"/><rect x="328" y="136" width="4" height="4" fill="#8c6f9e"/><rect x="336" y="136" width="4" height="4" fill="#8c6f9e"/><rect x="344" y="136" width="4" height="4" fill="#8c6f9e"/><rect x="0" y="140" width="352" height="20" fill="#8c6f9e"/><rect x="4" y="156" width="4" height="4" fill="#5a5f8e"/><rect x="12" y="156" width="4" height="4" fill="#5a5f8e"/><rect x="20" y="156" width="4" height="4" fill="#5a5f8e"/><rect x="28" y="156" width="4" height="4" fill="#5a5f8e"/><rect x="36" y="156" width="4" height="4" fill="#5a5f8e"/><rect x="44" y="156" width="4" height="4" fill="#5a5f8e"/><rect x="52" y="156" width="4" height="4" fill="#5a5f8e"/><rect x="60" y="156" width="4" height="4" fill="#5a5f8e"/><rect x="68" y="156" width="4" height="4" fill="#5a5f8e"/><rect x="76" y="156" width="4" height="4" fill="#5a5f8e"/><rect x="84" y="156" width="4" height="4" fill="#5a5f8e"/><rect x="92" y="156" width="4" height="4" fill="#5a5f8e"/><rect x="100" y="156" width="4" height="4" fill="#5a5f8e"/><rect x="108" y="156" width="4" height="4" fill="#5a5f8e"/><rect x="116" y="156" width="4" height="4" fill="#5a5f8e"/><rect x="124" y="156" width="4" height="4" fill="#5a5f8e"/><rect x="132" y="156" width="4" height="4" fill="#5a5f8e"/><rect x="140" y="156" width="4" height="4" fill="#5a5f8e"/><rect x="148" y="156" width="4" height="4" fill="#5a5f8e"/><rect x="156" y="156" width="4" height="4" fill="#5a5f8e"/><rect x="164" y="156" width="4" height="4" fill="#5a5f8e"/><rect x="172" y="156" width="4" height="4" fill="#5a5f8e"/><rect x="180" y="156" width="4" height="4" fill="#5a5f8e"/><rect x="188" y="156" width="4" height="4" fill="#5a5f8e"/><rect x="196" y="156" width="4" height="4" fill="#5a5f8e"/><rect x="204" y="156" width="4" height="4" fill="#5a5f8e"/><rect x="212" y="156" width="4" height="4" fill="#5a5f8e"/><rect x="220" y="156" width="4" height="4" fill="#5a5f8e"/><rect x="228" y="156" width="4" height="4" fill="#5a5f8e"/><rect x="236" y="156" width="4" height="4" fill="#5a5f8e"/><rect x="244" y="156" width="4" height="4" fill="#5a5f8e"/><rect x="252" y="156" width="4" height="4" fill="#5a5f8e"/><rect x="260" y="156" width="4" height="4" fill="#5a5f8e"/><rect x="268" y="156" width="4" height="4" fill="#5a5f8e"/><rect x="276" y="156" width="4" height="4" fill="#5a5f8e"/><rect x="284" y="156" width="4" height="4" fill="#5a5f8e"/><rect x="292" y="156" width="4" height="4" fill="#5a5f8e"/><rect x="300" y="156" width="4" height="4" fill="#5a5f8e"/><rect x="308" y="156" width="4" height="4" fill="#5a5f8e"/><rect x="316" y="156" width="4" height="4" fill="#5a5f8e"/><rect x="324" y="156" width="4" height="4" fill="#5a5f8e"/><rect x="332" y="156" width="4" height="4" fill="#5a5f8e"/><rect x="340" y="156" width="4" height="4" fill="#5a5f8e"/><rect x="348" y="156" width="4" height="4" fill="#5a5f8e"/><rect x="0" y="160" width="352" height="24" fill="#5a5f8e"/><rect x="8" y="124" width="104" height="4" fill="#b8452e"/><rect x="24" y="96" width="4" height="32" fill="#b8452e"/><rect x="88" y="96" width="4" height="32" fill="#b8452e"/><rect x="24" y="116" width="4" height="4" fill="#b8452e"/><rect x="28" y="112" width="4" height="4" fill="#b8452e"/><rect x="32" y="108" width="4" height="4" fill="#b8452e"/><rect x="36" y="104" width="4" height="4" fill="#b8452e"/><rect x="40" y="100" width="4" height="4" fill="#b8452e"/><rect x="44" y="100" width="4" height="4" fill="#b8452e"/><rect x="48" y="96" width="4" height="4" fill="#b8452e"/><rect x="52" y="96" width="4" height="4" fill="#b8452e"/><rect x="56" y="96" width="4" height="4" fill="#b8452e"/><rect x="60" y="96" width="4" height="4" fill="#b8452e"/><rect x="64" y="96" width="4" height="4" fill="#b8452e"/><rect x="68" y="100" width="4" height="4" fill="#b8452e"/><rect x="72" y="100" width="4" height="4" fill="#b8452e"/><rect x="76" y="104" width="4" height="4" fill="#b8452e"/><rect x="80" y="108" width="4" height="4" fill="#b8452e"/><rect x="84" y="112" width="4" height="4" fill="#b8452e"/><rect x="88" y="116" width="4" height="4" fill="#b8452e"/><rect x="0" y="124" width="4" height="12" fill="#5a3f5e"/><rect x="4" y="124" width="4" height="12" fill="#5a3f5e"/><rect x="8" y="120" width="4" height="16" fill="#5a3f5e"/><rect x="12" y="120" width="4" height="16" fill="#5a3f5e"/><rect x="16" y="116" width="4" height="20" fill="#5a3f5e"/><rect x="20" y="116" width="4" height="20" fill="#5a3f5e"/><rect x="24" y="116" width="4" height="20" fill="#5a3f5e"/><rect x="28" y="116" width="4" height="20" fill="#5a3f5e"/><rect x="32" y="116" width="4" height="20" fill="#5a3f5e"/><rect x="36" y="116" width="4" height="20" fill="#5a3f5e"/><rect x="40" y="120" width="4" height="16" fill="#5a3f5e"/><rect x="44" y="120" width="4" height="16" fill="#5a3f5e"/><rect x="48" y="124" width="4" height="12" fill="#5a3f5e"/><rect x="52" y="124" width="4" height="12" fill="#5a3f5e"/><rect x="56" y="128" width="4" height="8" fill="#5a3f5e"/><rect x="60" y="128" width="4" height="8" fill="#5a3f5e"/><rect x="64" y="132" width="4" height="4" fill="#5a3f5e"/><rect x="68" y="132" width="4" height="4" fill="#5a3f5e"/><rect x="72" y="132" width="4" height="4" fill="#5a3f5e"/><rect x="76" y="132" width="4" height="4" fill="#5a3f5e"/><rect x="80" y="132" width="4" height="4" fill="#5a3f5e"/><rect x="84" y="132" width="4" height="4" fill="#5a3f5e"/><rect x="88" y="128" width="4" height="8" fill="#5a3f5e"/><rect x="92" y="128" width="4" height="8" fill="#5a3f5e"/><rect x="96" y="128" width="4" height="8" fill="#5a3f5e"/><rect x="100" y="124" width="4" height="12" fill="#5a3f5e"/><rect x="104" y="124" width="4" height="12" fill="#5a3f5e"/><rect x="108" y="120" width="4" height="16" fill="#5a3f5e"/><rect x="112" y="120" width="4" height="16" fill="#5a3f5e"/><rect x="116" y="116" width="4" height="20" fill="#5a3f5e"/><rect x="120" y="132" width="4" height="4" fill="#5a3f5e"/><rect x="124" y="132" width="4" height="4" fill="#5a3f5e"/><rect x="128" y="132" width="4" height="4" fill="#5a3f5e"/><rect x="132" y="132" width="4" height="4" fill="#5a3f5e"/><rect x="0" y="176" width="352" height="32" fill="#3a3050"/><rect x="0" y="216" width="4" height="40" fill="#c99a4a"/><rect x="4" y="216" width="4" height="40" fill="#c99a4a"/><rect x="8" y="212" width="4" height="44" fill="#c99a4a"/><rect x="12" y="212" width="4" height="44" fill="#c99a4a"/><rect x="16" y="212" width="4" height="44" fill="#c99a4a"/><rect x="20" y="212" width="4" height="44" fill="#c99a4a"/><rect x="24" y="208" width="4" height="48" fill="#c99a4a"/><rect x="28" y="208" width="4" height="48" fill="#c99a4a"/><rect x="32" y="208" width="4" height="48" fill="#c99a4a"/><rect x="36" y="208" width="4" height="48" fill="#c99a4a"/><rect x="40" y="208" width="4" height="48" fill="#c99a4a"/><rect x="44" y="208" width="4" height="48" fill="#c99a4a"/><rect x="48" y="204" width="4" height="52" fill="#c99a4a"/><rect x="52" y="204" width="4" height="52" fill="#c99a4a"/><rect x="56" y="204" width="4" height="52" fill="#c99a4a"/><rect x="60" y="204" width="4" height="52" fill="#c99a4a"/><rect x="64" y="204" width="4" height="52" fill="#c99a4a"/><rect x="68" y="208" width="4" height="48" fill="#c99a4a"/><rect x="72" y="208" width="4" height="48" fill="#c99a4a"/><rect x="76" y="208" width="4" height="48" fill="#c99a4a"/><rect x="80" y="208" width="4" height="48" fill="#c99a4a"/><rect x="84" y="212" width="4" height="44" fill="#c99a4a"/><rect x="88" y="212" width="4" height="44" fill="#c99a4a"/><rect x="92" y="212" width="4" height="44" fill="#c99a4a"/><rect x="96" y="216" width="4" height="40" fill="#c99a4a"/><rect x="100" y="216" width="4" height="40" fill="#c99a4a"/><rect x="104" y="216" width="4" height="40" fill="#c99a4a"/><rect x="108" y="216" width="4" height="40" fill="#c99a4a"/><rect x="112" y="220" width="4" height="36" fill="#c99a4a"/><rect x="116" y="220" width="4" height="36" fill="#c99a4a"/><rect x="120" y="220" width="4" height="36" fill="#c99a4a"/><rect x="124" y="220" width="4" height="36" fill="#c99a4a"/><rect x="128" y="220" width="4" height="36" fill="#c99a4a"/><rect x="132" y="220" width="4" height="36" fill="#c99a4a"/><rect x="136" y="216" width="4" height="40" fill="#c99a4a"/><rect x="140" y="216" width="4" height="40" fill="#c99a4a"/><rect x="144" y="216" width="4" height="40" fill="#c99a4a"/><rect x="148" y="216" width="4" height="40" fill="#c99a4a"/><rect x="152" y="216" width="4" height="40" fill="#c99a4a"/><rect x="156" y="212" width="4" height="44" fill="#c99a4a"/><rect x="160" y="212" width="4" height="44" fill="#c99a4a"/><rect x="164" y="212" width="4" height="44" fill="#c99a4a"/><rect x="168" y="212" width="4" height="44" fill="#c99a4a"/><rect x="172" y="208" width="4" height="48" fill="#c99a4a"/><rect x="176" y="208" width="4" height="48" fill="#c99a4a"/><rect x="180" y="208" width="4" height="48" fill="#c99a4a"/><rect x="184" y="204" width="4" height="52" fill="#c99a4a"/><rect x="188" y="204" width="4" height="52" fill="#c99a4a"/><rect x="192" y="204" width="4" height="52" fill="#c99a4a"/><rect x="196" y="204" width="4" height="52" fill="#c99a4a"/><rect x="200" y="200" width="4" height="56" fill="#c99a4a"/><rect x="204" y="200" width="4" height="56" fill="#c99a4a"/><rect x="208" y="200" width="4" height="56" fill="#c99a4a"/><rect x="212" y="200" width="4" height="56" fill="#c99a4a"/><rect x="216" y="200" width="4" height="56" fill="#c99a4a"/><rect x="220" y="200" width="4" height="56" fill="#c99a4a"/><rect x="224" y="196" width="4" height="60" fill="#c99a4a"/><rect x="228" y="196" width="4" height="60" fill="#c99a4a"/><rect x="232" y="196" width="4" height="60" fill="#c99a4a"/><rect x="236" y="196" width="4" height="60" fill="#c99a4a"/><rect x="240" y="196" width="4" height="60" fill="#c99a4a"/><rect x="244" y="200" width="4" height="56" fill="#c99a4a"/><rect x="248" y="200" width="4" height="56" fill="#c99a4a"/><rect x="252" y="200" width="4" height="56" fill="#c99a4a"/><rect x="256" y="200" width="4" height="56" fill="#c99a4a"/><rect x="260" y="204" width="4" height="52" fill="#c99a4a"/><rect x="264" y="204" width="4" height="52" fill="#c99a4a"/><rect x="268" y="204" width="4" height="52" fill="#c99a4a"/><rect x="272" y="208" width="4" height="48" fill="#c99a4a"/><rect x="276" y="208" width="4" height="48" fill="#c99a4a"/><rect x="280" y="208" width="4" height="48" fill="#c99a4a"/><rect x="284" y="208" width="4" height="48" fill="#c99a4a"/><rect x="288" y="212" width="4" height="44" fill="#c99a4a"/><rect x="292" y="212" width="4" height="44" fill="#c99a4a"/><rect x="296" y="212" width="4" height="44" fill="#c99a4a"/><rect x="300" y="212" width="4" height="44" fill="#c99a4a"/><rect x="304" y="212" width="4" height="44" fill="#c99a4a"/><rect x="308" y="212" width="4" height="44" fill="#c99a4a"/><rect x="312" y="208" width="4" height="48" fill="#c99a4a"/><rect x="316" y="208" width="4" height="48" fill="#c99a4a"/><rect x="320" y="208" width="4" height="48" fill="#c99a4a"/><rect x="324" y="208" width="4" height="48" fill="#c99a4a"/><rect x="328" y="208" width="4" height="48" fill="#c99a4a"/><rect x="332" y="204" width="4" height="52" fill="#c99a4a"/><rect x="336" y="204" width="4" height="52" fill="#c99a4a"/><rect x="340" y="204" width="4" height="52" fill="#c99a4a"/><rect x="344" y="204" width="4" height="52" fill="#c99a4a"/><rect x="348" y="200" width="4" height="56" fill="#c99a4a"/><rect x="0" y="236" width="4" height="20" fill="#a97a3a"/><rect x="4" y="236" width="4" height="20" fill="#a97a3a"/><rect x="8" y="232" width="4" height="24" fill="#a97a3a"/><rect x="12" y="232" width="4" height="24" fill="#a97a3a"/><rect x="16" y="232" width="4" height="24" fill="#a97a3a"/><rect x="20" y="232" width="4" height="24" fill="#a97a3a"/><rect x="24" y="228" width="4" height="28" fill="#a97a3a"/><rect x="28" y="228" width="4" height="28" fill="#a97a3a"/><rect x="32" y="228" width="4" height="28" fill="#a97a3a"/><rect x="36" y="228" width="4" height="28" fill="#a97a3a"/><rect x="40" y="228" width="4" height="28" fill="#a97a3a"/><rect x="44" y="228" width="4" height="28" fill="#a97a3a"/><rect x="48" y="224" width="4" height="32" fill="#a97a3a"/><rect x="52" y="224" width="4" height="32" fill="#a97a3a"/><rect x="56" y="224" width="4" height="32" fill="#a97a3a"/><rect x="60" y="224" width="4" height="32" fill="#a97a3a"/><rect x="64" y="224" width="4" height="32" fill="#a97a3a"/><rect x="68" y="228" width="4" height="28" fill="#a97a3a"/><rect x="72" y="228" width="4" height="28" fill="#a97a3a"/><rect x="76" y="228" width="4" height="28" fill="#a97a3a"/><rect x="80" y="228" width="4" height="28" fill="#a97a3a"/><rect x="84" y="232" width="4" height="24" fill="#a97a3a"/><rect x="88" y="232" width="4" height="24" fill="#a97a3a"/><rect x="92" y="232" width="4" height="24" fill="#a97a3a"/><rect x="96" y="236" width="4" height="20" fill="#a97a3a"/><rect x="100" y="236" width="4" height="20" fill="#a97a3a"/><rect x="104" y="236" width="4" height="20" fill="#a97a3a"/><rect x="108" y="236" width="4" height="20" fill="#a97a3a"/><rect x="112" y="240" width="4" height="16" fill="#a97a3a"/><rect x="116" y="240" width="4" height="16" fill="#a97a3a"/><rect x="120" y="240" width="4" height="16" fill="#a97a3a"/><rect x="124" y="240" width="4" height="16" fill="#a97a3a"/><rect x="128" y="240" width="4" height="16" fill="#a97a3a"/><rect x="132" y="240" width="4" height="16" fill="#a97a3a"/><rect x="136" y="236" width="4" height="20" fill="#a97a3a"/><rect x="140" y="236" width="4" height="20" fill="#a97a3a"/><rect x="144" y="236" width="4" height="20" fill="#a97a3a"/><rect x="148" y="236" width="4" height="20" fill="#a97a3a"/><rect x="152" y="236" width="4" height="20" fill="#a97a3a"/><rect x="156" y="232" width="4" height="24" fill="#a97a3a"/><rect x="160" y="232" width="4" height="24" fill="#a97a3a"/><rect x="164" y="232" width="4" height="24" fill="#a97a3a"/><rect x="168" y="232" width="4" height="24" fill="#a97a3a"/><rect x="172" y="228" width="4" height="28" fill="#a97a3a"/><rect x="176" y="228" width="4" height="28" fill="#a97a3a"/><rect x="180" y="228" width="4" height="28" fill="#a97a3a"/><rect x="184" y="224" width="4" height="32" fill="#a97a3a"/><rect x="188" y="224" width="4" height="32" fill="#a97a3a"/><rect x="192" y="224" width="4" height="32" fill="#a97a3a"/><rect x="196" y="224" width="4" height="32" fill="#a97a3a"/><rect x="200" y="220" width="4" height="36" fill="#a97a3a"/><rect x="204" y="220" width="4" height="36" fill="#a97a3a"/><rect x="208" y="220" width="4" height="36" fill="#a97a3a"/><rect x="212" y="220" width="4" height="36" fill="#a97a3a"/><rect x="216" y="220" width="4" height="36" fill="#a97a3a"/><rect x="220" y="220" width="4" height="36" fill="#a97a3a"/><rect x="224" y="216" width="4" height="40" fill="#a97a3a"/><rect x="228" y="216" width="4" height="40" fill="#a97a3a"/><rect x="232" y="216" width="4" height="40" fill="#a97a3a"/><rect x="236" y="216" width="4" height="40" fill="#a97a3a"/><rect x="240" y="216" width="4" height="40" fill="#a97a3a"/><rect x="244" y="220" width="4" height="36" fill="#a97a3a"/><rect x="248" y="220" width="4" height="36" fill="#a97a3a"/><rect x="252" y="220" width="4" height="36" fill="#a97a3a"/><rect x="256" y="220" width="4" height="36" fill="#a97a3a"/><rect x="260" y="224" width="4" height="32" fill="#a97a3a"/><rect x="264" y="224" width="4" height="32" fill="#a97a3a"/><rect x="268" y="224" width="4" height="32" fill="#a97a3a"/><rect x="272" y="228" width="4" height="28" fill="#a97a3a"/><rect x="276" y="228" width="4" height="28" fill="#a97a3a"/><rect x="280" y="228" width="4" height="28" fill="#a97a3a"/><rect x="284" y="228" width="4" height="28" fill="#a97a3a"/><rect x="288" y="232" width="4" height="24" fill="#a97a3a"/><rect x="292" y="232" width="4" height="24" fill="#a97a3a"/><rect x="296" y="232" width="4" height="24" fill="#a97a3a"/><rect x="300" y="232" width="4" height="24" fill="#a97a3a"/><rect x="304" y="232" width="4" height="24" fill="#a97a3a"/><rect x="308" y="232" width="4" height="24" fill="#a97a3a"/><rect x="312" y="228" width="4" height="28" fill="#a97a3a"/><rect x="316" y="228" width="4" height="28" fill="#a97a3a"/><rect x="320" y="228" width="4" height="28" fill="#a97a3a"/><rect x="324" y="228" width="4" height="28" fill="#a97a3a"/><rect x="328" y="228" width="4" height="28" fill="#a97a3a"/><rect x="332" y="224" width="4" height="32" fill="#a97a3a"/><rect x="336" y="224" width="4" height="32" fill="#a97a3a"/><rect x="340" y="224" width="4" height="32" fill="#a97a3a"/><rect x="344" y="224" width="4" height="32" fill="#a97a3a"/><rect x="348" y="220" width="4" height="36" fill="#a97a3a"/><rect x="160" y="240" width="4" height="4" fill="#e8c98a"/><rect x="164" y="240" width="4" height="4" fill="#e8c98a"/><rect x="168" y="240" width="4" height="4" fill="#e8c98a"/><rect x="172" y="236" width="4" height="4" fill="#e8c98a"/><rect x="176" y="236" width="4" height="4" fill="#e8c98a"/><rect x="180" y="236" width="4" height="4" fill="#e8c98a"/><rect x="184" y="232" width="4" height="4" fill="#e8c98a"/><rect x="188" y="232" width="4" height="4" fill="#e8c98a"/><rect x="192" y="232" width="4" height="4" fill="#e8c98a"/><rect x="196" y="232" width="4" height="4" fill="#e8c98a"/><rect x="200" y="228" width="4" height="4" fill="#e8c98a"/><rect x="204" y="228" width="4" height="4" fill="#e8c98a"/><rect x="208" y="228" width="4" height="4" fill="#e8c98a"/><rect x="212" y="228" width="4" height="4" fill="#e8c98a"/><rect x="216" y="228" width="4" height="4" fill="#e8c98a"/><rect x="220" y="228" width="4" height="4" fill="#e8c98a"/><rect x="224" y="224" width="4" height="4" fill="#e8c98a"/><rect x="228" y="224" width="4" height="4" fill="#e8c98a"/><rect x="232" y="224" width="4" height="4" fill="#e8c98a"/><rect x="236" y="224" width="4" height="4" fill="#e8c98a"/><rect x="240" y="224" width="4" height="4" fill="#e8c98a"/><rect x="244" y="228" width="4" height="4" fill="#e8c98a"/><rect x="248" y="228" width="4" height="4" fill="#e8c98a"/><rect x="252" y="228" width="4" height="4" fill="#e8c98a"/><rect x="256" y="228" width="4" height="4" fill="#e8c98a"/><rect x="260" y="232" width="4" height="4" fill="#e8c98a"/><rect x="264" y="232" width="4" height="4" fill="#e8c98a"/><rect x="268" y="232" width="4" height="4" fill="#e8c98a"/><rect x="272" y="236" width="4" height="4" fill="#e8c98a"/><rect x="276" y="236" width="4" height="4" fill="#e8c98a"/><rect x="280" y="236" width="4" height="4" fill="#e8c98a"/><rect x="284" y="236" width="4" height="4" fill="#e8c98a"/><rect x="288" y="240" width="4" height="4" fill="#e8c98a"/><rect x="292" y="240" width="4" height="4" fill="#e8c98a"/><rect x="296" y="240" width="4" height="4" fill="#e8c98a"/><rect x="300" y="240" width="4" height="4" fill="#e8c98a"/><rect x="304" y="240" width="4" height="4" fill="#e8c98a"/><rect x="308" y="240" width="4" height="4" fill="#e8c98a"/><rect x="312" y="236" width="4" height="4" fill="#e8c98a"/><rect x="316" y="236" width="4" height="4" fill="#e8c98a"/><rect x="320" y="236" width="4" height="4" fill="#e8c98a"/><rect x="324" y="236" width="4" height="4" fill="#e8c98a"/><rect x="328" y="236" width="4" height="4" fill="#e8c98a"/><rect x="332" y="232" width="4" height="4" fill="#e8c98a"/><rect x="336" y="232" width="4" height="4" fill="#e8c98a"/><rect x="340" y="232" width="4" height="4" fill="#e8c98a"/><rect x="344" y="232" width="4" height="4" fill="#e8c98a"/><rect x="348" y="228" width="4" height="4" fill="#e8c98a"/><rect x="284" y="168" width="8" height="36" fill="#4a3526"/><rect x="288" y="140" width="4" height="4" fill="#3e4a2a"/><rect x="276" y="144" width="28" height="4" fill="#3e4a2a"/><rect x="272" y="148" width="36" height="4" fill="#3e4a2a"/><rect x="272" y="152" width="36" height="4" fill="#3e4a2a"/><rect x="268" y="156" width="44" height="4" fill="#3e4a2a"/><rect x="268" y="160" width="44" height="4" fill="#3e4a2a"/><rect x="268" y="164" width="44" height="4" fill="#3e4a2a"/><rect x="272" y="168" width="36" height="4" fill="#3e4a2a"/><rect x="272" y="172" width="36" height="4" fill="#3e4a2a"/><rect x="276" y="176" width="28" height="4" fill="#3e4a2a"/><rect x="288" y="180" width="4" height="4" fill="#3e4a2a"/><rect x="280" y="140" width="4" height="4" fill="#51603a"/><rect x="272" y="144" width="20" height="4" fill="#51603a"/><rect x="268" y="148" width="28" height="4" fill="#51603a"/><rect x="268" y="152" width="28" height="4" fill="#51603a"/><rect x="268" y="156" width="28" height="4" fill="#51603a"/><rect x="272" y="160" width="20" height="4" fill="#51603a"/><rect x="280" y="164" width="4" height="4" fill="#51603a"/><rect x="232" y="200" width="8" height="16" fill="#2a5aa8"/><rect x="232" y="192" width="8" height="8" fill="#e0aa80"/><rect x="244" y="200" width="8" height="16" fill="#d84a4a"/><rect x="244" y="192" width="8" height="8" fill="#b07850"/><g class="glint"><rect x="80" y="132" width="32" height="4" fill="#ffd98a"/><rect x="88" y="140" width="28" height="4" fill="#ffd98a"/><rect x="84" y="148" width="24" height="4" fill="#ffd98a"/><rect x="80" y="156" width="20" height="4" fill="#ffd98a"/><rect x="88" y="164" width="16" height="4" fill="#ffd98a"/><rect x="84" y="172" width="12" height="4" fill="#ffd98a"/></g><g class="twinkle"><rect x="164" y="196" width="4" height="4" fill="#ffd98a"/><rect x="136" y="176" width="4" height="4" fill="#ffd98a"/><rect x="268" y="180" width="4" height="4" fill="#ffd98a"/><rect x="308" y="196" width="4" height="4" fill="#ffd98a"/><rect x="256" y="192" width="4" height="4" fill="#ffffff"/><rect x="320" y="204" width="4" height="4" fill="#ffd98a"/><rect x="4" y="176" width="4" height="4" fill="#ffffff"/><rect x="120" y="180" width="4" height="4" fill="#ffd98a"/><rect x="96" y="204" width="4" height="4" fill="#ffd98a"/><rect x="208" y="176" width="4" height="4" fill="#ffffff"/><rect x="104" y="176" width="4" height="4" fill="#ffd98a"/><rect x="148" y="184" width="4" height="4" fill="#ffffff"/><rect x="220" y="176" width="4" height="4" fill="#ffffff"/><rect x="204" y="184" width="4" height="4" fill="#ffd98a"/><rect x="84" y="180" width="4" height="4" fill="#ffd98a"/><rect x="340" y="204" width="4" height="4" fill="#ffd98a"/><rect x="312" y="204" width="4" height="4" fill="#ffffff"/><rect x="228" y="188" width="4" height="4" fill="#ffd98a"/><rect x="28" y="192" width="4" height="4" fill="#ffffff"/><rect x="24" y="204" width="4" height="4" fill="#ffffff"/><rect x="276" y="176" width="4" height="4" fill="#ffd98a"/><rect x="228" y="176" width="4" height="4" fill="#ffd98a"/><rect x="324" y="196" width="4" height="4" fill="#ffd98a"/><rect x="108" y="188" width="4" height="4" fill="#ffffff"/><rect x="304" y="196" width="4" height="4" fill="#ffd98a"/><rect x="304" y="192" width="4" height="4" fill="#ffd98a"/><rect x="316" y="192" width="4" height="4" fill="#ffd98a"/><rect x="212" y="192" width="4" height="4" fill="#ffd98a"/><rect x="220" y="204" width="4" height="4" fill="#ffd98a"/><rect x="148" y="192" width="4" height="4" fill="#ffffff"/><rect x="264" y="204" width="4" height="4" fill="#ffd98a"/><rect x="92" y="180" width="4" height="4" fill="#ffd98a"/><rect x="228" y="180" width="4" height="4" fill="#ffffff"/><rect x="252" y="192" width="4" height="4" fill="#ffffff"/><rect x="296" y="188" width="4" height="4" fill="#ffd98a"/><rect x="300" y="196" width="4" height="4" fill="#ffd98a"/><rect x="172" y="204" width="4" height="4" fill="#ffd98a"/><rect x="36" y="184" width="4" height="4" fill="#ffffff"/><rect x="324" y="184" width="4" height="4" fill="#ffffff"/><rect x="12" y="176" width="4" height="4" fill="#ffd98a"/><rect x="188" y="188" width="4" height="4" fill="#ffd98a"/><rect x="8" y="184" width="4" height="4" fill="#ffffff"/><rect x="228" y="188" width="4" height="4" fill="#ffd98a"/><rect x="24" y="188" width="4" height="4" fill="#ffd98a"/><rect x="96" y="180" width="4" height="4" fill="#ffd98a"/><rect x="208" y="188" width="4" height="4" fill="#ffffff"/><rect x="192" y="204" width="4" height="4" fill="#ffffff"/><rect x="252" y="188" width="4" height="4" fill="#ffffff"/><rect x="112" y="188" width="4" height="4" fill="#ffd98a"/><rect x="332" y="204" width="4" height="4" fill="#ffd98a"/><rect x="324" y="176" width="4" height="4" fill="#ffffff"/><rect x="76" y="200" width="4" height="4" fill="#ffd98a"/><rect x="176" y="192" width="4" height="4" fill="#ffd98a"/><rect x="136" y="188" width="4" height="4" fill="#ffd98a"/><rect x="104" y="176" width="4" height="4" fill="#ffd98a"/><rect x="208" y="184" width="4" height="4" fill="#ffd98a"/><rect x="40" y="196" width="4" height="4" fill="#ffd98a"/><rect x="76" y="180" width="4" height="4" fill="#ffd98a"/><rect x="232" y="192" width="4" height="4" fill="#ffffff"/><rect x="192" y="184" width="4" height="4" fill="#ffd98a"/></g><rect class="foil" x="0" y="0" width="352" height="256" fill="url(#sheen)"/></g>
<rect x="21" y="340" width="358" height="26" fill="#8e3fd0" stroke="#12121c" stroke-width="3"/>
<rect x="33" y="347" width="6" height="3" fill="#fff"/><rect x="30" y="350" width="12" height="3" fill="#fff"/><rect x="33" y="353" width="6" height="3" fill="#fff"/><rect x="33" y="356" width="6" height="3" fill="#fff"/>
<text x="48" y="358" font-family="ui-monospace, 'SF Mono', Menlo, 'DejaVu Sans Mono', monospace" font-size="12" font-weight="700" fill="#ffffff" letter-spacing="2">RARE</text>
<text x="370" y="358" font-family="ui-monospace, 'SF Mono', Menlo, 'DejaVu Sans Mono', monospace" font-size="11" font-weight="700" fill="#ffffff" text-anchor="end">BERKELEY &amp; THE EAST BAY HILLS</text>
<text x="24" y="392" font-family="ui-monospace, 'SF Mono', Menlo, 'DejaVu Sans Mono', monospace" font-size="13" fill="#2a2a36">Climb the fire trails at sunset and the</text>
<text x="24" y="410" font-family="ui-monospace, 'SF Mono', Menlo, 'DejaVu Sans Mono', monospace" font-size="13" fill="#2a2a36">whole bay lines up, bridge and all.</text>
<rect x="24" y="456" width="113.33333333333333" height="40" fill="#ffffff" stroke="#12121c" stroke-width="2"/><rect x="27" y="459" width="107.33333333333333" height="12" fill="#8e3fd0"/><text x="32" y="468" font-family="ui-monospace, 'SF Mono', Menlo, 'DejaVu Sans Mono', monospace" font-size="8" font-weight="700" fill="#ffffff" letter-spacing="1.5">EDITION</text><text x="32" y="488" font-family="ui-monospace, 'SF Mono', Menlo, 'DejaVu Sans Mono', monospace" font-size="13" font-weight="700" fill="#12121c">25 MAX</text><rect x="143.33333333333331" y="456" width="113.33333333333333" height="40" fill="#ffffff" stroke="#12121c" stroke-width="2"/><rect x="146.33333333333331" y="459" width="107.33333333333333" height="12" fill="#12121c"/><text x="151.33333333333331" y="468" font-family="ui-monospace, 'SF Mono', Menlo, 'DejaVu Sans Mono', monospace" font-size="8" font-weight="700" fill="#ffffff" letter-spacing="1.5">MINT</text><text x="151.33333333333331" y="488" font-family="ui-monospace, 'SF Mono', Menlo, 'DejaVu Sans Mono', monospace" font-size="13" font-weight="700" fill="#12121c">3 TEZ</text><rect x="262.66666666666663" y="456" width="113.33333333333333" height="40" fill="#ffffff" stroke="#12121c" stroke-width="2"/><rect x="265.66666666666663" y="459" width="107.33333333333333" height="12" fill="#12121c"/><text x="270.66666666666663" y="468" font-family="ui-monospace, 'SF Mono', Menlo, 'DejaVu Sans Mono', monospace" font-size="8" font-weight="700" fill="#ffffff" letter-spacing="1.5">CARD</text><text x="270.66666666666663" y="488" font-family="ui-monospace, 'SF Mono', Menlo, 'DejaVu Sans Mono', monospace" font-size="13" font-weight="700" fill="#12121c">03/12</text>
<line x1="24" y1="510" x2="376" y2="510" stroke="#12121c" stroke-width="2" stroke-dasharray="4 4"/>
<text x="24" y="528" font-family="ui-monospace, 'SF Mono', Menlo, 'DejaVu Sans Mono', monospace" font-size="9" font-weight="700" fill="#5a5a66" letter-spacing="1">UNOFFICIAL · PLACES ONLY · CC0 · POINTCAST.XYZ</text>
<text x="376" y="528" font-family="ui-monospace, 'SF Mono', Menlo, 'DejaVu Sans Mono', monospace" font-size="9" font-weight="700" fill="#5a5a66" text-anchor="end">TEZOS</text>
</svg>
