<svg xmlns="http://www.w3.org/2000/svg" width="1600" height="1200" viewBox="0 0 1600 1200">
  <defs>
    <linearGradient id="canShade" x1="0" x2="1" y1="0" y2="0">
      <stop offset="0" stop-color="#7f1f24"/>
      <stop offset="0.18" stop-color="#d7353d"/>
      <stop offset="0.5" stop-color="#ff4a52"/>
      <stop offset="0.78" stop-color="#b82c34"/>
      <stop offset="1" stop-color="#641a20"/>
    </linearGradient>
    <linearGradient id="blueCanShade" x1="0" x2="1" y1="0" y2="0">
      <stop offset="0" stop-color="#0b3e73"/>
      <stop offset="0.26" stop-color="#185fa5"/>
      <stop offset="0.58" stop-color="#55a7ff"/>
      <stop offset="1" stop-color="#0b3e73"/>
    </linearGradient>
    <linearGradient id="lidShade" x1="0" x2="0" y1="0" y2="1">
      <stop offset="0" stop-color="#f8f4ea"/>
      <stop offset="0.42" stop-color="#cac6ba"/>
      <stop offset="1" stop-color="#8e8b82"/>
    </linearGradient>
    <filter id="softShadow" x="-20%" y="-20%" width="140%" height="140%">
      <feDropShadow dx="0" dy="28" stdDeviation="28" flood-color="#12110e" flood-opacity="0.22"/>
    </filter>
    <filter id="labelShadow" x="-30%" y="-30%" width="160%" height="160%">
      <feDropShadow dx="0" dy="5" stdDeviation="6" flood-color="#12110e" flood-opacity="0.2"/>
    </filter>
  </defs>

  <rect width="1600" height="1200" fill="#ffffff"/>
  <rect x="80" y="72" width="1440" height="1056" fill="#f7c325"/>
  <rect x="112" y="104" width="1376" height="992" fill="#ffffff"/>

  <g opacity="0.14">
    <rect x="128" y="128" width="120" height="16" fill="#e84d6a"/>
    <rect x="128" y="168" width="220" height="16" fill="#4a9eff"/>
    <rect x="128" y="208" width="166" height="16" fill="#2cc5a0"/>
    <rect x="128" y="1016" width="330" height="16" fill="#e84d6a"/>
    <rect x="1072" y="128" width="340" height="16" fill="#2cc5a0"/>
    <rect x="1190" y="1016" width="224" height="16" fill="#4a9eff"/>
  </g>

  <g filter="url(#softShadow)">
    <g transform="translate(928 265) rotate(8)">
      <ellipse cx="160" cy="22" rx="148" ry="40" fill="url(#lidShade)"/>
      <rect x="12" y="20" width="296" height="615" rx="96" fill="url(#blueCanShade)"/>
      <ellipse cx="160" cy="635" rx="148" ry="40" fill="#0b3e73"/>
      <ellipse cx="160" cy="635" rx="118" ry="25" fill="#185fa5"/>
      <rect x="52" y="137" width="216" height="300" rx="20" fill="#ffffff" filter="url(#labelShadow)"/>
      <rect x="74" y="162" width="74" height="46" fill="#12110e"/>
      <rect x="164" y="162" width="74" height="46" fill="#12110e"/>
      <rect x="142" y="177" width="28" height="15" fill="#12110e"/>
      <rect x="86" y="174" width="34" height="22" fill="#e84d6a"/>
      <rect x="176" y="174" width="34" height="22" fill="#f7c325"/>
      <text x="160" y="274" text-anchor="middle" font-family="Arial Black, Impact, sans-serif" font-size="40" fill="#12110e" letter-spacing="2">COLA</text>
      <text x="160" y="326" text-anchor="middle" font-family="Arial Black, Impact, sans-serif" font-size="34" fill="#185fa5" letter-spacing="1">01</text>
      <text x="160" y="388" text-anchor="middle" font-family="JetBrains Mono, monospace" font-size="16" fill="#38373a" letter-spacing="2">POINTCAST</text>
    </g>

    <g transform="translate(202 350) rotate(-7)">
      <ellipse cx="145" cy="22" rx="134" ry="38" fill="url(#lidShade)"/>
      <rect x="11" y="20" width="268" height="552" rx="88" fill="url(#canShade)"/>
      <ellipse cx="145" cy="572" rx="134" ry="37" fill="#641a20"/>
      <ellipse cx="145" cy="572" rx="106" ry="23" fill="#b82c34"/>
      <rect x="45" y="120" width="200" height="285" rx="19" fill="#ffffff" filter="url(#labelShadow)"/>
      <rect x="67" y="146" width="68" height="42" fill="#12110e"/>
      <rect x="151" y="146" width="68" height="42" fill="#12110e"/>
      <rect x="130" y="160" width="26" height="14" fill="#12110e"/>
      <rect x="78" y="158" width="30" height="18" fill="#4a9eff"/>
      <rect x="162" y="158" width="30" height="18" fill="#2cc5a0"/>
      <text x="145" y="250" text-anchor="middle" font-family="Arial Black, Impact, sans-serif" font-size="36" fill="#12110e" letter-spacing="1.5">NOUNS</text>
      <text x="145" y="304" text-anchor="middle" font-family="Arial Black, Impact, sans-serif" font-size="42" fill="#e84d6a" letter-spacing="1.5">COLA</text>
      <text x="145" y="365" text-anchor="middle" font-family="JetBrains Mono, monospace" font-size="15" fill="#38373a" letter-spacing="2">12 FL OZ</text>
    </g>

    <g transform="translate(555 154)">
      <ellipse cx="205" cy="28" rx="190" ry="50" fill="url(#lidShade)"/>
      <rect x="15" y="28" width="380" height="786" rx="128" fill="url(#canShade)"/>
      <path d="M54 70 C104 42 306 44 356 72 L356 228 C282 198 128 198 54 230 Z" fill="#f7c325"/>
      <path d="M54 589 C127 555 282 553 356 588 L356 812 C308 845 103 846 54 812 Z" fill="#2cc5a0"/>
      <ellipse cx="205" cy="814" rx="190" ry="51" fill="#641a20"/>
      <ellipse cx="205" cy="814" rx="150" ry="31" fill="#b82c34"/>

      <rect x="57" y="244" width="296" height="344" rx="24" fill="#ffffff" filter="url(#labelShadow)"/>
      <rect x="88" y="280" width="96" height="60" fill="#12110e"/>
      <rect x="210" y="280" width="96" height="60" fill="#12110e"/>
      <rect x="177" y="300" width="40" height="20" fill="#12110e"/>
      <rect x="104" y="295" width="45" height="30" fill="#4a9eff"/>
      <rect x="226" y="295" width="45" height="30" fill="#f7c325"/>

      <text x="205" y="410" text-anchor="middle" font-family="Arial Black, Impact, sans-serif" font-size="59" fill="#12110e" letter-spacing="2">NOUNS</text>
      <text x="205" y="489" text-anchor="middle" font-family="Arial Black, Impact, sans-serif" font-size="70" fill="#e84d6a" letter-spacing="2">COLA</text>
      <text x="205" y="546" text-anchor="middle" font-family="JetBrains Mono, monospace" font-size="20" fill="#38373a" letter-spacing="3">FORMULA 01</text>

      <rect x="128" y="116" width="154" height="38" rx="19" fill="#ffffff" opacity="0.86"/>
      <text x="205" y="142" text-anchor="middle" font-family="JetBrains Mono, monospace" font-size="15" fill="#12110e" letter-spacing="2">CC0 CAN</text>

      <path d="M257 36 C278 27 308 31 324 44 C309 57 282 60 257 50 Z" fill="#c4c2bc"/>
      <rect x="275" y="39" width="34" height="9" rx="4.5" fill="#77736a"/>
    </g>
  </g>

  <g transform="translate(185 120)" opacity="0.92">
    <text x="0" y="0" font-family="JetBrains Mono, monospace" font-size="20" fill="#12110e" letter-spacing="4">NOUNS COLA / POINTCAST PILOT</text>
    <text x="0" y="44" font-family="Inter, Arial, sans-serif" font-size="30" fill="#38373a">Formulation, funding, production, profit, yield.</text>
  </g>

  <g transform="translate(1118 885)">
    <rect x="0" y="0" width="260" height="92" rx="12" fill="#12110e"/>
    <text x="130" y="36" text-anchor="middle" font-family="JetBrains Mono, monospace" font-size="18" fill="#ffffff" letter-spacing="3">GO TEAM</text>
    <text x="130" y="66" text-anchor="middle" font-family="JetBrains Mono, monospace" font-size="13" fill="#f7c325" letter-spacing="2">ALPHA READY</text>
  </g>
</svg>
