<svg width="320" height="320" viewBox="0 0 320 320" xmlns="http://www.w3.org/2000/svg" shape-rendering="crispEdges"><rect width="100%" height="100%" fill="#e1d7d5" /><rect width="140" height="10" x="90" y="210" fill="#63a0f9" /><rect width="140" height="10" x="90" y="220" fill="#63a0f9" /><rect width="140" height="10" x="90" y="230" fill="#63a0f9" /><rect width="140" height="10" x="90" y="240" fill="#63a0f9" /><rect width="20" height="10" x="90" y="250" fill="#63a0f9" /><rect width="110" height="10" x="120" y="250" fill="#63a0f9" /><rect width="20" height="10" x="90" y="260" fill="#63a0f9" /><rect width="110" height="10" x="120" y="260" fill="#63a0f9" /><rect width="20" height="10" x="90" y="270" fill="#63a0f9" /><rect width="110" height="10" x="120" y="270" fill="#63a0f9" /><rect width="20" height="10" x="90" y="280" fill="#63a0f9" /><rect width="110" height="10" x="120" y="280" fill="#63a0f9" /><rect width="20" height="10" x="90" y="290" fill="#63a0f9" /><rect width="110" height="10" x="120" y="290" fill="#63a0f9" /><rect width="20" height="10" x="90" y="300" fill="#63a0f9" /><rect width="110" height="10" x="120" y="300" fill="#63a0f9" /><rect width="20" height="10" x="90" y="310" fill="#63a0f9" /><rect width="110" height="10" x="120" y="310" fill="#63a0f9" /><rect width="10" height="10" x="90" y="210" fill="#fff0ee" /><rect width="10" height="10" x="130" y="210" fill="#fff0ee" /><rect width="10" height="10" x="170" y="210" fill="#fff0ee" /><rect width="10" height="10" x="210" y="210" fill="#fff0ee" /><rect width="10" height="10" x="100" y="220" fill="#fff0ee" /><rect width="10" height="10" x="120" y="220" fill="#fff0ee" /><rect width="10" height="10" x="180" y="220" fill="#fff0ee" /><rect width="10" height="10" x="200" y="220" fill="#fff0ee" /><rect width="10" height="10" x="100" y="230" fill="#fff0ee" /><rect width="10" height="10" x="120" y="230" fill="#fff0ee" /><rect width="10" height="10" x="180" y="230" fill="#fff0ee" /><rect width="10" height="10" x="200" y="230" fill="#fff0ee" /><rect width="10" height="10" x="90" y="240" fill="#fff0ee" /><rect width="10" height="10" x="130" y="240" fill="#fff0ee" /><rect width="10" height="10" x="170" y="240" fill="#fff0ee" /><rect width="10" height="10" x="210" y="240" fill="#fff0ee" /><rect width="10" height="10" x="140" y="250" fill="#fff0ee" /><rect width="10" height="10" x="160" y="250" fill="#fff0ee" /><rect width="10" height="10" x="220" y="250" fill="#fff0ee" /><rect width="10" height="10" x="140" y="260" fill="#fff0ee" /><rect width="10" height="10" x="160" y="260" fill="#fff0ee" /><rect width="10" height="10" x="220" y="260" fill="#fff0ee" /><rect width="10" height="10" x="90" y="270" fill="#fff0ee" /><rect width="10" height="10" x="130" y="270" fill="#fff0ee" /><rect width="10" height="10" x="170" y="270" fill="#fff0ee" /><rect width="10" height="10" x="210" y="270" fill="#fff0ee" /><rect width="10" height="10" x="100" y="280" fill="#fff0ee" /><rect width="10" height="10" x="120" y="280" fill="#fff0ee" /><rect width="10" height="10" x="180" y="280" fill="#fff0ee" /><rect width="10" height="10" x="200" y="280" fill="#fff0ee" /><rect width="10" height="10" x="100" y="290" fill="#fff0ee" /><rect width="10" height="10" x="120" y="290" fill="#fff0ee" /><rect width="10" height="10" x="180" y="290" fill="#fff0ee" /><rect width="10" height="10" x="200" y="290" fill="#fff0ee" /><rect width="10" height="10" x="90" y="300" fill="#fff0ee" /><rect width="10" height="10" x="130" y="300" fill="#fff0ee" /><rect width="10" height="10" x="170" y="300" fill="#fff0ee" /><rect width="10" height="10" x="210" y="300" fill="#fff0ee" /><rect width="10" height="10" x="140" y="310" fill="#fff0ee" /><rect width="10" height="10" x="160" y="310" fill="#fff0ee" /><rect width="10" height="10" x="220" y="310" fill="#fff0ee" /><rect width="20" height="10" x="150" y="30" fill="#fb4694" /><rect width="40" height="10" x="140" y="40" fill="#fb4694" /><rect width="20" height="10" x="90" y="50" fill="#fee3f3" /><rect width="10" height="10" x="130" y="50" fill="#cc0595" /><rect width="40" height="10" x="140" y="50" fill="#fb4694" /><rect width="10" height="10" x="180" y="50" fill="#cc0595" /><rect width="20" height="10" x="210" y="50" fill="#fee3f3" /><rect width="50" height="10" x="80" y="60" fill="#fee3f3" /><rect width="10" height="10" x="130" y="60" fill="#cc0595" /><rect width="40" height="10" x="140" y="60" fill="#fb4694" /><rect width="10" height="10" x="180" y="60" fill="#cc0595" /><rect width="50" height="10" x="190" y="60" fill="#fee3f3" /><rect width="70" height="10" x="70" y="70" fill="#fee3f3" /><rect width="10" height="10" x="140" y="70" fill="#cc0595" /><rect width="20" height="10" x="150" y="70" fill="#fb4694" /><rect width="10" height="10" x="170" y="70" fill="#cc0595" /><rect width="70" height="10" x="180" y="70" fill="#fee3f3" /><rect width="70" height="10" x="70" y="80" fill="#fee3f3" /><rect width="40" height="10" x="140" y="80" fill="#f98f30" /><rect width="70" height="10" x="180" y="80" fill="#fee3f3" /><rect width="40" height="10" x="80" y="90" fill="#fee3f3" /><rect width="20" height="10" x="120" y="90" fill="#f98f30" /><rect width="40" height="10" x="140" y="90" fill="#ffe939" /><rect width="20" height="10" x="180" y="90" fill="#f98f30" /><rect width="40" height="10" x="200" y="90" fill="#fee3f3" /><rect width="30" height="10" x="80" y="100" fill="#fee3f3" /><rect width="10" height="10" x="110" y="100" fill="#f98f30" /><rect width="80" height="10" x="120" y="100" fill="#ffe939" /><rect width="10" height="10" x="200" y="100" fill="#f98f30" /><rect width="30" height="10" x="210" y="100" fill="#fee3f3" /><rect width="20" height="10" x="70" y="110" fill="#cc0595" /><rect width="20" height="10" x="90" y="110" fill="#fee3f3" /><rect width="10" height="10" x="110" y="110" fill="#f98f30" /><rect width="80" height="10" x="120" y="110" fill="#ffe939" /><rect width="10" height="10" x="200" y="110" fill="#f98f30" /><rect width="20" height="10" x="210" y="110" fill="#fee3f3" /><rect width="20" height="10" x="230" y="110" fill="#cc0595" /><rect width="30" height="10" x="60" y="120" fill="#fb4694" /><rect width="10" height="10" x="90" y="120" fill="#cc0595" /><rect width="10" height="10" x="100" y="120" fill="#f98f30" /><rect width="100" height="10" x="110" y="120" fill="#ffe939" /><rect width="10" height="10" x="210" y="120" fill="#f98f30" /><rect width="10" height="10" x="220" y="120" fill="#cc0595" /><rect width="30" height="10" x="230" y="120" fill="#fb4694" /><rect width="50" height="10" x="50" y="130" fill="#fb4694" /><rect width="10" height="10" x="100" y="130" fill="#f98f30" /><rect width="100" height="10" x="110" y="130" fill="#ffe939" /><rect width="10" height="10" x="210" y="130" fill="#f98f30" /><rect width="50" height="10" x="220" y="130" fill="#fb4694" /><rect width="50" height="10" x="50" y="140" fill="#fb4694" /><rect width="10" height="10" x="100" y="140" fill="#f98f30" /><rect width="100" height="10" x="110" y="140" fill="#ffe939" /><rect width="10" height="10" x="210" y="140" fill="#f98f30" /><rect width="50" height="10" x="220" y="140" fill="#fb4694" /><rect width="30" height="10" x="60" y="150" fill="#fb4694" /><rect width="10" height="10" x="90" y="150" fill="#cc0595" /><rect width="10" height="10" x="100" y="150" fill="#f98f30" /><rect width="100" height="10" x="110" y="150" fill="#ffe939" /><rect width="10" height="10" x="210" y="150" fill="#f98f30" /><rect width="10" height="10" x="220" y="150" fill="#cc0595" /><rect width="30" height="10" x="230" y="150" fill="#fb4694" /><rect width="20" height="10" x="70" y="160" fill="#cc0595" /><rect width="20" height="10" x="90" y="160" fill="#fee3f3" /><rect width="10" height="10" x="110" y="160" fill="#f98f30" /><rect width="80" height="10" x="120" y="160" fill="#ffe939" /><rect width="10" height="10" x="200" y="160" fill="#f98f30" /><rect width="20" height="10" x="210" y="160" fill="#fee3f3" /><rect width="20" height="10" x="230" y="160" fill="#cc0595" /><rect width="30" height="10" x="80" y="170" fill="#fee3f3" /><rect width="10" height="10" x="110" y="170" fill="#f98f30" /><rect width="80" height="10" x="120" y="170" fill="#ffe939" /><rect width="10" height="10" x="200" y="170" fill="#f98f30" /><rect width="30" height="10" x="210" y="170" fill="#fee3f3" /><rect width="40" height="10" x="80" y="180" fill="#fee3f3" /><rect width="20" height="10" x="120" y="180" fill="#f98f30" /><rect width="10" height="10" x="140" y="180" fill="#ffe939" /><rect width="30" height="10" x="150" y="180" fill="#4d271b" /><rect width="20" height="10" x="180" y="180" fill="#f98f30" /><rect width="40" height="10" x="200" y="180" fill="#fee3f3" /><rect width="70" height="10" x="70" y="190" fill="#fee3f3" /><rect width="40" height="10" x="140" y="190" fill="#f98f30" /><rect width="70" height="10" x="180" y="190" fill="#fee3f3" /><rect width="70" height="10" x="70" y="200" fill="#fee3f3" /><rect width="10" height="10" x="140" y="200" fill="#cc0595" /><rect width="20" height="10" x="150" y="200" fill="#fb4694" /><rect width="10" height="10" x="170" y="200" fill="#cc0595" /><rect width="70" height="10" x="180" y="200" fill="#fee3f3" /><rect width="50" height="10" x="80" y="210" fill="#fee3f3" /><rect width="10" height="10" x="130" y="210" fill="#cc0595" /><rect width="40" height="10" x="140" y="210" fill="#fb4694" /><rect width="10" height="10" x="180" y="210" fill="#cc0595" /><rect width="50" height="10" x="190" y="210" fill="#fee3f3" /><rect width="20" height="10" x="90" y="220" fill="#fee3f3" /><rect width="10" height="10" x="130" y="220" fill="#cc0595" /><rect width="40" height="10" x="140" y="220" fill="#fb4694" /><rect width="10" height="10" x="180" y="220" fill="#cc0595" /><rect width="20" height="10" x="210" y="220" fill="#fee3f3" /><rect width="40" height="10" x="140" y="230" fill="#fb4694" /><rect width="20" height="10" x="150" y="240" fill="#fb4694" /><rect width="60" height="10" x="100" y="110" fill="#000000" /><rect width="60" height="10" x="170" y="110" fill="#000000" /><rect width="30" height="10" x="100" y="120" fill="#000000" /><rect width="10" height="10" x="130" y="120" fill="#ff0e0e" /><rect width="20" height="10" x="140" y="120" fill="#000000" /><rect width="30" height="10" x="170" y="120" fill="#000000" /><rect width="10" height="10" x="200" y="120" fill="#ff0e0e" /><rect width="20" height="10" x="210" y="120" fill="#000000" /><rect width="160" height="10" x="70" y="130" fill="#000000" /><rect width="10" height="10" x="70" y="140" fill="#000000" /><rect width="10" height="10" x="100" y="140" fill="#000000" /><rect width="10" height="10" x="110" y="140" fill="#0adc4d" /><rect width="20" height="10" x="120" y="140" fill="#000000" /><rect width="10" height="10" x="140" y="140" fill="#1929f4" /><rect width="10" height="10" x="150" y="140" fill="#000000" /><rect width="10" height="10" x="170" y="140" fill="#000000" /><rect width="10" height="10" x="180" y="140" fill="#0adc4d" /><rect width="20" height="10" x="190" y="140" fill="#000000" /><rect width="10" height="10" x="210" y="140" fill="#1929f4" /><rect width="10" height="10" x="220" y="140" fill="#000000" /><rect width="10" height="10" x="70" y="150" fill="#000000" /><rect width="60" height="10" x="100" y="150" fill="#000000" /><rect width="60" height="10" x="170" y="150" fill="#000000" /><rect width="60" height="10" x="100" y="160" fill="#000000" /><rect width="60" height="10" x="170" y="160" fill="#000000" /></svg>