<svg xmlns="http://www.w3.org/2000/svg" width="1200" height="630" viewBox="0 0 1200 630" shape-rendering="crispEdges">
  <defs>
    <radialGradient id="paperWash" cx="30%" cy="38%" r="85%">
      <stop offset="0%" stop-color="#f7f1e4"/>
      <stop offset="100%" stop-color="#efe6d2"/>
    </radialGradient>
  </defs>
  <rect width="1200" height="630" fill="url(#paperWash)"/>
  <rect x="0"    y="0"   width="16" height="16" fill="#c26a4a"/>
  <rect x="1184" y="0"   width="16" height="16" fill="#2a241a"/>
  <rect x="0"    y="614" width="16" height="16" fill="#2a241a"/>
  <rect x="1184" y="614" width="16" height="16" fill="#c26a4a"/>

  <rect x="0" y="70" width="1200" height="2" fill="#2a241a"/>
  <rect x="0" y="76" width="1200" height="1" fill="#c26a4a" opacity="0.55"/>

  <text x="60" y="52" font-family="JetBrains Mono, ui-monospace, Menlo, monospace"
        font-size="14" font-weight="700" letter-spacing="5" fill="#2a241a">
    PC · POINTCAST NETWORK / ABOUT
  </text>

  <text x="60" y="240" font-family="JetBrains Mono, ui-monospace, Menlo, monospace"
        font-size="92" font-weight="800" letter-spacing="6" fill="#2a241a">
    MIKE HOYDICH
  </text>
  <text x="60" y="295" font-family="Lora, Georgia, serif" font-style="italic"
        font-size="32" font-weight="500" fill="#c26a4a">
    × Claude Cowork
  </text>

  <text x="62" y="355" font-family="Lora, Georgia, serif" font-style="italic"
        font-size="24" font-weight="500" fill="#6a5d45" opacity="0.9">
    builder · creative technologist · coo at good feels.
  </text>
  <text x="62" y="388" font-family="Lora, Georgia, serif" font-style="italic"
        font-size="22" font-weight="500" fill="#6a5d45" opacity="0.85">
    building in public from el segundo, california.
  </text>

  <rect x="60" y="430" width="4" height="56" fill="#c26a4a"/>
  <text x="82" y="455" font-family="JetBrains Mono, ui-monospace, monospace"
        font-size="16" font-weight="700" letter-spacing="3" fill="#2a241a">
    TEZOS · CC0 · NOUNS · OBJKT · FXHASH
  </text>
  <text x="82" y="478" font-family="JetBrains Mono, ui-monospace, monospace"
        font-size="13" font-weight="500" letter-spacing="5" fill="#8c7a5e">
    POINTCAST.XYZ/ABOUT · ANALOG HEART, AGENTIC BRAIN
  </text>

  <!-- Identity Noun 137 -->
  <g transform="translate(820, 150)">
    <rect x="-4" y="-4" width="328" height="328" fill="#2a241a"/>
    <rect x="0" y="0" width="320" height="320" fill="#e8dfc9"/>
    <image href="https://noun.pics/137.svg" x="0" y="0" width="320" height="320"
           preserveAspectRatio="none" image-rendering="pixelated"/>
    <rect x="0"   y="0"   width="8" height="8" fill="#c26a4a"/>
    <rect x="312" y="312" width="8" height="8" fill="#c26a4a"/>
  </g>

  <rect x="0" y="578" width="1200" height="2" fill="#c26a4a" opacity="0.45"/>
  <text x="60" y="610" font-family="JetBrains Mono, ui-monospace, monospace"
        font-size="14" font-weight="600" letter-spacing="4" fill="#6a5d45">
    pointcast.xyz/about · published with claude · 2026
  </text>
  <g transform="translate(1050, 596)">
    <circle cx="4" cy="8" r="5" fill="#c26a4a"/>
    <text x="14" y="14" font-family="JetBrains Mono, ui-monospace, monospace"
          font-size="13" font-weight="700" letter-spacing="4" fill="#2a241a">
      ON AIR
    </text>
  </g>
</svg>
