<svg xmlns="http://www.w3.org/2000/svg" width="1200" height="630" viewBox="0 0 1200 630" shape-rendering="crispEdges">
  <defs>
    <radialGradient id="paperWash" cx="30%" cy="38%" r="85%">
      <stop offset="0%" stop-color="#f7f1e4"/>
      <stop offset="100%" stop-color="#efe6d2"/>
    </radialGradient>
  </defs>
  <rect width="1200" height="630" fill="url(#paperWash)"/>
  <rect x="0"    y="0"   width="16" height="16" fill="#c26a4a"/>
  <rect x="1184" y="0"   width="16" height="16" fill="#2a241a"/>
  <rect x="0"    y="614" width="16" height="16" fill="#2a241a"/>
  <rect x="1184" y="614" width="16" height="16" fill="#c26a4a"/>

  <rect x="0" y="70" width="1200" height="2" fill="#2a241a"/>
  <rect x="0" y="76" width="1200" height="1" fill="#c26a4a" opacity="0.55"/>

  <text x="60" y="52" font-family="JetBrains Mono, ui-monospace, Menlo, monospace"
        font-size="14" font-weight="700" letter-spacing="5" fill="#2a241a">
    PC · POINTCAST NETWORK / COLLECT
  </text>
  <g transform="translate(1015, 34)">
    <rect width="128" height="28" rx="14" fill="#dde3d0" stroke="#c26a4a" stroke-width="1"/>
    <circle cx="16" cy="14" r="5" fill="#5a8a5c"/>
    <text x="32" y="19" font-family="JetBrains Mono, ui-monospace, monospace"
          font-size="13" font-weight="700" letter-spacing="4" fill="#2a241a">LIVE</text>
  </g>

  <text x="60" y="245" font-family="JetBrains Mono, ui-monospace, Menlo, monospace"
        font-size="108" font-weight="800" letter-spacing="7" fill="#2a241a">
    COLLECT
  </text>

  <text x="62" y="310" font-family="Lora, Georgia, serif" font-style="italic"
        font-size="34" font-weight="500" fill="#c26a4a">
    editorial art. on tezos. cc0.
  </text>
  <text x="62" y="352" font-family="Lora, Georgia, serif" font-style="italic"
        font-size="22" font-weight="500" fill="#6a5d45" opacity="0.85">
    free mints · kukai wallet · seconds to collect.
  </text>

  <rect x="60" y="400" width="4" height="56" fill="#c26a4a"/>
  <text x="82" y="425" font-family="JetBrains Mono, ui-monospace, monospace"
        font-size="17" font-weight="700" letter-spacing="3" fill="#2a241a">
    MIKE HOYDICH · TZ2FJJHB…MXDFW · 7 LIVE LISTINGS
  </text>
  <text x="82" y="448" font-family="JetBrains Mono, ui-monospace, monospace"
        font-size="13" font-weight="500" letter-spacing="5" fill="#8c7a5e">
    POINTCAST.XYZ/COLLECT · EL SEGUNDO · CC0
  </text>

  <!-- Grid of noun thumbnails representing the shop -->
  <g transform="translate(750, 140)">
    <!-- 3x3 grid of 110px thumbnails with gap -->
    <g transform="translate(0, 0)">
      <rect x="-3" y="-3" width="116" height="116" fill="#2a241a"/>
      <rect x="0" y="0" width="110" height="110" fill="#e8dfc9"/>
      <image href="https://noun.pics/5.svg" x="0" y="0" width="110" height="110" preserveAspectRatio="none" image-rendering="pixelated"/>
    </g>
    <g transform="translate(120, 0)">
      <rect x="-3" y="-3" width="116" height="116" fill="#2a241a"/>
      <rect x="0" y="0" width="110" height="110" fill="#e8dfc9"/>
      <image href="https://noun.pics/137.svg" x="0" y="0" width="110" height="110" preserveAspectRatio="none" image-rendering="pixelated"/>
    </g>
    <g transform="translate(240, 0)">
      <rect x="-3" y="-3" width="116" height="116" fill="#2a241a"/>
      <rect x="0" y="0" width="110" height="110" fill="#e8dfc9"/>
      <image href="https://noun.pics/201.svg" x="0" y="0" width="110" height="110" preserveAspectRatio="none" image-rendering="pixelated"/>
    </g>
    <g transform="translate(0, 120)">
      <rect x="-3" y="-3" width="116" height="116" fill="#2a241a"/>
      <rect x="0" y="0" width="110" height="110" fill="#e8dfc9"/>
      <image href="https://noun.pics/444.svg" x="0" y="0" width="110" height="110" preserveAspectRatio="none" image-rendering="pixelated"/>
    </g>
    <g transform="translate(120, 120)">
      <rect x="-3" y="-3" width="116" height="116" fill="#2a241a"/>
      <rect x="0" y="0" width="110" height="110" fill="#e8dfc9"/>
      <image href="https://noun.pics/777.svg" x="0" y="0" width="110" height="110" preserveAspectRatio="none" image-rendering="pixelated"/>
    </g>
    <g transform="translate(240, 120)">
      <rect x="-3" y="-3" width="116" height="116" fill="#2a241a"/>
      <rect x="0" y="0" width="110" height="110" fill="#e8dfc9"/>
      <image href="https://noun.pics/999.svg" x="0" y="0" width="110" height="110" preserveAspectRatio="none" image-rendering="pixelated"/>
    </g>
    <g transform="translate(0, 240)">
      <rect x="-3" y="-3" width="116" height="116" fill="#2a241a"/>
      <rect x="0" y="0" width="110" height="110" fill="#e8dfc9"/>
      <image href="https://noun.pics/20.svg" x="0" y="0" width="110" height="110" preserveAspectRatio="none" image-rendering="pixelated"/>
    </g>
    <g transform="translate(120, 240)">
      <rect x="-3" y="-3" width="116" height="116" fill="#2a241a"/>
      <rect x="0" y="0" width="110" height="110" fill="#e8dfc9"/>
      <image href="https://noun.pics/42.svg" x="0" y="0" width="110" height="110" preserveAspectRatio="none" image-rendering="pixelated"/>
    </g>
    <g transform="translate(240, 240)">
      <rect x="-3" y="-3" width="116" height="116" fill="#2a241a"/>
      <rect x="0" y="0" width="110" height="110" fill="#e8dfc9"/>
      <image href="https://noun.pics/101.svg" x="0" y="0" width="110" height="110" preserveAspectRatio="none" image-rendering="pixelated"/>
    </g>
  </g>

  <rect x="0" y="578" width="1200" height="2" fill="#c26a4a" opacity="0.45"/>
  <text x="60" y="610" font-family="JetBrains Mono, ui-monospace, monospace"
        font-size="14" font-weight="600" letter-spacing="4" fill="#6a5d45">
    pointcast.xyz/collect · cc0 art on tezos · 2026
  </text>
  <g transform="translate(1050, 596)">
    <circle cx="4" cy="8" r="5" fill="#c26a4a"/>
    <text x="14" y="14" font-family="JetBrains Mono, ui-monospace, monospace"
          font-size="13" font-weight="700" letter-spacing="4" fill="#2a241a">
      ON AIR
    </text>
  </g>
</svg>
