<svg xmlns="http://www.w3.org/2000/svg" viewBox="0 0 400 560" width="400" height="560" shape-rendering="crispEdges" role="img" aria-labelledby="t d">
<title id="t">Campus Cards · Set 10 · Santa Cruz · 11/12 The Wharf (Common)</title>
<desc id="d">A long wooden wharf out over the bay. Sea lions bark from the beams underneath. Unofficial. An independent PointCast art project about places. Not affiliated with, sponsored by, or endorsed by the University of California or any campus. No university logos, seals, mascots, or marks are used.</desc>
<style>
.glint{animation:blink 2.4s steps(2) infinite}
.twinkle{animation:blink 3.1s steps(2) infinite .7s}
.waves{animation:slide 3s steps(3) infinite}
.drift{animation:drift 14s linear infinite alternate}
.drift2{animation:drift 19s linear infinite alternate-reverse}
.bob{animation:bob 2.2s steps(2) infinite}
.sway{animation:sway 2.8s steps(2) infinite}
.peck{animation:bob 1.7s steps(2) infinite}
.ride{animation:ride 6s steps(24) infinite}
.ride2{animation:ride 7.5s steps(30) infinite reverse}
.spin{transform-box:fill-box;transform-origin:center;animation:spin 9s steps(36) infinite}
.glow{animation:glow 4s ease-in-out infinite}
.ring{animation:ring 3.2s steps(2) infinite}
.bell{animation:blink 1.6s steps(2) infinite}
.alpen{animation:glow 6s ease-in-out infinite}
.foil{animation:foil 5s linear infinite}
@keyframes blink{50%{opacity:.25}}
@keyframes slide{to{transform:translateX(8px)}}
@keyframes drift{to{transform:translateX(24px)}}
@keyframes bob{50%{transform:translateY(4px)}}
@keyframes sway{50%{transform:translateX(4px)}}
@keyframes ride{from{transform:translateX(-160px)}to{transform:translateX(160px)}}
@keyframes spin{to{transform:rotate(-360deg)}}
@keyframes glow{50%{opacity:.6}}
@keyframes ring{0%,100%{opacity:0}50%{opacity:.9}}
@keyframes foil{from{transform:translateX(-360px)}to{transform:translateX(360px)}}
</style>
<defs>
<clipPath id="art"><rect x="0" y="0" width="352" height="256"/></clipPath>
<linearGradient id="sheen" x1="0" y1="0" x2="1" y2="1"><stop offset="0" stop-color="#fff" stop-opacity="0"/><stop offset=".45" stop-color="#fff" stop-opacity="0"/><stop offset=".5" stop-color="#fff" stop-opacity=".55"/><stop offset=".55" stop-color="#fff" stop-opacity="0"/><stop offset="1" stop-color="#fff" stop-opacity="0"/></linearGradient>
<pattern id="dots" width="8" height="8" patternUnits="userSpaceOnUse"><rect width="8" height="8" fill="#3a7d44"/><rect x="0" y="0" width="2" height="2" fill="#000" fill-opacity=".18"/></pattern>
</defs>
<rect width="400" height="560" fill="#12121c"/>
<rect x="6" y="6" width="388" height="548" fill="url(#dots)"/>
<rect x="14" y="14" width="372" height="532" fill="#f7f1e1" stroke="#12121c" stroke-width="3"/>
<rect x="14" y="14" width="372" height="44" fill="#a0452a" stroke="#12121c" stroke-width="3"/>
<text x="26" y="34" font-family="ui-monospace, 'SF Mono', Menlo, 'DejaVu Sans Mono', monospace" font-size="10" font-weight="700" fill="#ffffff" letter-spacing="1.5">CAMPUS CARDS · SET 10 · SANTA CRUZ</text>
<text x="26" y="51" font-family="ui-monospace, 'SF Mono', Menlo, 'DejaVu Sans Mono', monospace" font-size="17" font-weight="700" fill="#ffffff">The Wharf</text>
<text x="374" y="51" font-family="ui-monospace, 'SF Mono', Menlo, 'DejaVu Sans Mono', monospace" font-size="14" font-weight="700" fill="#ffffff" text-anchor="end">11/12</text>
<rect x="21" y="73" width="358" height="262" fill="#12121c"/>
<g transform="translate(24 76)" clip-path="url(#art)"><rect x="0" y="0" width="352" height="32" fill="#b8c8d4"/><rect x="0" y="28" width="4" height="4" fill="#ccd8e0"/><rect x="8" y="28" width="4" height="4" fill="#ccd8e0"/><rect x="16" y="28" width="4" height="4" fill="#ccd8e0"/><rect x="24" y="28" width="4" height="4" fill="#ccd8e0"/><rect x="32" y="28" width="4" height="4" fill="#ccd8e0"/><rect x="40" y="28" width="4" height="4" fill="#ccd8e0"/><rect x="48" y="28" width="4" height="4" fill="#ccd8e0"/><rect x="56" y="28" width="4" height="4" fill="#ccd8e0"/><rect x="64" y="28" width="4" height="4" fill="#ccd8e0"/><rect x="72" y="28" width="4" height="4" fill="#ccd8e0"/><rect x="80" y="28" width="4" height="4" fill="#ccd8e0"/><rect x="88" y="28" width="4" height="4" fill="#ccd8e0"/><rect x="96" y="28" width="4" height="4" fill="#ccd8e0"/><rect x="104" y="28" width="4" height="4" fill="#ccd8e0"/><rect x="112" y="28" width="4" height="4" fill="#ccd8e0"/><rect x="120" y="28" width="4" height="4" fill="#ccd8e0"/><rect x="128" y="28" width="4" height="4" fill="#ccd8e0"/><rect x="136" y="28" width="4" height="4" fill="#ccd8e0"/><rect x="144" y="28" width="4" height="4" fill="#ccd8e0"/><rect x="152" y="28" width="4" height="4" fill="#ccd8e0"/><rect x="160" y="28" width="4" height="4" fill="#ccd8e0"/><rect x="168" y="28" width="4" height="4" fill="#ccd8e0"/><rect x="176" y="28" width="4" height="4" fill="#ccd8e0"/><rect x="184" y="28" width="4" height="4" fill="#ccd8e0"/><rect x="192" y="28" width="4" height="4" fill="#ccd8e0"/><rect x="200" y="28" width="4" height="4" fill="#ccd8e0"/><rect x="208" y="28" width="4" height="4" fill="#ccd8e0"/><rect x="216" y="28" width="4" height="4" fill="#ccd8e0"/><rect x="224" y="28" width="4" height="4" fill="#ccd8e0"/><rect x="232" y="28" width="4" height="4" fill="#ccd8e0"/><rect x="240" y="28" width="4" height="4" fill="#ccd8e0"/><rect x="248" y="28" width="4" height="4" fill="#ccd8e0"/><rect x="256" y="28" width="4" height="4" fill="#ccd8e0"/><rect x="264" y="28" width="4" height="4" fill="#ccd8e0"/><rect x="272" y="28" width="4" height="4" fill="#ccd8e0"/><rect x="280" y="28" width="4" height="4" fill="#ccd8e0"/><rect x="288" y="28" width="4" height="4" fill="#ccd8e0"/><rect x="296" y="28" width="4" height="4" fill="#ccd8e0"/><rect x="304" y="28" width="4" height="4" fill="#ccd8e0"/><rect x="312" y="28" width="4" height="4" fill="#ccd8e0"/><rect x="320" y="28" width="4" height="4" fill="#ccd8e0"/><rect x="328" y="28" width="4" height="4" fill="#ccd8e0"/><rect x="336" y="28" width="4" height="4" fill="#ccd8e0"/><rect x="344" y="28" width="4" height="4" fill="#ccd8e0"/><rect x="0" y="32" width="352" height="32" fill="#ccd8e0"/><rect x="4" y="60" width="4" height="4" fill="#dfe6ea"/><rect x="12" y="60" width="4" height="4" fill="#dfe6ea"/><rect x="20" y="60" width="4" height="4" fill="#dfe6ea"/><rect x="28" y="60" width="4" height="4" fill="#dfe6ea"/><rect x="36" y="60" width="4" height="4" fill="#dfe6ea"/><rect x="44" y="60" width="4" height="4" fill="#dfe6ea"/><rect x="52" y="60" width="4" height="4" fill="#dfe6ea"/><rect x="60" y="60" width="4" height="4" fill="#dfe6ea"/><rect x="68" y="60" width="4" height="4" fill="#dfe6ea"/><rect x="76" y="60" width="4" height="4" fill="#dfe6ea"/><rect x="84" y="60" width="4" height="4" fill="#dfe6ea"/><rect x="92" y="60" width="4" height="4" fill="#dfe6ea"/><rect x="100" y="60" width="4" height="4" fill="#dfe6ea"/><rect x="108" y="60" width="4" height="4" fill="#dfe6ea"/><rect x="116" y="60" width="4" height="4" fill="#dfe6ea"/><rect x="124" y="60" width="4" height="4" fill="#dfe6ea"/><rect x="132" y="60" width="4" height="4" fill="#dfe6ea"/><rect x="140" y="60" width="4" height="4" fill="#dfe6ea"/><rect x="148" y="60" width="4" height="4" fill="#dfe6ea"/><rect x="156" y="60" width="4" height="4" fill="#dfe6ea"/><rect x="164" y="60" width="4" height="4" fill="#dfe6ea"/><rect x="172" y="60" width="4" height="4" fill="#dfe6ea"/><rect x="180" y="60" width="4" height="4" fill="#dfe6ea"/><rect x="188" y="60" width="4" height="4" fill="#dfe6ea"/><rect x="196" y="60" width="4" height="4" fill="#dfe6ea"/><rect x="204" y="60" width="4" height="4" fill="#dfe6ea"/><rect x="212" y="60" width="4" height="4" fill="#dfe6ea"/><rect x="220" y="60" width="4" height="4" fill="#dfe6ea"/><rect x="228" y="60" width="4" height="4" fill="#dfe6ea"/><rect x="236" y="60" width="4" height="4" fill="#dfe6ea"/><rect x="244" y="60" width="4" height="4" fill="#dfe6ea"/><rect x="252" y="60" width="4" height="4" fill="#dfe6ea"/><rect x="260" y="60" width="4" height="4" fill="#dfe6ea"/><rect x="268" y="60" width="4" height="4" fill="#dfe6ea"/><rect x="276" y="60" width="4" height="4" fill="#dfe6ea"/><rect x="284" y="60" width="4" height="4" fill="#dfe6ea"/><rect x="292" y="60" width="4" height="4" fill="#dfe6ea"/><rect x="300" y="60" width="4" height="4" fill="#dfe6ea"/><rect x="308" y="60" width="4" height="4" fill="#dfe6ea"/><rect x="316" y="60" width="4" height="4" fill="#dfe6ea"/><rect x="324" y="60" width="4" height="4" fill="#dfe6ea"/><rect x="332" y="60" width="4" height="4" fill="#dfe6ea"/><rect x="340" y="60" width="4" height="4" fill="#dfe6ea"/><rect x="348" y="60" width="4" height="4" fill="#dfe6ea"/><rect x="0" y="64" width="352" height="24" fill="#dfe6ea"/><rect x="120" y="72" width="4" height="16" fill="#9aa8b4"/><rect x="124" y="72" width="4" height="16" fill="#9aa8b4"/><rect x="128" y="72" width="4" height="16" fill="#9aa8b4"/><rect x="132" y="72" width="4" height="16" fill="#9aa8b4"/><rect x="136" y="72" width="4" height="16" fill="#9aa8b4"/><rect x="140" y="72" width="4" height="16" fill="#9aa8b4"/><rect x="144" y="72" width="4" height="16" fill="#9aa8b4"/><rect x="148" y="72" width="4" height="16" fill="#9aa8b4"/><rect x="152" y="76" width="4" height="12" fill="#9aa8b4"/><rect x="156" y="76" width="4" height="12" fill="#9aa8b4"/><rect x="160" y="76" width="4" height="12" fill="#9aa8b4"/><rect x="164" y="76" width="4" height="12" fill="#9aa8b4"/><rect x="168" y="76" width="4" height="12" fill="#9aa8b4"/><rect x="172" y="76" width="4" height="12" fill="#9aa8b4"/><rect x="176" y="76" width="4" height="12" fill="#9aa8b4"/><rect x="180" y="80" width="4" height="8" fill="#9aa8b4"/><rect x="184" y="80" width="4" height="8" fill="#9aa8b4"/><rect x="188" y="80" width="4" height="8" fill="#9aa8b4"/><rect x="192" y="80" width="4" height="8" fill="#9aa8b4"/><rect x="196" y="80" width="4" height="8" fill="#9aa8b4"/><rect x="200" y="80" width="4" height="8" fill="#9aa8b4"/><rect x="204" y="84" width="4" height="4" fill="#9aa8b4"/><rect x="208" y="84" width="4" height="4" fill="#9aa8b4"/><rect x="212" y="84" width="4" height="4" fill="#9aa8b4"/><rect x="216" y="84" width="4" height="4" fill="#9aa8b4"/><rect x="220" y="84" width="4" height="4" fill="#9aa8b4"/><rect x="224" y="84" width="4" height="4" fill="#9aa8b4"/><rect x="228" y="84" width="4" height="4" fill="#9aa8b4"/><rect x="304" y="84" width="4" height="4" fill="#9aa8b4"/><rect x="308" y="84" width="4" height="4" fill="#9aa8b4"/><rect x="312" y="84" width="4" height="4" fill="#9aa8b4"/><rect x="316" y="84" width="4" height="4" fill="#9aa8b4"/><rect x="320" y="84" width="4" height="4" fill="#9aa8b4"/><rect x="324" y="84" width="4" height="4" fill="#9aa8b4"/><rect x="328" y="84" width="4" height="4" fill="#9aa8b4"/><rect x="332" y="80" width="4" height="8" fill="#9aa8b4"/><rect x="336" y="80" width="4" height="8" fill="#9aa8b4"/><rect x="340" y="80" width="4" height="8" fill="#9aa8b4"/><rect x="344" y="80" width="4" height="8" fill="#9aa8b4"/><rect x="348" y="80" width="4" height="8" fill="#9aa8b4"/><rect x="0" y="88" width="352" height="32" fill="#3a7aa8"/><rect x="0" y="116" width="4" height="4" fill="#4a8ab6"/><rect x="8" y="116" width="4" height="4" fill="#4a8ab6"/><rect x="16" y="116" width="4" height="4" fill="#4a8ab6"/><rect x="24" y="116" width="4" height="4" fill="#4a8ab6"/><rect x="32" y="116" width="4" height="4" fill="#4a8ab6"/><rect x="40" y="116" width="4" height="4" fill="#4a8ab6"/><rect x="48" y="116" width="4" height="4" fill="#4a8ab6"/><rect x="56" y="116" width="4" height="4" fill="#4a8ab6"/><rect x="64" y="116" width="4" height="4" fill="#4a8ab6"/><rect x="72" y="116" width="4" height="4" fill="#4a8ab6"/><rect x="80" y="116" width="4" height="4" fill="#4a8ab6"/><rect x="88" y="116" width="4" height="4" fill="#4a8ab6"/><rect x="96" y="116" width="4" height="4" fill="#4a8ab6"/><rect x="104" y="116" width="4" height="4" fill="#4a8ab6"/><rect x="112" y="116" width="4" height="4" fill="#4a8ab6"/><rect x="120" y="116" width="4" height="4" fill="#4a8ab6"/><rect x="128" y="116" width="4" height="4" fill="#4a8ab6"/><rect x="136" y="116" width="4" height="4" fill="#4a8ab6"/><rect x="144" y="116" width="4" height="4" fill="#4a8ab6"/><rect x="152" y="116" width="4" height="4" fill="#4a8ab6"/><rect x="160" y="116" width="4" height="4" fill="#4a8ab6"/><rect x="168" y="116" width="4" height="4" fill="#4a8ab6"/><rect x="176" y="116" width="4" height="4" fill="#4a8ab6"/><rect x="184" y="116" width="4" height="4" fill="#4a8ab6"/><rect x="192" y="116" width="4" height="4" fill="#4a8ab6"/><rect x="200" y="116" width="4" height="4" fill="#4a8ab6"/><rect x="208" y="116" width="4" height="4" fill="#4a8ab6"/><rect x="216" y="116" width="4" height="4" fill="#4a8ab6"/><rect x="224" y="116" width="4" height="4" fill="#4a8ab6"/><rect x="232" y="116" width="4" height="4" fill="#4a8ab6"/><rect x="240" y="116" width="4" height="4" fill="#4a8ab6"/><rect x="248" y="116" width="4" height="4" fill="#4a8ab6"/><rect x="256" y="116" width="4" height="4" fill="#4a8ab6"/><rect x="264" y="116" width="4" height="4" fill="#4a8ab6"/><rect x="272" y="116" width="4" height="4" fill="#4a8ab6"/><rect x="280" y="116" width="4" height="4" fill="#4a8ab6"/><rect x="288" y="116" width="4" height="4" fill="#4a8ab6"/><rect x="296" y="116" width="4" height="4" fill="#4a8ab6"/><rect x="304" y="116" width="4" height="4" fill="#4a8ab6"/><rect x="312" y="116" width="4" height="4" fill="#4a8ab6"/><rect x="320" y="116" width="4" height="4" fill="#4a8ab6"/><rect x="328" y="116" width="4" height="4" fill="#4a8ab6"/><rect x="336" y="116" width="4" height="4" fill="#4a8ab6"/><rect x="344" y="116" width="4" height="4" fill="#4a8ab6"/><rect x="0" y="120" width="352" height="40" fill="#4a8ab6"/><rect x="4" y="156" width="4" height="4" fill="#5a9ac2"/><rect x="12" y="156" width="4" height="4" fill="#5a9ac2"/><rect x="20" y="156" width="4" height="4" fill="#5a9ac2"/><rect x="28" y="156" width="4" height="4" fill="#5a9ac2"/><rect x="36" y="156" width="4" height="4" fill="#5a9ac2"/><rect x="44" y="156" width="4" height="4" fill="#5a9ac2"/><rect x="52" y="156" width="4" height="4" fill="#5a9ac2"/><rect x="60" y="156" width="4" height="4" fill="#5a9ac2"/><rect x="68" y="156" width="4" height="4" fill="#5a9ac2"/><rect x="76" y="156" width="4" height="4" fill="#5a9ac2"/><rect x="84" y="156" width="4" height="4" fill="#5a9ac2"/><rect x="92" y="156" width="4" height="4" fill="#5a9ac2"/><rect x="100" y="156" width="4" height="4" fill="#5a9ac2"/><rect x="108" y="156" width="4" height="4" fill="#5a9ac2"/><rect x="116" y="156" width="4" height="4" fill="#5a9ac2"/><rect x="124" y="156" width="4" height="4" fill="#5a9ac2"/><rect x="132" y="156" width="4" height="4" fill="#5a9ac2"/><rect x="140" y="156" width="4" height="4" fill="#5a9ac2"/><rect x="148" y="156" width="4" height="4" fill="#5a9ac2"/><rect x="156" y="156" width="4" height="4" fill="#5a9ac2"/><rect x="164" y="156" width="4" height="4" fill="#5a9ac2"/><rect x="172" y="156" width="4" height="4" fill="#5a9ac2"/><rect x="180" y="156" width="4" height="4" fill="#5a9ac2"/><rect x="188" y="156" width="4" height="4" fill="#5a9ac2"/><rect x="196" y="156" width="4" height="4" fill="#5a9ac2"/><rect x="204" y="156" width="4" height="4" fill="#5a9ac2"/><rect x="212" y="156" width="4" height="4" fill="#5a9ac2"/><rect x="220" y="156" width="4" height="4" fill="#5a9ac2"/><rect x="228" y="156" width="4" height="4" fill="#5a9ac2"/><rect x="236" y="156" width="4" height="4" fill="#5a9ac2"/><rect x="244" y="156" width="4" height="4" fill="#5a9ac2"/><rect x="252" y="156" width="4" height="4" fill="#5a9ac2"/><rect x="260" y="156" width="4" height="4" fill="#5a9ac2"/><rect x="268" y="156" width="4" height="4" fill="#5a9ac2"/><rect x="276" y="156" width="4" height="4" fill="#5a9ac2"/><rect x="284" y="156" width="4" height="4" fill="#5a9ac2"/><rect x="292" y="156" width="4" height="4" fill="#5a9ac2"/><rect x="300" y="156" width="4" height="4" fill="#5a9ac2"/><rect x="308" y="156" width="4" height="4" fill="#5a9ac2"/><rect x="316" y="156" width="4" height="4" fill="#5a9ac2"/><rect x="324" y="156" width="4" height="4" fill="#5a9ac2"/><rect x="332" y="156" width="4" height="4" fill="#5a9ac2"/><rect x="340" y="156" width="4" height="4" fill="#5a9ac2"/><rect x="348" y="156" width="4" height="4" fill="#5a9ac2"/><rect x="0" y="160" width="352" height="96" fill="#5a9ac2"/><rect x="0" y="120" width="312" height="12" fill="#8a6a4a"/><rect x="0" y="132" width="312" height="4" fill="#5e4630"/><rect x="4" y="136" width="4" height="56" fill="#5e4630"/><rect x="20" y="136" width="4" height="56" fill="#5e4630"/><rect x="36" y="136" width="4" height="56" fill="#5e4630"/><rect x="52" y="136" width="4" height="56" fill="#5e4630"/><rect x="68" y="136" width="4" height="56" fill="#5e4630"/><rect x="84" y="136" width="4" height="56" fill="#5e4630"/><rect x="100" y="136" width="4" height="56" fill="#5e4630"/><rect x="116" y="136" width="4" height="56" fill="#5e4630"/><rect x="132" y="136" width="4" height="56" fill="#5e4630"/><rect x="148" y="136" width="4" height="56" fill="#5e4630"/><rect x="164" y="136" width="4" height="56" fill="#5e4630"/><rect x="180" y="136" width="4" height="56" fill="#5e4630"/><rect x="196" y="136" width="4" height="56" fill="#5e4630"/><rect x="212" y="136" width="4" height="56" fill="#5e4630"/><rect x="228" y="136" width="4" height="56" fill="#5e4630"/><rect x="244" y="136" width="4" height="56" fill="#5e4630"/><rect x="260" y="136" width="4" height="56" fill="#5e4630"/><rect x="276" y="136" width="4" height="56" fill="#5e4630"/><rect x="292" y="136" width="4" height="56" fill="#5e4630"/><rect x="308" y="136" width="4" height="56" fill="#5e4630"/><rect x="0" y="160" width="312" height="4" fill="#6a5038"/><rect x="16" y="88" width="56" height="32" fill="#e8dcc4"/><rect x="12" y="80" width="64" height="8" fill="#3f7a8a"/><rect x="24" y="96" width="8" height="12" fill="#6a86a8"/><rect x="40" y="96" width="8" height="12" fill="#6a86a8"/><rect x="56" y="96" width="8" height="12" fill="#6a86a8"/><rect x="88" y="88" width="40" height="32" fill="#f2e6c8"/><rect x="84" y="80" width="48" height="8" fill="#c0472e"/><rect x="96" y="96" width="8" height="12" fill="#6a86a8"/><rect x="112" y="96" width="8" height="12" fill="#6a86a8"/><rect x="144" y="88" width="64" height="32" fill="#dfe8e4"/><rect x="140" y="80" width="72" height="8" fill="#3a6a9a"/><rect x="152" y="96" width="8" height="12" fill="#6a86a8"/><rect x="168" y="96" width="8" height="12" fill="#6a86a8"/><rect x="184" y="96" width="8" height="12" fill="#6a86a8"/><rect x="232" y="88" width="48" height="32" fill="#f0e0d0"/><rect x="228" y="80" width="56" height="8" fill="#8a5e3c"/><rect x="240" y="96" width="8" height="12" fill="#6a86a8"/><rect x="256" y="96" width="8" height="12" fill="#6a86a8"/><rect x="288" y="104" width="4" height="16" fill="#3a3a44"/><rect x="288" y="100" width="12" height="4" fill="#3a3a44"/><rect x="24" y="156" width="20" height="8" fill="#7e5a3e"/><rect x="40" y="148" width="8" height="8" fill="#7e5a3e"/><rect x="44" y="148" width="4" height="4" fill="#2a1e18"/><rect x="120" y="156" width="20" height="8" fill="#7e5a3e"/><rect x="136" y="148" width="8" height="8" fill="#7e5a3e"/><rect x="140" y="148" width="4" height="4" fill="#2a1e18"/><rect x="212" y="156" width="20" height="8" fill="#7e5a3e"/><rect x="228" y="148" width="8" height="8" fill="#7e5a3e"/><rect x="232" y="148" width="4" height="4" fill="#2a1e18"/><rect x="64" y="104" width="8" height="16" fill="#e05a4a"/><rect x="64" y="96" width="8" height="8" fill="#e0aa80"/><rect x="64" y="120" width="4" height="4" fill="#2a2a36"/><rect x="68" y="120" width="4" height="4" fill="#2a2a36"/><rect x="200" y="104" width="8" height="16" fill="#3f6fd1"/><rect x="200" y="96" width="8" height="8" fill="#8a5a3a"/><rect x="200" y="120" width="4" height="4" fill="#2a2a36"/><rect x="204" y="120" width="4" height="4" fill="#2a2a36"/><g class="glint"><rect x="168" y="176" width="4" height="4" fill="#e8f4ff"/><rect x="248" y="100" width="12" height="4" fill="#e8f4ff"/><rect x="108" y="128" width="4" height="4" fill="#e8f4ff"/><rect x="172" y="220" width="8" height="4" fill="#e8f4ff"/><rect x="180" y="208" width="12" height="4" fill="#e8f4ff"/><rect x="192" y="96" width="12" height="4" fill="#e8f4ff"/><rect x="156" y="180" width="12" height="4" fill="#e8f4ff"/><rect x="248" y="128" width="12" height="4" fill="#e8f4ff"/><rect x="232" y="188" width="12" height="4" fill="#e8f4ff"/><rect x="112" y="156" width="12" height="4" fill="#e8f4ff"/><rect x="200" y="152" width="8" height="4" fill="#e8f4ff"/><rect x="124" y="188" width="12" height="4" fill="#e8f4ff"/><rect x="320" y="160" width="4" height="4" fill="#e8f4ff"/><rect x="240" y="116" width="4" height="4" fill="#e8f4ff"/><rect x="128" y="140" width="8" height="4" fill="#e8f4ff"/><rect x="128" y="152" width="4" height="4" fill="#e8f4ff"/><rect x="316" y="164" width="8" height="4" fill="#e8f4ff"/><rect x="240" y="120" width="8" height="4" fill="#e8f4ff"/></g><g class="bob"><rect x="52" y="156" width="20" height="8" fill="#6a4a34"/><rect x="68" y="148" width="8" height="8" fill="#6a4a34"/><rect x="72" y="148" width="4" height="4" fill="#2a1e18"/><rect x="184" y="156" width="20" height="8" fill="#6a4a34"/><rect x="200" y="148" width="8" height="8" fill="#6a4a34"/><rect x="204" y="148" width="4" height="4" fill="#2a1e18"/><rect x="240" y="208" width="16" height="4" fill="#5a3e2c"/><rect x="252" y="204" width="4" height="4" fill="#5a3e2c"/></g><g class="waves"><rect x="4" y="184" width="12" height="4" fill="#dfeef6"/><rect x="28" y="184" width="12" height="4" fill="#dfeef6"/><rect x="52" y="184" width="12" height="4" fill="#dfeef6"/><rect x="76" y="184" width="12" height="4" fill="#dfeef6"/><rect x="100" y="184" width="12" height="4" fill="#dfeef6"/><rect x="124" y="184" width="12" height="4" fill="#dfeef6"/><rect x="148" y="184" width="12" height="4" fill="#dfeef6"/><rect x="172" y="184" width="12" height="4" fill="#dfeef6"/><rect x="196" y="184" width="12" height="4" fill="#dfeef6"/><rect x="220" y="184" width="12" height="4" fill="#dfeef6"/><rect x="244" y="184" width="12" height="4" fill="#dfeef6"/><rect x="268" y="184" width="12" height="4" fill="#dfeef6"/><rect x="292" y="184" width="12" height="4" fill="#dfeef6"/><rect x="316" y="184" width="12" height="4" fill="#dfeef6"/><rect x="340" y="184" width="12" height="4" fill="#dfeef6"/><rect x="0" y="204" width="12" height="4" fill="#dfeef6"/><rect x="24" y="204" width="12" height="4" fill="#dfeef6"/><rect x="48" y="204" width="12" height="4" fill="#dfeef6"/><rect x="72" y="204" width="12" height="4" fill="#dfeef6"/><rect x="96" y="204" width="12" height="4" fill="#dfeef6"/><rect x="120" y="204" width="12" height="4" fill="#dfeef6"/><rect x="144" y="204" width="12" height="4" fill="#dfeef6"/><rect x="168" y="204" width="12" height="4" fill="#dfeef6"/><rect x="192" y="204" width="12" height="4" fill="#dfeef6"/><rect x="216" y="204" width="12" height="4" fill="#dfeef6"/><rect x="240" y="204" width="12" height="4" fill="#dfeef6"/><rect x="264" y="204" width="12" height="4" fill="#dfeef6"/><rect x="288" y="204" width="12" height="4" fill="#dfeef6"/><rect x="312" y="204" width="12" height="4" fill="#dfeef6"/><rect x="336" y="204" width="12" height="4" fill="#dfeef6"/><rect x="8" y="224" width="12" height="4" fill="#dfeef6"/><rect x="32" y="224" width="12" height="4" fill="#dfeef6"/><rect x="56" y="224" width="12" height="4" fill="#dfeef6"/><rect x="80" y="224" width="12" height="4" fill="#dfeef6"/><rect x="104" y="224" width="12" height="4" fill="#dfeef6"/><rect x="128" y="224" width="12" height="4" fill="#dfeef6"/><rect x="152" y="224" width="12" height="4" fill="#dfeef6"/><rect x="176" y="224" width="12" height="4" fill="#dfeef6"/><rect x="200" y="224" width="12" height="4" fill="#dfeef6"/><rect x="224" y="224" width="12" height="4" fill="#dfeef6"/><rect x="248" y="224" width="12" height="4" fill="#dfeef6"/><rect x="272" y="224" width="12" height="4" fill="#dfeef6"/><rect x="296" y="224" width="12" height="4" fill="#dfeef6"/><rect x="320" y="224" width="12" height="4" fill="#dfeef6"/><rect x="344" y="224" width="8" height="4" fill="#dfeef6"/><rect x="4" y="244" width="12" height="4" fill="#dfeef6"/><rect x="28" y="244" width="12" height="4" fill="#dfeef6"/><rect x="52" y="244" width="12" height="4" fill="#dfeef6"/><rect x="76" y="244" width="12" height="4" fill="#dfeef6"/><rect x="100" y="244" width="12" height="4" fill="#dfeef6"/><rect x="124" y="244" width="12" height="4" fill="#dfeef6"/><rect x="148" y="244" width="12" height="4" fill="#dfeef6"/><rect x="172" y="244" width="12" height="4" fill="#dfeef6"/><rect x="196" y="244" width="12" height="4" fill="#dfeef6"/><rect x="220" y="244" width="12" height="4" fill="#dfeef6"/><rect x="244" y="244" width="12" height="4" fill="#dfeef6"/><rect x="268" y="244" width="12" height="4" fill="#dfeef6"/><rect x="292" y="244" width="12" height="4" fill="#dfeef6"/><rect x="316" y="244" width="12" height="4" fill="#dfeef6"/><rect x="340" y="244" width="12" height="4" fill="#dfeef6"/></g><g class="drift"><rect x="80" y="40" width="16" height="4" fill="#6b5a4a"/><rect x="96" y="44" width="4" height="4" fill="#e0a14a"/><rect x="76" y="36" width="4" height="4" fill="#6b5a4a"/><rect x="108" y="48" width="16" height="4" fill="#6b5a4a"/><rect x="124" y="52" width="4" height="4" fill="#e0a14a"/><rect x="104" y="44" width="4" height="4" fill="#6b5a4a"/><rect x="136" y="36" width="16" height="4" fill="#6b5a4a"/><rect x="152" y="40" width="4" height="4" fill="#e0a14a"/><rect x="132" y="32" width="4" height="4" fill="#6b5a4a"/></g><g class="drift2"><rect x="280" y="24" width="4" height="4" fill="#f4f4f4"/><rect x="284" y="28" width="4" height="4" fill="#f4f4f4"/><rect x="288" y="24" width="4" height="4" fill="#f4f4f4"/><rect x="312" y="48" width="4" height="4" fill="#f4f4f4"/><rect x="316" y="52" width="4" height="4" fill="#f4f4f4"/><rect x="320" y="48" width="4" height="4" fill="#f4f4f4"/></g></g>
<rect x="21" y="340" width="358" height="26" fill="#3a7d44" stroke="#12121c" stroke-width="3"/>
<rect x="33" y="347" width="6" height="3" fill="#fff"/><rect x="30" y="350" width="12" height="6" fill="#fff"/><rect x="33" y="356" width="6" height="3" fill="#fff"/>
<text x="48" y="358" font-family="ui-monospace, 'SF Mono', Menlo, 'DejaVu Sans Mono', monospace" font-size="12" font-weight="700" fill="#ffffff" letter-spacing="2">COMMON</text>
<text x="370" y="358" font-family="ui-monospace, 'SF Mono', Menlo, 'DejaVu Sans Mono', monospace" font-size="11" font-weight="700" fill="#ffffff" text-anchor="end">SANTA CRUZ</text>
<text x="24" y="392" font-family="ui-monospace, 'SF Mono', Menlo, 'DejaVu Sans Mono', monospace" font-size="13" fill="#2a2a36">A long wooden wharf out over the bay. Sea</text>
<text x="24" y="410" font-family="ui-monospace, 'SF Mono', Menlo, 'DejaVu Sans Mono', monospace" font-size="13" fill="#2a2a36">lions bark from the beams underneath.</text>
<rect x="24" y="456" width="113.33333333333333" height="40" fill="#ffffff" stroke="#12121c" stroke-width="2"/><rect x="27" y="459" width="107.33333333333333" height="12" fill="#3a7d44"/><text x="32" y="468" font-family="ui-monospace, 'SF Mono', Menlo, 'DejaVu Sans Mono', monospace" font-size="8" font-weight="700" fill="#ffffff" letter-spacing="1.5">EDITION</text><text x="32" y="488" font-family="ui-monospace, 'SF Mono', Menlo, 'DejaVu Sans Mono', monospace" font-size="13" font-weight="700" fill="#12121c">OPEN</text><rect x="143.33333333333331" y="456" width="113.33333333333333" height="40" fill="#ffffff" stroke="#12121c" stroke-width="2"/><rect x="146.33333333333331" y="459" width="107.33333333333333" height="12" fill="#12121c"/><text x="151.33333333333331" y="468" font-family="ui-monospace, 'SF Mono', Menlo, 'DejaVu Sans Mono', monospace" font-size="8" font-weight="700" fill="#ffffff" letter-spacing="1.5">MINT</text><text x="151.33333333333331" y="488" font-family="ui-monospace, 'SF Mono', Menlo, 'DejaVu Sans Mono', monospace" font-size="13" font-weight="700" fill="#12121c">0.5 TEZ</text><rect x="262.66666666666663" y="456" width="113.33333333333333" height="40" fill="#ffffff" stroke="#12121c" stroke-width="2"/><rect x="265.66666666666663" y="459" width="107.33333333333333" height="12" fill="#12121c"/><text x="270.66666666666663" y="468" font-family="ui-monospace, 'SF Mono', Menlo, 'DejaVu Sans Mono', monospace" font-size="8" font-weight="700" fill="#ffffff" letter-spacing="1.5">CARD</text><text x="270.66666666666663" y="488" font-family="ui-monospace, 'SF Mono', Menlo, 'DejaVu Sans Mono', monospace" font-size="13" font-weight="700" fill="#12121c">11/12</text>
<line x1="24" y1="510" x2="376" y2="510" stroke="#12121c" stroke-width="2" stroke-dasharray="4 4"/>
<text x="24" y="528" font-family="ui-monospace, 'SF Mono', Menlo, 'DejaVu Sans Mono', monospace" font-size="9" font-weight="700" fill="#5a5a66" letter-spacing="1">UNOFFICIAL · PLACES ONLY · CC0 · POINTCAST.XYZ</text>
<text x="376" y="528" font-family="ui-monospace, 'SF Mono', Menlo, 'DejaVu Sans Mono', monospace" font-size="9" font-weight="700" fill="#5a5a66" text-anchor="end">TEZOS</text>
</svg>
