<svg xmlns="http://www.w3.org/2000/svg" viewBox="60 100 180 80" shape-rendering="crispEdges">
  <rect x="60" y="100" width="180" height="80" fill="#1C1C1C" rx="4"/>
  <!-- Official Nouns noggles geometry (from glasses-square-red.svg) -->
  <rect width="60" height="10" x="100" y="110" fill="#f3322c"/>
  <rect width="60" height="10" x="170" y="110" fill="#f3322c"/>
  <rect width="10" height="10" x="100" y="120" fill="#f3322c"/>
  <rect width="20" height="10" x="110" y="120" fill="#ffffff"/>
  <rect width="20" height="10" x="130" y="120" fill="#000000"/>
  <rect width="10" height="10" x="150" y="120" fill="#f3322c"/>
  <rect width="10" height="10" x="170" y="120" fill="#f3322c"/>
  <rect width="20" height="10" x="180" y="120" fill="#ffffff"/>
  <rect width="20" height="10" x="200" y="120" fill="#000000"/>
  <rect width="10" height="10" x="220" y="120" fill="#f3322c"/>
  <rect width="40" height="10" x="70" y="130" fill="#f3322c"/>
  <rect width="20" height="10" x="110" y="130" fill="#ffffff"/>
  <rect width="20" height="10" x="130" y="130" fill="#000000"/>
  <rect width="30" height="10" x="150" y="130" fill="#f3322c"/>
  <rect width="20" height="10" x="180" y="130" fill="#ffffff"/>
  <rect width="20" height="10" x="200" y="130" fill="#000000"/>
  <rect width="10" height="10" x="220" y="130" fill="#f3322c"/>
  <rect width="10" height="10" x="70" y="140" fill="#f3322c"/>
  <rect width="10" height="10" x="100" y="140" fill="#f3322c"/>
  <rect width="20" height="10" x="110" y="140" fill="#ffffff"/>
  <rect width="20" height="10" x="130" y="140" fill="#000000"/>
  <rect width="10" height="10" x="150" y="140" fill="#f3322c"/>
  <rect width="10" height="10" x="170" y="140" fill="#f3322c"/>
  <rect width="20" height="10" x="180" y="140" fill="#ffffff"/>
  <rect width="20" height="10" x="200" y="140" fill="#000000"/>
  <rect width="10" height="10" x="220" y="140" fill="#f3322c"/>
  <rect width="10" height="10" x="70" y="150" fill="#f3322c"/>
  <rect width="10" height="10" x="100" y="150" fill="#f3322c"/>
  <rect width="20" height="10" x="110" y="150" fill="#ffffff"/>
  <rect width="20" height="10" x="130" y="150" fill="#000000"/>
  <rect width="10" height="10" x="150" y="150" fill="#f3322c"/>
  <rect width="10" height="10" x="170" y="150" fill="#f3322c"/>
  <rect width="20" height="10" x="180" y="150" fill="#ffffff"/>
  <rect width="20" height="10" x="200" y="150" fill="#000000"/>
  <rect width="10" height="10" x="220" y="150" fill="#f3322c"/>
  <rect width="60" height="10" x="100" y="160" fill="#f3322c"/>
  <rect width="60" height="10" x="170" y="160" fill="#f3322c"/>
</svg>
