<svg xmlns="http://www.w3.org/2000/svg" viewBox="0 0 400 560" width="400" height="560" shape-rendering="crispEdges" role="img" aria-labelledby="t d">
<title id="t">Campus Cards · Set 01 · Santa Barbara · 09/12 Ten Thousand Bikes (Common)</title>
<desc id="d">Racks outside every lecture hall at ten to the hour. Remember where you locked it. Unofficial. An independent PointCast art project about places. Not affiliated with, sponsored by, or endorsed by the University of California or any campus. No university logos, seals, mascots, or marks are used.</desc>
<style>
.glint{animation:blink 2.4s steps(2) infinite}
.twinkle{animation:blink 3.1s steps(2) infinite .7s}
.waves{animation:slide 3s steps(3) infinite}
.drift{animation:drift 14s linear infinite alternate}
.drift2{animation:drift 19s linear infinite alternate-reverse}
.bob{animation:bob 2.2s steps(2) infinite}
.sway{animation:sway 2.8s steps(2) infinite}
.peck{animation:bob 1.7s steps(2) infinite}
.ride{animation:ride 6s steps(24) infinite}
.ride2{animation:ride 7.5s steps(30) infinite reverse}
.spin{transform-box:fill-box;transform-origin:center;animation:spin 9s steps(36) infinite}
.glow{animation:glow 4s ease-in-out infinite}
.ring{animation:ring 3.2s steps(2) infinite}
.bell{animation:blink 1.6s steps(2) infinite}
.alpen{animation:glow 6s ease-in-out infinite}
.foil{animation:foil 5s linear infinite}
@keyframes blink{50%{opacity:.25}}
@keyframes slide{to{transform:translateX(8px)}}
@keyframes drift{to{transform:translateX(24px)}}
@keyframes bob{50%{transform:translateY(4px)}}
@keyframes sway{50%{transform:translateX(4px)}}
@keyframes ride{from{transform:translateX(-160px)}to{transform:translateX(160px)}}
@keyframes spin{to{transform:rotate(-360deg)}}
@keyframes glow{50%{opacity:.6}}
@keyframes ring{0%,100%{opacity:0}50%{opacity:.9}}
@keyframes foil{from{transform:translateX(-360px)}to{transform:translateX(360px)}}
</style>
<defs>
<clipPath id="art"><rect x="0" y="0" width="352" height="256"/></clipPath>
<linearGradient id="sheen" x1="0" y1="0" x2="1" y2="1"><stop offset="0" stop-color="#fff" stop-opacity="0"/><stop offset=".45" stop-color="#fff" stop-opacity="0"/><stop offset=".5" stop-color="#fff" stop-opacity=".55"/><stop offset=".55" stop-color="#fff" stop-opacity="0"/><stop offset="1" stop-color="#fff" stop-opacity="0"/></linearGradient>
<pattern id="dots" width="8" height="8" patternUnits="userSpaceOnUse"><rect width="8" height="8" fill="#3a7d44"/><rect x="0" y="0" width="2" height="2" fill="#000" fill-opacity=".18"/></pattern>
</defs>
<rect width="400" height="560" fill="#12121c"/>
<rect x="6" y="6" width="388" height="548" fill="url(#dots)"/>
<rect x="14" y="14" width="372" height="532" fill="#f7f1e1" stroke="#12121c" stroke-width="3"/>
<rect x="14" y="14" width="372" height="44" fill="#0f61ff" stroke="#12121c" stroke-width="3"/>
<text x="26" y="34" font-family="ui-monospace, 'SF Mono', Menlo, 'DejaVu Sans Mono', monospace" font-size="10" font-weight="700" fill="#ffffff" letter-spacing="1.5">CAMPUS CARDS · SET 01 · SANTA BARBARA</text>
<text x="26" y="51" font-family="ui-monospace, 'SF Mono', Menlo, 'DejaVu Sans Mono', monospace" font-size="17" font-weight="700" fill="#ffffff">Ten Thousand Bikes</text>
<text x="374" y="51" font-family="ui-monospace, 'SF Mono', Menlo, 'DejaVu Sans Mono', monospace" font-size="14" font-weight="700" fill="#ffffff" text-anchor="end">09/12</text>
<rect x="21" y="73" width="358" height="262" fill="#12121c"/>
<g transform="translate(24 76)" clip-path="url(#art)"><rect x="0" y="0" width="352" height="56" fill="#9ed6f7"/><rect x="0" y="52" width="4" height="4" fill="#c8ebfb"/><rect x="8" y="52" width="4" height="4" fill="#c8ebfb"/><rect x="16" y="52" width="4" height="4" fill="#c8ebfb"/><rect x="24" y="52" width="4" height="4" fill="#c8ebfb"/><rect x="32" y="52" width="4" height="4" fill="#c8ebfb"/><rect x="40" y="52" width="4" height="4" fill="#c8ebfb"/><rect x="48" y="52" width="4" height="4" fill="#c8ebfb"/><rect x="56" y="52" width="4" height="4" fill="#c8ebfb"/><rect x="64" y="52" width="4" height="4" fill="#c8ebfb"/><rect x="72" y="52" width="4" height="4" fill="#c8ebfb"/><rect x="80" y="52" width="4" height="4" fill="#c8ebfb"/><rect x="88" y="52" width="4" height="4" fill="#c8ebfb"/><rect x="96" y="52" width="4" height="4" fill="#c8ebfb"/><rect x="104" y="52" width="4" height="4" fill="#c8ebfb"/><rect x="112" y="52" width="4" height="4" fill="#c8ebfb"/><rect x="120" y="52" width="4" height="4" fill="#c8ebfb"/><rect x="128" y="52" width="4" height="4" fill="#c8ebfb"/><rect x="136" y="52" width="4" height="4" fill="#c8ebfb"/><rect x="144" y="52" width="4" height="4" fill="#c8ebfb"/><rect x="152" y="52" width="4" height="4" fill="#c8ebfb"/><rect x="160" y="52" width="4" height="4" fill="#c8ebfb"/><rect x="168" y="52" width="4" height="4" fill="#c8ebfb"/><rect x="176" y="52" width="4" height="4" fill="#c8ebfb"/><rect x="184" y="52" width="4" height="4" fill="#c8ebfb"/><rect x="192" y="52" width="4" height="4" fill="#c8ebfb"/><rect x="200" y="52" width="4" height="4" fill="#c8ebfb"/><rect x="208" y="52" width="4" height="4" fill="#c8ebfb"/><rect x="216" y="52" width="4" height="4" fill="#c8ebfb"/><rect x="224" y="52" width="4" height="4" fill="#c8ebfb"/><rect x="232" y="52" width="4" height="4" fill="#c8ebfb"/><rect x="240" y="52" width="4" height="4" fill="#c8ebfb"/><rect x="248" y="52" width="4" height="4" fill="#c8ebfb"/><rect x="256" y="52" width="4" height="4" fill="#c8ebfb"/><rect x="264" y="52" width="4" height="4" fill="#c8ebfb"/><rect x="272" y="52" width="4" height="4" fill="#c8ebfb"/><rect x="280" y="52" width="4" height="4" fill="#c8ebfb"/><rect x="288" y="52" width="4" height="4" fill="#c8ebfb"/><rect x="296" y="52" width="4" height="4" fill="#c8ebfb"/><rect x="304" y="52" width="4" height="4" fill="#c8ebfb"/><rect x="312" y="52" width="4" height="4" fill="#c8ebfb"/><rect x="320" y="52" width="4" height="4" fill="#c8ebfb"/><rect x="328" y="52" width="4" height="4" fill="#c8ebfb"/><rect x="336" y="52" width="4" height="4" fill="#c8ebfb"/><rect x="344" y="52" width="4" height="4" fill="#c8ebfb"/><rect x="0" y="56" width="352" height="24" fill="#c8ebfb"/><rect x="0" y="32" width="352" height="144" fill="#e9dcc0"/><rect x="16" y="48" width="24" height="40" fill="#6d8fb3"/><rect x="16" y="104" width="24" height="40" fill="#6d8fb3"/><rect x="28" y="48" width="4" height="40" fill="#e9dcc0"/><rect x="28" y="104" width="4" height="40" fill="#e9dcc0"/><rect x="56" y="48" width="24" height="40" fill="#6d8fb3"/><rect x="56" y="104" width="24" height="40" fill="#6d8fb3"/><rect x="68" y="48" width="4" height="40" fill="#e9dcc0"/><rect x="68" y="104" width="4" height="40" fill="#e9dcc0"/><rect x="96" y="48" width="24" height="40" fill="#6d8fb3"/><rect x="96" y="104" width="24" height="40" fill="#6d8fb3"/><rect x="108" y="48" width="4" height="40" fill="#e9dcc0"/><rect x="108" y="104" width="4" height="40" fill="#e9dcc0"/><rect x="136" y="48" width="24" height="40" fill="#6d8fb3"/><rect x="136" y="104" width="24" height="40" fill="#6d8fb3"/><rect x="148" y="48" width="4" height="40" fill="#e9dcc0"/><rect x="148" y="104" width="4" height="40" fill="#e9dcc0"/><rect x="176" y="48" width="24" height="40" fill="#6d8fb3"/><rect x="176" y="104" width="24" height="40" fill="#6d8fb3"/><rect x="188" y="48" width="4" height="40" fill="#e9dcc0"/><rect x="188" y="104" width="4" height="40" fill="#e9dcc0"/><rect x="216" y="48" width="24" height="40" fill="#6d8fb3"/><rect x="216" y="104" width="24" height="40" fill="#6d8fb3"/><rect x="228" y="48" width="4" height="40" fill="#e9dcc0"/><rect x="228" y="104" width="4" height="40" fill="#e9dcc0"/><rect x="256" y="48" width="24" height="40" fill="#6d8fb3"/><rect x="256" y="104" width="24" height="40" fill="#6d8fb3"/><rect x="268" y="48" width="4" height="40" fill="#e9dcc0"/><rect x="268" y="104" width="4" height="40" fill="#e9dcc0"/><rect x="296" y="48" width="24" height="40" fill="#6d8fb3"/><rect x="296" y="104" width="24" height="40" fill="#6d8fb3"/><rect x="308" y="48" width="4" height="40" fill="#e9dcc0"/><rect x="308" y="104" width="4" height="40" fill="#e9dcc0"/><rect x="336" y="48" width="16" height="40" fill="#6d8fb3"/><rect x="336" y="104" width="16" height="40" fill="#6d8fb3"/><rect x="348" y="48" width="4" height="40" fill="#e9dcc0"/><rect x="348" y="104" width="4" height="40" fill="#e9dcc0"/><rect x="0" y="32" width="352" height="8" fill="#b89f74"/><rect x="144" y="120" width="64" height="56" fill="#4a3a2c"/><rect x="0" y="176" width="352" height="80" fill="#c9c5bb"/><rect x="176" y="84" width="4" height="4" fill="#ffffff"/><rect x="168" y="88" width="20" height="4" fill="#ffffff"/><rect x="164" y="92" width="28" height="4" fill="#ffffff"/><rect x="164" y="96" width="28" height="4" fill="#ffffff"/><rect x="164" y="100" width="28" height="4" fill="#ffffff"/><rect x="168" y="104" width="20" height="4" fill="#ffffff"/><rect x="176" y="108" width="4" height="4" fill="#ffffff"/><rect x="176" y="92" width="4" height="4" fill="#1d1d2b"/><rect x="176" y="88" width="4" height="4" fill="#1d1d2b"/><rect x="172" y="96" width="4" height="4" fill="#1d1d2b"/><rect x="168" y="92" width="4" height="4" fill="#1d1d2b"/><rect x="4" y="196" width="8" height="4" fill="#1d1d2b"/><rect x="0" y="200" width="4" height="4" fill="#1d1d2b"/><rect x="12" y="200" width="4" height="4" fill="#1d1d2b"/><rect x="4" y="204" width="8" height="4" fill="#1d1d2b"/><rect x="24" y="196" width="8" height="4" fill="#1d1d2b"/><rect x="20" y="200" width="4" height="4" fill="#1d1d2b"/><rect x="32" y="200" width="4" height="4" fill="#1d1d2b"/><rect x="24" y="204" width="8" height="4" fill="#1d1d2b"/><rect x="8" y="192" width="16" height="4" fill="#d23b3b"/><rect x="16" y="196" width="4" height="4" fill="#d23b3b"/><rect x="24" y="188" width="4" height="8" fill="#d23b3b"/><rect x="8" y="188" width="8" height="4" fill="#1d1d2b"/><rect x="36" y="196" width="8" height="4" fill="#1d1d2b"/><rect x="32" y="200" width="4" height="4" fill="#1d1d2b"/><rect x="44" y="200" width="4" height="4" fill="#1d1d2b"/><rect x="36" y="204" width="8" height="4" fill="#1d1d2b"/><rect x="56" y="196" width="8" height="4" fill="#1d1d2b"/><rect x="52" y="200" width="4" height="4" fill="#1d1d2b"/><rect x="64" y="200" width="4" height="4" fill="#1d1d2b"/><rect x="56" y="204" width="8" height="4" fill="#1d1d2b"/><rect x="40" y="192" width="16" height="4" fill="#1f6fd1"/><rect x="48" y="196" width="4" height="4" fill="#1f6fd1"/><rect x="56" y="188" width="4" height="8" fill="#1f6fd1"/><rect x="40" y="188" width="8" height="4" fill="#1d1d2b"/><rect x="68" y="196" width="8" height="4" fill="#1d1d2b"/><rect x="64" y="200" width="4" height="4" fill="#1d1d2b"/><rect x="76" y="200" width="4" height="4" fill="#1d1d2b"/><rect x="68" y="204" width="8" height="4" fill="#1d1d2b"/><rect x="88" y="196" width="8" height="4" fill="#1d1d2b"/><rect x="84" y="200" width="4" height="4" fill="#1d1d2b"/><rect x="96" y="200" width="4" height="4" fill="#1d1d2b"/><rect x="88" y="204" width="8" height="4" fill="#1d1d2b"/><rect x="72" y="192" width="16" height="4" fill="#3a7d44"/><rect x="80" y="196" width="4" height="4" fill="#3a7d44"/><rect x="88" y="188" width="4" height="8" fill="#3a7d44"/><rect x="72" y="188" width="8" height="4" fill="#1d1d2b"/><rect x="100" y="196" width="8" height="4" fill="#1d1d2b"/><rect x="96" y="200" width="4" height="4" fill="#1d1d2b"/><rect x="108" y="200" width="4" height="4" fill="#1d1d2b"/><rect x="100" y="204" width="8" height="4" fill="#1d1d2b"/><rect x="120" y="196" width="8" height="4" fill="#1d1d2b"/><rect x="116" y="200" width="4" height="4" fill="#1d1d2b"/><rect x="128" y="200" width="4" height="4" fill="#1d1d2b"/><rect x="120" y="204" width="8" height="4" fill="#1d1d2b"/><rect x="104" y="192" width="16" height="4" fill="#e0a100"/><rect x="112" y="196" width="4" height="4" fill="#e0a100"/><rect x="120" y="188" width="4" height="8" fill="#e0a100"/><rect x="104" y="188" width="8" height="4" fill="#1d1d2b"/><rect x="132" y="196" width="8" height="4" fill="#1d1d2b"/><rect x="128" y="200" width="4" height="4" fill="#1d1d2b"/><rect x="140" y="200" width="4" height="4" fill="#1d1d2b"/><rect x="132" y="204" width="8" height="4" fill="#1d1d2b"/><rect x="152" y="196" width="8" height="4" fill="#1d1d2b"/><rect x="148" y="200" width="4" height="4" fill="#1d1d2b"/><rect x="160" y="200" width="4" height="4" fill="#1d1d2b"/><rect x="152" y="204" width="8" height="4" fill="#1d1d2b"/><rect x="136" y="192" width="16" height="4" fill="#8e3fd0"/><rect x="144" y="196" width="4" height="4" fill="#8e3fd0"/><rect x="152" y="188" width="4" height="8" fill="#8e3fd0"/><rect x="136" y="188" width="8" height="4" fill="#1d1d2b"/><rect x="164" y="196" width="8" height="4" fill="#1d1d2b"/><rect x="160" y="200" width="4" height="4" fill="#1d1d2b"/><rect x="172" y="200" width="4" height="4" fill="#1d1d2b"/><rect x="164" y="204" width="8" height="4" fill="#1d1d2b"/><rect x="184" y="196" width="8" height="4" fill="#1d1d2b"/><rect x="180" y="200" width="4" height="4" fill="#1d1d2b"/><rect x="192" y="200" width="4" height="4" fill="#1d1d2b"/><rect x="184" y="204" width="8" height="4" fill="#1d1d2b"/><rect x="168" y="192" width="16" height="4" fill="#ff6b4a"/><rect x="176" y="196" width="4" height="4" fill="#ff6b4a"/><rect x="184" y="188" width="4" height="8" fill="#ff6b4a"/><rect x="168" y="188" width="8" height="4" fill="#1d1d2b"/><rect x="196" y="196" width="8" height="4" fill="#1d1d2b"/><rect x="192" y="200" width="4" height="4" fill="#1d1d2b"/><rect x="204" y="200" width="4" height="4" fill="#1d1d2b"/><rect x="196" y="204" width="8" height="4" fill="#1d1d2b"/><rect x="216" y="196" width="8" height="4" fill="#1d1d2b"/><rect x="212" y="200" width="4" height="4" fill="#1d1d2b"/><rect x="224" y="200" width="4" height="4" fill="#1d1d2b"/><rect x="216" y="204" width="8" height="4" fill="#1d1d2b"/><rect x="200" y="192" width="16" height="4" fill="#3fb8a8"/><rect x="208" y="196" width="4" height="4" fill="#3fb8a8"/><rect x="216" y="188" width="4" height="8" fill="#3fb8a8"/><rect x="200" y="188" width="8" height="4" fill="#1d1d2b"/><rect x="228" y="196" width="8" height="4" fill="#1d1d2b"/><rect x="224" y="200" width="4" height="4" fill="#1d1d2b"/><rect x="236" y="200" width="4" height="4" fill="#1d1d2b"/><rect x="228" y="204" width="8" height="4" fill="#1d1d2b"/><rect x="248" y="196" width="8" height="4" fill="#1d1d2b"/><rect x="244" y="200" width="4" height="4" fill="#1d1d2b"/><rect x="256" y="200" width="4" height="4" fill="#1d1d2b"/><rect x="248" y="204" width="8" height="4" fill="#1d1d2b"/><rect x="232" y="192" width="16" height="4" fill="#1d1d2b"/><rect x="240" y="196" width="4" height="4" fill="#1d1d2b"/><rect x="248" y="188" width="4" height="8" fill="#1d1d2b"/><rect x="232" y="188" width="8" height="4" fill="#1d1d2b"/><rect x="260" y="196" width="8" height="4" fill="#1d1d2b"/><rect x="256" y="200" width="4" height="4" fill="#1d1d2b"/><rect x="268" y="200" width="4" height="4" fill="#1d1d2b"/><rect x="260" y="204" width="8" height="4" fill="#1d1d2b"/><rect x="280" y="196" width="8" height="4" fill="#1d1d2b"/><rect x="276" y="200" width="4" height="4" fill="#1d1d2b"/><rect x="288" y="200" width="4" height="4" fill="#1d1d2b"/><rect x="280" y="204" width="8" height="4" fill="#1d1d2b"/><rect x="264" y="192" width="16" height="4" fill="#f07fbf"/><rect x="272" y="196" width="4" height="4" fill="#f07fbf"/><rect x="280" y="188" width="4" height="8" fill="#f07fbf"/><rect x="264" y="188" width="8" height="4" fill="#1d1d2b"/><rect x="292" y="196" width="8" height="4" fill="#1d1d2b"/><rect x="288" y="200" width="4" height="4" fill="#1d1d2b"/><rect x="300" y="200" width="4" height="4" fill="#1d1d2b"/><rect x="292" y="204" width="8" height="4" fill="#1d1d2b"/><rect x="312" y="196" width="8" height="4" fill="#1d1d2b"/><rect x="308" y="200" width="4" height="4" fill="#1d1d2b"/><rect x="320" y="200" width="4" height="4" fill="#1d1d2b"/><rect x="312" y="204" width="8" height="4" fill="#1d1d2b"/><rect x="296" y="192" width="16" height="4" fill="#d23b3b"/><rect x="304" y="196" width="4" height="4" fill="#d23b3b"/><rect x="312" y="188" width="4" height="8" fill="#d23b3b"/><rect x="296" y="188" width="8" height="4" fill="#1d1d2b"/><rect x="324" y="196" width="8" height="4" fill="#1d1d2b"/><rect x="320" y="200" width="4" height="4" fill="#1d1d2b"/><rect x="332" y="200" width="4" height="4" fill="#1d1d2b"/><rect x="324" y="204" width="8" height="4" fill="#1d1d2b"/><rect x="344" y="196" width="8" height="4" fill="#1d1d2b"/><rect x="340" y="200" width="4" height="4" fill="#1d1d2b"/><rect x="344" y="204" width="8" height="4" fill="#1d1d2b"/><rect x="328" y="192" width="16" height="4" fill="#1f6fd1"/><rect x="336" y="196" width="4" height="4" fill="#1f6fd1"/><rect x="344" y="188" width="4" height="8" fill="#1f6fd1"/><rect x="328" y="188" width="8" height="4" fill="#1d1d2b"/><rect x="0" y="208" width="352" height="4" fill="#7e7a70"/><rect x="12" y="220" width="8" height="4" fill="#1d1d2b"/><rect x="8" y="224" width="4" height="4" fill="#1d1d2b"/><rect x="20" y="224" width="4" height="4" fill="#1d1d2b"/><rect x="12" y="228" width="8" height="4" fill="#1d1d2b"/><rect x="32" y="220" width="8" height="4" fill="#1d1d2b"/><rect x="28" y="224" width="4" height="4" fill="#1d1d2b"/><rect x="40" y="224" width="4" height="4" fill="#1d1d2b"/><rect x="32" y="228" width="8" height="4" fill="#1d1d2b"/><rect x="16" y="216" width="16" height="4" fill="#3a7d44"/><rect x="24" y="220" width="4" height="4" fill="#3a7d44"/><rect x="32" y="212" width="4" height="8" fill="#3a7d44"/><rect x="16" y="212" width="8" height="4" fill="#1d1d2b"/><rect x="44" y="220" width="8" height="4" fill="#1d1d2b"/><rect x="40" y="224" width="4" height="4" fill="#1d1d2b"/><rect x="52" y="224" width="4" height="4" fill="#1d1d2b"/><rect x="44" y="228" width="8" height="4" fill="#1d1d2b"/><rect x="64" y="220" width="8" height="4" fill="#1d1d2b"/><rect x="60" y="224" width="4" height="4" fill="#1d1d2b"/><rect x="72" y="224" width="4" height="4" fill="#1d1d2b"/><rect x="64" y="228" width="8" height="4" fill="#1d1d2b"/><rect x="48" y="216" width="16" height="4" fill="#e0a100"/><rect x="56" y="220" width="4" height="4" fill="#e0a100"/><rect x="64" y="212" width="4" height="8" fill="#e0a100"/><rect x="48" y="212" width="8" height="4" fill="#1d1d2b"/><rect x="76" y="220" width="8" height="4" fill="#1d1d2b"/><rect x="72" y="224" width="4" height="4" fill="#1d1d2b"/><rect x="84" y="224" width="4" height="4" fill="#1d1d2b"/><rect x="76" y="228" width="8" height="4" fill="#1d1d2b"/><rect x="96" y="220" width="8" height="4" fill="#1d1d2b"/><rect x="92" y="224" width="4" height="4" fill="#1d1d2b"/><rect x="104" y="224" width="4" height="4" fill="#1d1d2b"/><rect x="96" y="228" width="8" height="4" fill="#1d1d2b"/><rect x="80" y="216" width="16" height="4" fill="#8e3fd0"/><rect x="88" y="220" width="4" height="4" fill="#8e3fd0"/><rect x="96" y="212" width="4" height="8" fill="#8e3fd0"/><rect x="80" y="212" width="8" height="4" fill="#1d1d2b"/><rect x="108" y="220" width="8" height="4" fill="#1d1d2b"/><rect x="104" y="224" width="4" height="4" fill="#1d1d2b"/><rect x="116" y="224" width="4" height="4" fill="#1d1d2b"/><rect x="108" y="228" width="8" height="4" fill="#1d1d2b"/><rect x="128" y="220" width="8" height="4" fill="#1d1d2b"/><rect x="124" y="224" width="4" height="4" fill="#1d1d2b"/><rect x="136" y="224" width="4" height="4" fill="#1d1d2b"/><rect x="128" y="228" width="8" height="4" fill="#1d1d2b"/><rect x="112" y="216" width="16" height="4" fill="#ff6b4a"/><rect x="120" y="220" width="4" height="4" fill="#ff6b4a"/><rect x="128" y="212" width="4" height="8" fill="#ff6b4a"/><rect x="112" y="212" width="8" height="4" fill="#1d1d2b"/><rect x="140" y="220" width="8" height="4" fill="#1d1d2b"/><rect x="136" y="224" width="4" height="4" fill="#1d1d2b"/><rect x="148" y="224" width="4" height="4" fill="#1d1d2b"/><rect x="140" y="228" width="8" height="4" fill="#1d1d2b"/><rect x="160" y="220" width="8" height="4" fill="#1d1d2b"/><rect x="156" y="224" width="4" height="4" fill="#1d1d2b"/><rect x="168" y="224" width="4" height="4" fill="#1d1d2b"/><rect x="160" y="228" width="8" height="4" fill="#1d1d2b"/><rect x="144" y="216" width="16" height="4" fill="#3fb8a8"/><rect x="152" y="220" width="4" height="4" fill="#3fb8a8"/><rect x="160" y="212" width="4" height="8" fill="#3fb8a8"/><rect x="144" y="212" width="8" height="4" fill="#1d1d2b"/><rect x="172" y="220" width="8" height="4" fill="#1d1d2b"/><rect x="168" y="224" width="4" height="4" fill="#1d1d2b"/><rect x="180" y="224" width="4" height="4" fill="#1d1d2b"/><rect x="172" y="228" width="8" height="4" fill="#1d1d2b"/><rect x="192" y="220" width="8" height="4" fill="#1d1d2b"/><rect x="188" y="224" width="4" height="4" fill="#1d1d2b"/><rect x="200" y="224" width="4" height="4" fill="#1d1d2b"/><rect x="192" y="228" width="8" height="4" fill="#1d1d2b"/><rect x="176" y="216" width="16" height="4" fill="#1d1d2b"/><rect x="184" y="220" width="4" height="4" fill="#1d1d2b"/><rect x="192" y="212" width="4" height="8" fill="#1d1d2b"/><rect x="176" y="212" width="8" height="4" fill="#1d1d2b"/><rect x="204" y="220" width="8" height="4" fill="#1d1d2b"/><rect x="200" y="224" width="4" height="4" fill="#1d1d2b"/><rect x="212" y="224" width="4" height="4" fill="#1d1d2b"/><rect x="204" y="228" width="8" height="4" fill="#1d1d2b"/><rect x="224" y="220" width="8" height="4" fill="#1d1d2b"/><rect x="220" y="224" width="4" height="4" fill="#1d1d2b"/><rect x="232" y="224" width="4" height="4" fill="#1d1d2b"/><rect x="224" y="228" width="8" height="4" fill="#1d1d2b"/><rect x="208" y="216" width="16" height="4" fill="#f07fbf"/><rect x="216" y="220" width="4" height="4" fill="#f07fbf"/><rect x="224" y="212" width="4" height="8" fill="#f07fbf"/><rect x="208" y="212" width="8" height="4" fill="#1d1d2b"/><rect x="236" y="220" width="8" height="4" fill="#1d1d2b"/><rect x="232" y="224" width="4" height="4" fill="#1d1d2b"/><rect x="244" y="224" width="4" height="4" fill="#1d1d2b"/><rect x="236" y="228" width="8" height="4" fill="#1d1d2b"/><rect x="256" y="220" width="8" height="4" fill="#1d1d2b"/><rect x="252" y="224" width="4" height="4" fill="#1d1d2b"/><rect x="264" y="224" width="4" height="4" fill="#1d1d2b"/><rect x="256" y="228" width="8" height="4" fill="#1d1d2b"/><rect x="240" y="216" width="16" height="4" fill="#d23b3b"/><rect x="248" y="220" width="4" height="4" fill="#d23b3b"/><rect x="256" y="212" width="4" height="8" fill="#d23b3b"/><rect x="240" y="212" width="8" height="4" fill="#1d1d2b"/><rect x="268" y="220" width="8" height="4" fill="#1d1d2b"/><rect x="264" y="224" width="4" height="4" fill="#1d1d2b"/><rect x="276" y="224" width="4" height="4" fill="#1d1d2b"/><rect x="268" y="228" width="8" height="4" fill="#1d1d2b"/><rect x="288" y="220" width="8" height="4" fill="#1d1d2b"/><rect x="284" y="224" width="4" height="4" fill="#1d1d2b"/><rect x="296" y="224" width="4" height="4" fill="#1d1d2b"/><rect x="288" y="228" width="8" height="4" fill="#1d1d2b"/><rect x="272" y="216" width="16" height="4" fill="#1f6fd1"/><rect x="280" y="220" width="4" height="4" fill="#1f6fd1"/><rect x="288" y="212" width="4" height="8" fill="#1f6fd1"/><rect x="272" y="212" width="8" height="4" fill="#1d1d2b"/><rect x="300" y="220" width="8" height="4" fill="#1d1d2b"/><rect x="296" y="224" width="4" height="4" fill="#1d1d2b"/><rect x="308" y="224" width="4" height="4" fill="#1d1d2b"/><rect x="300" y="228" width="8" height="4" fill="#1d1d2b"/><rect x="320" y="220" width="8" height="4" fill="#1d1d2b"/><rect x="316" y="224" width="4" height="4" fill="#1d1d2b"/><rect x="328" y="224" width="4" height="4" fill="#1d1d2b"/><rect x="320" y="228" width="8" height="4" fill="#1d1d2b"/><rect x="304" y="216" width="16" height="4" fill="#3a7d44"/><rect x="312" y="220" width="4" height="4" fill="#3a7d44"/><rect x="320" y="212" width="4" height="8" fill="#3a7d44"/><rect x="304" y="212" width="8" height="4" fill="#1d1d2b"/><rect x="0" y="232" width="352" height="4" fill="#7e7a70"/><rect x="20" y="244" width="8" height="4" fill="#1d1d2b"/><rect x="16" y="248" width="4" height="4" fill="#1d1d2b"/><rect x="28" y="248" width="4" height="4" fill="#1d1d2b"/><rect x="20" y="252" width="8" height="4" fill="#1d1d2b"/><rect x="40" y="244" width="8" height="4" fill="#1d1d2b"/><rect x="36" y="248" width="4" height="4" fill="#1d1d2b"/><rect x="48" y="248" width="4" height="4" fill="#1d1d2b"/><rect x="40" y="252" width="8" height="4" fill="#1d1d2b"/><rect x="24" y="240" width="16" height="4" fill="#e0a100"/><rect x="32" y="244" width="4" height="4" fill="#e0a100"/><rect x="40" y="236" width="4" height="8" fill="#e0a100"/><rect x="24" y="236" width="8" height="4" fill="#1d1d2b"/><rect x="52" y="244" width="8" height="4" fill="#1d1d2b"/><rect x="48" y="248" width="4" height="4" fill="#1d1d2b"/><rect x="60" y="248" width="4" height="4" fill="#1d1d2b"/><rect x="52" y="252" width="8" height="4" fill="#1d1d2b"/><rect x="72" y="244" width="8" height="4" fill="#1d1d2b"/><rect x="68" y="248" width="4" height="4" fill="#1d1d2b"/><rect x="80" y="248" width="4" height="4" fill="#1d1d2b"/><rect x="72" y="252" width="8" height="4" fill="#1d1d2b"/><rect x="56" y="240" width="16" height="4" fill="#8e3fd0"/><rect x="64" y="244" width="4" height="4" fill="#8e3fd0"/><rect x="72" y="236" width="4" height="8" fill="#8e3fd0"/><rect x="56" y="236" width="8" height="4" fill="#1d1d2b"/><rect x="84" y="244" width="8" height="4" fill="#1d1d2b"/><rect x="80" y="248" width="4" height="4" fill="#1d1d2b"/><rect x="92" y="248" width="4" height="4" fill="#1d1d2b"/><rect x="84" y="252" width="8" height="4" fill="#1d1d2b"/><rect x="104" y="244" width="8" height="4" fill="#1d1d2b"/><rect x="100" y="248" width="4" height="4" fill="#1d1d2b"/><rect x="112" y="248" width="4" height="4" fill="#1d1d2b"/><rect x="104" y="252" width="8" height="4" fill="#1d1d2b"/><rect x="88" y="240" width="16" height="4" fill="#ff6b4a"/><rect x="96" y="244" width="4" height="4" fill="#ff6b4a"/><rect x="104" y="236" width="4" height="8" fill="#ff6b4a"/><rect x="88" y="236" width="8" height="4" fill="#1d1d2b"/><rect x="116" y="244" width="8" height="4" fill="#1d1d2b"/><rect x="112" y="248" width="4" height="4" fill="#1d1d2b"/><rect x="124" y="248" width="4" height="4" fill="#1d1d2b"/><rect x="116" y="252" width="8" height="4" fill="#1d1d2b"/><rect x="136" y="244" width="8" height="4" fill="#1d1d2b"/><rect x="132" y="248" width="4" height="4" fill="#1d1d2b"/><rect x="144" y="248" width="4" height="4" fill="#1d1d2b"/><rect x="136" y="252" width="8" height="4" fill="#1d1d2b"/><rect x="120" y="240" width="16" height="4" fill="#3fb8a8"/><rect x="128" y="244" width="4" height="4" fill="#3fb8a8"/><rect x="136" y="236" width="4" height="8" fill="#3fb8a8"/><rect x="120" y="236" width="8" height="4" fill="#1d1d2b"/><rect x="148" y="244" width="8" height="4" fill="#1d1d2b"/><rect x="144" y="248" width="4" height="4" fill="#1d1d2b"/><rect x="156" y="248" width="4" height="4" fill="#1d1d2b"/><rect x="148" y="252" width="8" height="4" fill="#1d1d2b"/><rect x="168" y="244" width="8" height="4" fill="#1d1d2b"/><rect x="164" y="248" width="4" height="4" fill="#1d1d2b"/><rect x="176" y="248" width="4" height="4" fill="#1d1d2b"/><rect x="168" y="252" width="8" height="4" fill="#1d1d2b"/><rect x="152" y="240" width="16" height="4" fill="#1d1d2b"/><rect x="160" y="244" width="4" height="4" fill="#1d1d2b"/><rect x="168" y="236" width="4" height="8" fill="#1d1d2b"/><rect x="152" y="236" width="8" height="4" fill="#1d1d2b"/><rect x="180" y="244" width="8" height="4" fill="#1d1d2b"/><rect x="176" y="248" width="4" height="4" fill="#1d1d2b"/><rect x="188" y="248" width="4" height="4" fill="#1d1d2b"/><rect x="180" y="252" width="8" height="4" fill="#1d1d2b"/><rect x="200" y="244" width="8" height="4" fill="#1d1d2b"/><rect x="196" y="248" width="4" height="4" fill="#1d1d2b"/><rect x="208" y="248" width="4" height="4" fill="#1d1d2b"/><rect x="200" y="252" width="8" height="4" fill="#1d1d2b"/><rect x="184" y="240" width="16" height="4" fill="#f07fbf"/><rect x="192" y="244" width="4" height="4" fill="#f07fbf"/><rect x="200" y="236" width="4" height="8" fill="#f07fbf"/><rect x="184" y="236" width="8" height="4" fill="#1d1d2b"/><rect x="212" y="244" width="8" height="4" fill="#1d1d2b"/><rect x="208" y="248" width="4" height="4" fill="#1d1d2b"/><rect x="220" y="248" width="4" height="4" fill="#1d1d2b"/><rect x="212" y="252" width="8" height="4" fill="#1d1d2b"/><rect x="232" y="244" width="8" height="4" fill="#1d1d2b"/><rect x="228" y="248" width="4" height="4" fill="#1d1d2b"/><rect x="240" y="248" width="4" height="4" fill="#1d1d2b"/><rect x="232" y="252" width="8" height="4" fill="#1d1d2b"/><rect x="216" y="240" width="16" height="4" fill="#d23b3b"/><rect x="224" y="244" width="4" height="4" fill="#d23b3b"/><rect x="232" y="236" width="4" height="8" fill="#d23b3b"/><rect x="216" y="236" width="8" height="4" fill="#1d1d2b"/><rect x="244" y="244" width="8" height="4" fill="#1d1d2b"/><rect x="240" y="248" width="4" height="4" fill="#1d1d2b"/><rect x="252" y="248" width="4" height="4" fill="#1d1d2b"/><rect x="244" y="252" width="8" height="4" fill="#1d1d2b"/><rect x="264" y="244" width="8" height="4" fill="#1d1d2b"/><rect x="260" y="248" width="4" height="4" fill="#1d1d2b"/><rect x="272" y="248" width="4" height="4" fill="#1d1d2b"/><rect x="264" y="252" width="8" height="4" fill="#1d1d2b"/><rect x="248" y="240" width="16" height="4" fill="#1f6fd1"/><rect x="256" y="244" width="4" height="4" fill="#1f6fd1"/><rect x="264" y="236" width="4" height="8" fill="#1f6fd1"/><rect x="248" y="236" width="8" height="4" fill="#1d1d2b"/><rect x="276" y="244" width="8" height="4" fill="#1d1d2b"/><rect x="272" y="248" width="4" height="4" fill="#1d1d2b"/><rect x="284" y="248" width="4" height="4" fill="#1d1d2b"/><rect x="276" y="252" width="8" height="4" fill="#1d1d2b"/><rect x="296" y="244" width="8" height="4" fill="#1d1d2b"/><rect x="292" y="248" width="4" height="4" fill="#1d1d2b"/><rect x="304" y="248" width="4" height="4" fill="#1d1d2b"/><rect x="296" y="252" width="8" height="4" fill="#1d1d2b"/><rect x="280" y="240" width="16" height="4" fill="#3a7d44"/><rect x="288" y="244" width="4" height="4" fill="#3a7d44"/><rect x="296" y="236" width="4" height="8" fill="#3a7d44"/><rect x="280" y="236" width="8" height="4" fill="#1d1d2b"/><rect x="308" y="244" width="8" height="4" fill="#1d1d2b"/><rect x="304" y="248" width="4" height="4" fill="#1d1d2b"/><rect x="316" y="248" width="4" height="4" fill="#1d1d2b"/><rect x="308" y="252" width="8" height="4" fill="#1d1d2b"/><rect x="328" y="244" width="8" height="4" fill="#1d1d2b"/><rect x="324" y="248" width="4" height="4" fill="#1d1d2b"/><rect x="336" y="248" width="4" height="4" fill="#1d1d2b"/><rect x="328" y="252" width="8" height="4" fill="#1d1d2b"/><rect x="312" y="240" width="16" height="4" fill="#e0a100"/><rect x="320" y="244" width="4" height="4" fill="#e0a100"/><rect x="328" y="236" width="4" height="8" fill="#e0a100"/><rect x="312" y="236" width="8" height="4" fill="#1d1d2b"/><rect x="16" y="176" width="4" height="4" fill="#6b4a2f"/><rect x="16" y="172" width="4" height="4" fill="#6b4a2f"/><rect x="16" y="168" width="4" height="4" fill="#6b4a2f"/><rect x="20" y="164" width="4" height="4" fill="#6b4a2f"/><rect x="20" y="160" width="4" height="4" fill="#6b4a2f"/><rect x="20" y="156" width="4" height="4" fill="#6b4a2f"/><rect x="20" y="152" width="4" height="4" fill="#6b4a2f"/><rect x="20" y="148" width="4" height="4" fill="#6b4a2f"/><rect x="20" y="144" width="4" height="4" fill="#6b4a2f"/><rect x="20" y="140" width="4" height="4" fill="#6b4a2f"/><rect x="20" y="136" width="4" height="4" fill="#6b4a2f"/><rect x="20" y="132" width="4" height="4" fill="#6b4a2f"/><rect x="20" y="128" width="4" height="4" fill="#6b4a2f"/><rect x="20" y="124" width="4" height="4" fill="#6b4a2f"/><rect x="16" y="120" width="4" height="4" fill="#2e7d4f"/><rect x="12" y="124" width="4" height="4" fill="#2e7d4f"/><rect x="8" y="124" width="4" height="4" fill="#2e7d4f"/><rect x="4" y="128" width="4" height="4" fill="#2e7d4f"/><rect x="0" y="128" width="4" height="4" fill="#2e7d4f"/><rect x="16" y="120" width="4" height="4" fill="#1f5b3a"/><rect x="12" y="124" width="4" height="4" fill="#1f5b3a"/><rect x="8" y="124" width="4" height="4" fill="#1f5b3a"/><rect x="4" y="124" width="4" height="4" fill="#1f5b3a"/><rect x="16" y="120" width="4" height="4" fill="#2e7d4f"/><rect x="12" y="120" width="4" height="4" fill="#2e7d4f"/><rect x="8" y="120" width="4" height="4" fill="#2e7d4f"/><rect x="16" y="120" width="4" height="4" fill="#1f5b3a"/><rect x="12" y="116" width="4" height="4" fill="#1f5b3a"/><rect x="24" y="120" width="4" height="4" fill="#2e7d4f"/><rect x="28" y="116" width="4" height="4" fill="#2e7d4f"/><rect x="24" y="120" width="4" height="4" fill="#1f5b3a"/><rect x="28" y="120" width="4" height="4" fill="#1f5b3a"/><rect x="32" y="120" width="4" height="4" fill="#1f5b3a"/><rect x="24" y="120" width="4" height="4" fill="#2e7d4f"/><rect x="28" y="124" width="4" height="4" fill="#2e7d4f"/><rect x="32" y="124" width="4" height="4" fill="#2e7d4f"/><rect x="36" y="124" width="4" height="4" fill="#2e7d4f"/><rect x="24" y="120" width="4" height="4" fill="#1f5b3a"/><rect x="28" y="124" width="4" height="4" fill="#1f5b3a"/><rect x="32" y="124" width="4" height="4" fill="#1f5b3a"/><rect x="36" y="128" width="4" height="4" fill="#1f5b3a"/><rect x="40" y="128" width="4" height="4" fill="#1f5b3a"/><rect x="16" y="116" width="12" height="8" fill="#1f5b3a"/><g class="ride"><rect x="280" y="184" width="8" height="4" fill="#1d1d2b"/><rect x="276" y="188" width="4" height="4" fill="#1d1d2b"/><rect x="288" y="188" width="4" height="4" fill="#1d1d2b"/><rect x="280" y="192" width="8" height="4" fill="#1d1d2b"/><rect x="300" y="184" width="8" height="4" fill="#1d1d2b"/><rect x="296" y="188" width="4" height="4" fill="#1d1d2b"/><rect x="308" y="188" width="4" height="4" fill="#1d1d2b"/><rect x="300" y="192" width="8" height="4" fill="#1d1d2b"/><rect x="284" y="180" width="16" height="4" fill="#1d1d2b"/><rect x="292" y="184" width="4" height="4" fill="#1d1d2b"/><rect x="300" y="176" width="4" height="8" fill="#1d1d2b"/><rect x="284" y="176" width="8" height="4" fill="#1d1d2b"/><rect x="288" y="164" width="8" height="12" fill="#ffd23f"/><rect x="288" y="156" width="8" height="8" fill="#e9b48a"/><rect x="296" y="168" width="4" height="4" fill="#ffd23f"/></g></g>
<rect x="21" y="340" width="358" height="26" fill="#3a7d44" stroke="#12121c" stroke-width="3"/>
<rect x="33" y="347" width="6" height="3" fill="#fff"/><rect x="30" y="350" width="12" height="6" fill="#fff"/><rect x="33" y="356" width="6" height="3" fill="#fff"/>
<text x="48" y="358" font-family="ui-monospace, 'SF Mono', Menlo, 'DejaVu Sans Mono', monospace" font-size="12" font-weight="700" fill="#ffffff" letter-spacing="2">COMMON</text>
<text x="370" y="358" font-family="ui-monospace, 'SF Mono', Menlo, 'DejaVu Sans Mono', monospace" font-size="11" font-weight="700" fill="#ffffff" text-anchor="end">GOLETA &amp; ISLA VISTA</text>
<text x="24" y="392" font-family="ui-monospace, 'SF Mono', Menlo, 'DejaVu Sans Mono', monospace" font-size="13" fill="#2a2a36">Racks outside every lecture hall at ten to</text>
<text x="24" y="410" font-family="ui-monospace, 'SF Mono', Menlo, 'DejaVu Sans Mono', monospace" font-size="13" fill="#2a2a36">the hour. Remember where you locked it.</text>
<rect x="24" y="456" width="113.33333333333333" height="40" fill="#ffffff" stroke="#12121c" stroke-width="2"/><rect x="27" y="459" width="107.33333333333333" height="12" fill="#3a7d44"/><text x="32" y="468" font-family="ui-monospace, 'SF Mono', Menlo, 'DejaVu Sans Mono', monospace" font-size="8" font-weight="700" fill="#ffffff" letter-spacing="1.5">EDITION</text><text x="32" y="488" font-family="ui-monospace, 'SF Mono', Menlo, 'DejaVu Sans Mono', monospace" font-size="13" font-weight="700" fill="#12121c">OPEN</text><rect x="143.33333333333331" y="456" width="113.33333333333333" height="40" fill="#ffffff" stroke="#12121c" stroke-width="2"/><rect x="146.33333333333331" y="459" width="107.33333333333333" height="12" fill="#12121c"/><text x="151.33333333333331" y="468" font-family="ui-monospace, 'SF Mono', Menlo, 'DejaVu Sans Mono', monospace" font-size="8" font-weight="700" fill="#ffffff" letter-spacing="1.5">MINT</text><text x="151.33333333333331" y="488" font-family="ui-monospace, 'SF Mono', Menlo, 'DejaVu Sans Mono', monospace" font-size="13" font-weight="700" fill="#12121c">0.5 TEZ</text><rect x="262.66666666666663" y="456" width="113.33333333333333" height="40" fill="#ffffff" stroke="#12121c" stroke-width="2"/><rect x="265.66666666666663" y="459" width="107.33333333333333" height="12" fill="#12121c"/><text x="270.66666666666663" y="468" font-family="ui-monospace, 'SF Mono', Menlo, 'DejaVu Sans Mono', monospace" font-size="8" font-weight="700" fill="#ffffff" letter-spacing="1.5">CARD</text><text x="270.66666666666663" y="488" font-family="ui-monospace, 'SF Mono', Menlo, 'DejaVu Sans Mono', monospace" font-size="13" font-weight="700" fill="#12121c">09/12</text>
<line x1="24" y1="510" x2="376" y2="510" stroke="#12121c" stroke-width="2" stroke-dasharray="4 4"/>
<text x="24" y="528" font-family="ui-monospace, 'SF Mono', Menlo, 'DejaVu Sans Mono', monospace" font-size="9" font-weight="700" fill="#5a5a66" letter-spacing="1">UNOFFICIAL · PLACES ONLY · CC0 · POINTCAST.XYZ</text>
<text x="376" y="528" font-family="ui-monospace, 'SF Mono', Menlo, 'DejaVu Sans Mono', monospace" font-size="9" font-weight="700" fill="#5a5a66" text-anchor="end">TEZOS</text>
</svg>
