<svg xmlns="http://www.w3.org/2000/svg" width="1440" height="1080" viewBox="0 0 1440 1080" role="img" aria-labelledby="title desc">
  <title id="title">Houseplant learning lab</title>
  <desc id="desc">A bright indoor desk with labeled houseplants, care cards, and light/water/root notes.</desc>
  <defs>
    <filter id="shadow" x="-20%" y="-20%" width="140%" height="140%">
      <feDropShadow dx="0" dy="22" stdDeviation="22" flood-color="#12110e" flood-opacity="0.16"/>
    </filter>
  </defs>
  <rect width="1440" height="1080" fill="#fff"/>
  <rect x="72" y="70" width="1296" height="940" fill="#f6f1e7"/>
  <rect x="108" y="106" width="1224" height="868" fill="#fff"/>
  <rect x="108" y="106" width="1224" height="92" fill="#dceadf"/>
  <text x="154" y="162" font-family="JetBrains Mono, monospace" font-size="22" letter-spacing="5" fill="#1f5137">HOUSEPLANT SCHOOL / POINTCAST</text>
  <g transform="translate(150 242)" filter="url(#shadow)">
    <rect x="0" y="410" width="1138" height="42" fill="#12110e"/>
    <rect x="54" y="452" width="72" height="230" fill="#38373a"/>
    <rect x="1012" y="452" width="72" height="230" fill="#38373a"/>
    <g transform="translate(88 88)">
      <path d="M164 334 C58 248 56 134 122 96 C190 58 230 142 190 220 C280 138 368 136 404 194 C452 270 340 336 228 322 C308 396 254 462 174 432 C114 408 102 364 164 334Z" fill="#2f8058"/>
      <path d="M204 344 C180 254 186 170 236 76 C250 166 252 264 226 348" fill="none" stroke="#16452e" stroke-width="12" stroke-linecap="round"/>
      <path d="M90 560 L338 560 L308 760 L120 760 Z" fill="#f7c325"/>
      <rect x="70" y="520" width="288" height="56" rx="10" fill="#12110e"/>
      <text x="214" y="556" text-anchor="middle" font-family="JetBrains Mono, monospace" font-size="17" letter-spacing="3" fill="#fff">LIGHT</text>
    </g>
    <g transform="translate(470 36)">
      <path d="M146 420 C84 344 106 236 178 208 C240 184 290 226 296 294 C334 208 430 178 484 236 C554 312 492 426 374 430 C424 506 360 570 276 536 C222 514 204 464 236 428 C200 438 172 436 146 420Z" fill="#0f6e56"/>
      <path d="M318 452 C310 350 330 232 382 108" fill="none" stroke="#074638" stroke-width="13" stroke-linecap="round"/>
      <path d="M214 558 L466 558 L434 776 L248 776 Z" fill="#e84d6a"/>
      <rect x="190" y="518" width="300" height="58" rx="10" fill="#12110e"/>
      <text x="340" y="555" text-anchor="middle" font-family="JetBrains Mono, monospace" font-size="17" letter-spacing="3" fill="#fff">WATER</text>
    </g>
    <g transform="translate(852 124)">
      <path d="M142 284 C80 226 72 136 124 96 C184 50 240 126 210 208 C270 136 350 130 390 184 C438 250 360 322 254 310 C306 370 270 426 198 408 C152 396 130 352 142 284Z" fill="#67a56b"/>
      <path d="M202 330 C204 248 218 170 262 86" fill="none" stroke="#285a35" stroke-width="11" stroke-linecap="round"/>
      <path d="M104 482 L348 482 L318 676 L136 676 Z" fill="#185fa5"/>
      <rect x="82" y="444" width="286" height="56" rx="10" fill="#12110e"/>
      <text x="225" y="480" text-anchor="middle" font-family="JetBrains Mono, monospace" font-size="17" letter-spacing="3" fill="#fff">ROOTS</text>
    </g>
  </g>
  <g transform="translate(156 815)">
    <rect x="0" y="0" width="314" height="92" fill="#fff" stroke="#12110e" stroke-width="3"/>
    <text x="24" y="36" font-family="JetBrains Mono, monospace" font-size="16" letter-spacing="3" fill="#5f5e5a">LESSON 01</text>
    <text x="24" y="68" font-family="Inter, Arial, sans-serif" font-size="24" fill="#12110e">Read the shadow.</text>
  </g>
  <g transform="translate(512 815)">
    <rect x="0" y="0" width="314" height="92" fill="#fff" stroke="#12110e" stroke-width="3"/>
    <text x="24" y="36" font-family="JetBrains Mono, monospace" font-size="16" letter-spacing="3" fill="#5f5e5a">LESSON 02</text>
    <text x="24" y="68" font-family="Inter, Arial, sans-serif" font-size="24" fill="#12110e">Lift the pot.</text>
  </g>
  <g transform="translate(868 815)">
    <rect x="0" y="0" width="314" height="92" fill="#fff" stroke="#12110e" stroke-width="3"/>
    <text x="24" y="36" font-family="JetBrains Mono, monospace" font-size="16" letter-spacing="3" fill="#5f5e5a">LESSON 03</text>
    <text x="24" y="68" font-family="Inter, Arial, sans-serif" font-size="24" fill="#12110e">Give roots air.</text>
  </g>
</svg>
