<svg xmlns="http://www.w3.org/2000/svg" width="1200" height="630" viewBox="0 0 1200 630" role="img" aria-labelledby="title desc" shape-rendering="crispEdges">
  <title id="title">Nouns Wood Chop pixel woodlot</title>
  <desc id="desc">A pixel-styled Nouns wood chop scene with a tree, axe, logs, sky, and square glasses.</desc>
  <rect width="1200" height="630" fill="#eef8ff"/>
  <rect y="420" width="1200" height="210" fill="#d8efcf"/>
  <rect y="512" width="1200" height="118" fill="#b8dd9f"/>
  <rect x="0" y="390" width="1200" height="32" fill="#1e6a53"/>
  <rect x="70" y="84" width="90" height="90" fill="#ffd55c"/>
  <rect x="910" y="100" width="210" height="34" fill="#ffffff"/>
  <rect x="950" y="70" width="120" height="34" fill="#ffffff"/>
  <rect x="160" y="468" width="850" height="28" fill="#86512c"/>
  <rect x="214" y="330" width="116" height="156" fill="#8f5a32"/>
  <rect x="238" y="270" width="68" height="70" fill="#744323"/>
  <rect x="146" y="208" width="254" height="94" fill="#236b4a"/>
  <rect x="184" y="148" width="178" height="80" fill="#2d7e58"/>
  <rect x="230" y="102" width="92" height="58" fill="#3e966b"/>
  <rect x="192" y="216" width="62" height="34" fill="#fff3a3"/>
  <rect x="268" y="216" width="62" height="34" fill="#fff3a3"/>
  <rect x="186" y="206" width="74" height="12" fill="#161616"/>
  <rect x="262" y="206" width="74" height="12" fill="#161616"/>
  <rect x="254" y="218" width="14" height="14" fill="#161616"/>
  <rect x="684" y="314" width="42" height="42" fill="#27231f"/>
  <rect x="726" y="356" width="32" height="132" fill="#7c4b2b"/>
  <rect x="742" y="300" width="32" height="74" fill="#dce9f8"/>
  <rect x="774" y="284" width="46" height="46" fill="#f3fbff"/>
  <rect x="704" y="498" width="150" height="36" fill="#734223"/>
  <rect x="710" y="504" width="34" height="24" fill="#bd8450"/>
  <rect x="754" y="504" width="34" height="24" fill="#bd8450"/>
  <rect x="798" y="504" width="34" height="24" fill="#bd8450"/>
  <rect x="892" y="260" width="46" height="46" fill="#fff3a3"/>
  <rect x="946" y="260" width="46" height="46" fill="#fff3a3"/>
  <rect x="884" y="250" width="62" height="12" fill="#161616"/>
  <rect x="938" y="250" width="62" height="12" fill="#161616"/>
  <rect x="936" y="270" width="12" height="14" fill="#161616"/>
  <rect x="1020" y="390" width="94" height="18" fill="#86512c"/>
  <rect x="1042" y="368" width="50" height="24" fill="#bd8450"/>
  <text x="82" y="574" fill="#12110e" font-family="ui-monospace, SFMono-Regular, Menlo, Consolas, monospace" font-size="34" letter-spacing="3">NOUNS WOOD CHOP COMMONS</text>
</svg>
