<svg xmlns="http://www.w3.org/2000/svg" viewBox="0 0 400 560" width="400" height="560" shape-rendering="crispEdges" role="img" aria-labelledby="t d">
<title id="t">Campus Cards · Set 08 · San Diego · 02/12 Scripps Pier (Rare)</title>
<desc id="d">A long research pier walking straight out into the Pacific. The pelicans treat it as theirs. Unofficial. An independent PointCast art project about places. Not affiliated with, sponsored by, or endorsed by the University of California or any campus. No university logos, seals, mascots, or marks are used.</desc>
<style>
.glint{animation:blink 2.4s steps(2) infinite}
.twinkle{animation:blink 3.1s steps(2) infinite .7s}
.waves{animation:slide 3s steps(3) infinite}
.drift{animation:drift 14s linear infinite alternate}
.drift2{animation:drift 19s linear infinite alternate-reverse}
.bob{animation:bob 2.2s steps(2) infinite}
.sway{animation:sway 2.8s steps(2) infinite}
.peck{animation:bob 1.7s steps(2) infinite}
.ride{animation:ride 6s steps(24) infinite}
.ride2{animation:ride 7.5s steps(30) infinite reverse}
.spin{transform-box:fill-box;transform-origin:center;animation:spin 9s steps(36) infinite}
.glow{animation:glow 4s ease-in-out infinite}
.ring{animation:ring 3.2s steps(2) infinite}
.bell{animation:blink 1.6s steps(2) infinite}
.alpen{animation:glow 6s ease-in-out infinite}
.foil{animation:foil 5s linear infinite}
@keyframes blink{50%{opacity:.25}}
@keyframes slide{to{transform:translateX(8px)}}
@keyframes drift{to{transform:translateX(24px)}}
@keyframes bob{50%{transform:translateY(4px)}}
@keyframes sway{50%{transform:translateX(4px)}}
@keyframes ride{from{transform:translateX(-160px)}to{transform:translateX(160px)}}
@keyframes spin{to{transform:rotate(-360deg)}}
@keyframes glow{50%{opacity:.6}}
@keyframes ring{0%,100%{opacity:0}50%{opacity:.9}}
@keyframes foil{from{transform:translateX(-360px)}to{transform:translateX(360px)}}
</style>
<defs>
<clipPath id="art"><rect x="0" y="0" width="352" height="256"/></clipPath>
<linearGradient id="sheen" x1="0" y1="0" x2="1" y2="1"><stop offset="0" stop-color="#fff" stop-opacity="0"/><stop offset=".45" stop-color="#fff" stop-opacity="0"/><stop offset=".5" stop-color="#fff" stop-opacity=".55"/><stop offset=".55" stop-color="#fff" stop-opacity="0"/><stop offset="1" stop-color="#fff" stop-opacity="0"/></linearGradient>
<pattern id="dots" width="8" height="8" patternUnits="userSpaceOnUse"><rect width="8" height="8" fill="#8e3fd0"/><rect x="0" y="0" width="2" height="2" fill="#000" fill-opacity=".18"/></pattern>
</defs>
<rect width="400" height="560" fill="#12121c"/>
<rect x="6" y="6" width="388" height="548" fill="url(#dots)"/>
<rect x="14" y="14" width="372" height="532" fill="#f7f1e1" stroke="#12121c" stroke-width="3"/>
<rect x="14" y="14" width="372" height="44" fill="#0f7fb8" stroke="#12121c" stroke-width="3"/>
<text x="26" y="34" font-family="ui-monospace, 'SF Mono', Menlo, 'DejaVu Sans Mono', monospace" font-size="10" font-weight="700" fill="#ffffff" letter-spacing="1.5">CAMPUS CARDS · SET 08 · SAN DIEGO</text>
<text x="26" y="51" font-family="ui-monospace, 'SF Mono', Menlo, 'DejaVu Sans Mono', monospace" font-size="17" font-weight="700" fill="#ffffff">Scripps Pier</text>
<text x="374" y="51" font-family="ui-monospace, 'SF Mono', Menlo, 'DejaVu Sans Mono', monospace" font-size="14" font-weight="700" fill="#ffffff" text-anchor="end">02/12</text>
<rect x="21" y="73" width="358" height="262" fill="#12121c"/>
<g transform="translate(24 76)" clip-path="url(#art)"><rect x="0" y="0" width="352" height="28" fill="#3f5ba8"/><rect x="0" y="24" width="4" height="4" fill="#6f7fc4"/><rect x="8" y="24" width="4" height="4" fill="#6f7fc4"/><rect x="16" y="24" width="4" height="4" fill="#6f7fc4"/><rect x="24" y="24" width="4" height="4" fill="#6f7fc4"/><rect x="32" y="24" width="4" height="4" fill="#6f7fc4"/><rect x="40" y="24" width="4" height="4" fill="#6f7fc4"/><rect x="48" y="24" width="4" height="4" fill="#6f7fc4"/><rect x="56" y="24" width="4" height="4" fill="#6f7fc4"/><rect x="64" y="24" width="4" height="4" fill="#6f7fc4"/><rect x="72" y="24" width="4" height="4" fill="#6f7fc4"/><rect x="80" y="24" width="4" height="4" fill="#6f7fc4"/><rect x="88" y="24" width="4" height="4" fill="#6f7fc4"/><rect x="96" y="24" width="4" height="4" fill="#6f7fc4"/><rect x="104" y="24" width="4" height="4" fill="#6f7fc4"/><rect x="112" y="24" width="4" height="4" fill="#6f7fc4"/><rect x="120" y="24" width="4" height="4" fill="#6f7fc4"/><rect x="128" y="24" width="4" height="4" fill="#6f7fc4"/><rect x="136" y="24" width="4" height="4" fill="#6f7fc4"/><rect x="144" y="24" width="4" height="4" fill="#6f7fc4"/><rect x="152" y="24" width="4" height="4" fill="#6f7fc4"/><rect x="160" y="24" width="4" height="4" fill="#6f7fc4"/><rect x="168" y="24" width="4" height="4" fill="#6f7fc4"/><rect x="176" y="24" width="4" height="4" fill="#6f7fc4"/><rect x="184" y="24" width="4" height="4" fill="#6f7fc4"/><rect x="192" y="24" width="4" height="4" fill="#6f7fc4"/><rect x="200" y="24" width="4" height="4" fill="#6f7fc4"/><rect x="208" y="24" width="4" height="4" fill="#6f7fc4"/><rect x="216" y="24" width="4" height="4" fill="#6f7fc4"/><rect x="224" y="24" width="4" height="4" fill="#6f7fc4"/><rect x="232" y="24" width="4" height="4" fill="#6f7fc4"/><rect x="240" y="24" width="4" height="4" fill="#6f7fc4"/><rect x="248" y="24" width="4" height="4" fill="#6f7fc4"/><rect x="256" y="24" width="4" height="4" fill="#6f7fc4"/><rect x="264" y="24" width="4" height="4" fill="#6f7fc4"/><rect x="272" y="24" width="4" height="4" fill="#6f7fc4"/><rect x="280" y="24" width="4" height="4" fill="#6f7fc4"/><rect x="288" y="24" width="4" height="4" fill="#6f7fc4"/><rect x="296" y="24" width="4" height="4" fill="#6f7fc4"/><rect x="304" y="24" width="4" height="4" fill="#6f7fc4"/><rect x="312" y="24" width="4" height="4" fill="#6f7fc4"/><rect x="320" y="24" width="4" height="4" fill="#6f7fc4"/><rect x="328" y="24" width="4" height="4" fill="#6f7fc4"/><rect x="336" y="24" width="4" height="4" fill="#6f7fc4"/><rect x="344" y="24" width="4" height="4" fill="#6f7fc4"/><rect x="0" y="28" width="352" height="28" fill="#6f7fc4"/><rect x="4" y="52" width="4" height="4" fill="#d88aa0"/><rect x="12" y="52" width="4" height="4" fill="#d88aa0"/><rect x="20" y="52" width="4" height="4" fill="#d88aa0"/><rect x="28" y="52" width="4" height="4" fill="#d88aa0"/><rect x="36" y="52" width="4" height="4" fill="#d88aa0"/><rect x="44" y="52" width="4" height="4" fill="#d88aa0"/><rect x="52" y="52" width="4" height="4" fill="#d88aa0"/><rect x="60" y="52" width="4" height="4" fill="#d88aa0"/><rect x="68" y="52" width="4" height="4" fill="#d88aa0"/><rect x="76" y="52" width="4" height="4" fill="#d88aa0"/><rect x="84" y="52" width="4" height="4" fill="#d88aa0"/><rect x="92" y="52" width="4" height="4" fill="#d88aa0"/><rect x="100" y="52" width="4" height="4" fill="#d88aa0"/><rect x="108" y="52" width="4" height="4" fill="#d88aa0"/><rect x="116" y="52" width="4" height="4" fill="#d88aa0"/><rect x="124" y="52" width="4" height="4" fill="#d88aa0"/><rect x="132" y="52" width="4" height="4" fill="#d88aa0"/><rect x="140" y="52" width="4" height="4" fill="#d88aa0"/><rect x="148" y="52" width="4" height="4" fill="#d88aa0"/><rect x="156" y="52" width="4" height="4" fill="#d88aa0"/><rect x="164" y="52" width="4" height="4" fill="#d88aa0"/><rect x="172" y="52" width="4" height="4" fill="#d88aa0"/><rect x="180" y="52" width="4" height="4" fill="#d88aa0"/><rect x="188" y="52" width="4" height="4" fill="#d88aa0"/><rect x="196" y="52" width="4" height="4" fill="#d88aa0"/><rect x="204" y="52" width="4" height="4" fill="#d88aa0"/><rect x="212" y="52" width="4" height="4" fill="#d88aa0"/><rect x="220" y="52" width="4" height="4" fill="#d88aa0"/><rect x="228" y="52" width="4" height="4" fill="#d88aa0"/><rect x="236" y="52" width="4" height="4" fill="#d88aa0"/><rect x="244" y="52" width="4" height="4" fill="#d88aa0"/><rect x="252" y="52" width="4" height="4" fill="#d88aa0"/><rect x="260" y="52" width="4" height="4" fill="#d88aa0"/><rect x="268" y="52" width="4" height="4" fill="#d88aa0"/><rect x="276" y="52" width="4" height="4" fill="#d88aa0"/><rect x="284" y="52" width="4" height="4" fill="#d88aa0"/><rect x="292" y="52" width="4" height="4" fill="#d88aa0"/><rect x="300" y="52" width="4" height="4" fill="#d88aa0"/><rect x="308" y="52" width="4" height="4" fill="#d88aa0"/><rect x="316" y="52" width="4" height="4" fill="#d88aa0"/><rect x="324" y="52" width="4" height="4" fill="#d88aa0"/><rect x="332" y="52" width="4" height="4" fill="#d88aa0"/><rect x="340" y="52" width="4" height="4" fill="#d88aa0"/><rect x="348" y="52" width="4" height="4" fill="#d88aa0"/><rect x="0" y="56" width="352" height="24" fill="#d88aa0"/><rect x="0" y="76" width="4" height="4" fill="#f6b07a"/><rect x="8" y="76" width="4" height="4" fill="#f6b07a"/><rect x="16" y="76" width="4" height="4" fill="#f6b07a"/><rect x="24" y="76" width="4" height="4" fill="#f6b07a"/><rect x="32" y="76" width="4" height="4" fill="#f6b07a"/><rect x="40" y="76" width="4" height="4" fill="#f6b07a"/><rect x="48" y="76" width="4" height="4" fill="#f6b07a"/><rect x="56" y="76" width="4" height="4" fill="#f6b07a"/><rect x="64" y="76" width="4" height="4" fill="#f6b07a"/><rect x="72" y="76" width="4" height="4" fill="#f6b07a"/><rect x="80" y="76" width="4" height="4" fill="#f6b07a"/><rect x="88" y="76" width="4" height="4" fill="#f6b07a"/><rect x="96" y="76" width="4" height="4" fill="#f6b07a"/><rect x="104" y="76" width="4" height="4" fill="#f6b07a"/><rect x="112" y="76" width="4" height="4" fill="#f6b07a"/><rect x="120" y="76" width="4" height="4" fill="#f6b07a"/><rect x="128" y="76" width="4" height="4" fill="#f6b07a"/><rect x="136" y="76" width="4" height="4" fill="#f6b07a"/><rect x="144" y="76" width="4" height="4" fill="#f6b07a"/><rect x="152" y="76" width="4" height="4" fill="#f6b07a"/><rect x="160" y="76" width="4" height="4" fill="#f6b07a"/><rect x="168" y="76" width="4" height="4" fill="#f6b07a"/><rect x="176" y="76" width="4" height="4" fill="#f6b07a"/><rect x="184" y="76" width="4" height="4" fill="#f6b07a"/><rect x="192" y="76" width="4" height="4" fill="#f6b07a"/><rect x="200" y="76" width="4" height="4" fill="#f6b07a"/><rect x="208" y="76" width="4" height="4" fill="#f6b07a"/><rect x="216" y="76" width="4" height="4" fill="#f6b07a"/><rect x="224" y="76" width="4" height="4" fill="#f6b07a"/><rect x="232" y="76" width="4" height="4" fill="#f6b07a"/><rect x="240" y="76" width="4" height="4" fill="#f6b07a"/><rect x="248" y="76" width="4" height="4" fill="#f6b07a"/><rect x="256" y="76" width="4" height="4" fill="#f6b07a"/><rect x="264" y="76" width="4" height="4" fill="#f6b07a"/><rect x="272" y="76" width="4" height="4" fill="#f6b07a"/><rect x="280" y="76" width="4" height="4" fill="#f6b07a"/><rect x="288" y="76" width="4" height="4" fill="#f6b07a"/><rect x="296" y="76" width="4" height="4" fill="#f6b07a"/><rect x="304" y="76" width="4" height="4" fill="#f6b07a"/><rect x="312" y="76" width="4" height="4" fill="#f6b07a"/><rect x="320" y="76" width="4" height="4" fill="#f6b07a"/><rect x="328" y="76" width="4" height="4" fill="#f6b07a"/><rect x="336" y="76" width="4" height="4" fill="#f6b07a"/><rect x="344" y="76" width="4" height="4" fill="#f6b07a"/><rect x="0" y="80" width="352" height="24" fill="#f6b07a"/><rect x="4" y="100" width="4" height="4" fill="#ffd88a"/><rect x="12" y="100" width="4" height="4" fill="#ffd88a"/><rect x="20" y="100" width="4" height="4" fill="#ffd88a"/><rect x="28" y="100" width="4" height="4" fill="#ffd88a"/><rect x="36" y="100" width="4" height="4" fill="#ffd88a"/><rect x="44" y="100" width="4" height="4" fill="#ffd88a"/><rect x="52" y="100" width="4" height="4" fill="#ffd88a"/><rect x="60" y="100" width="4" height="4" fill="#ffd88a"/><rect x="68" y="100" width="4" height="4" fill="#ffd88a"/><rect x="76" y="100" width="4" height="4" fill="#ffd88a"/><rect x="84" y="100" width="4" height="4" fill="#ffd88a"/><rect x="92" y="100" width="4" height="4" fill="#ffd88a"/><rect x="100" y="100" width="4" height="4" fill="#ffd88a"/><rect x="108" y="100" width="4" height="4" fill="#ffd88a"/><rect x="116" y="100" width="4" height="4" fill="#ffd88a"/><rect x="124" y="100" width="4" height="4" fill="#ffd88a"/><rect x="132" y="100" width="4" height="4" fill="#ffd88a"/><rect x="140" y="100" width="4" height="4" fill="#ffd88a"/><rect x="148" y="100" width="4" height="4" fill="#ffd88a"/><rect x="156" y="100" width="4" height="4" fill="#ffd88a"/><rect x="164" y="100" width="4" height="4" fill="#ffd88a"/><rect x="172" y="100" width="4" height="4" fill="#ffd88a"/><rect x="180" y="100" width="4" height="4" fill="#ffd88a"/><rect x="188" y="100" width="4" height="4" fill="#ffd88a"/><rect x="196" y="100" width="4" height="4" fill="#ffd88a"/><rect x="204" y="100" width="4" height="4" fill="#ffd88a"/><rect x="212" y="100" width="4" height="4" fill="#ffd88a"/><rect x="220" y="100" width="4" height="4" fill="#ffd88a"/><rect x="228" y="100" width="4" height="4" fill="#ffd88a"/><rect x="236" y="100" width="4" height="4" fill="#ffd88a"/><rect x="244" y="100" width="4" height="4" fill="#ffd88a"/><rect x="252" y="100" width="4" height="4" fill="#ffd88a"/><rect x="260" y="100" width="4" height="4" fill="#ffd88a"/><rect x="268" y="100" width="4" height="4" fill="#ffd88a"/><rect x="276" y="100" width="4" height="4" fill="#ffd88a"/><rect x="284" y="100" width="4" height="4" fill="#ffd88a"/><rect x="292" y="100" width="4" height="4" fill="#ffd88a"/><rect x="300" y="100" width="4" height="4" fill="#ffd88a"/><rect x="308" y="100" width="4" height="4" fill="#ffd88a"/><rect x="316" y="100" width="4" height="4" fill="#ffd88a"/><rect x="324" y="100" width="4" height="4" fill="#ffd88a"/><rect x="332" y="100" width="4" height="4" fill="#ffd88a"/><rect x="340" y="100" width="4" height="4" fill="#ffd88a"/><rect x="348" y="100" width="4" height="4" fill="#ffd88a"/><rect x="0" y="104" width="352" height="20" fill="#ffd88a"/><rect x="248" y="84" width="4" height="4" fill="#fff2b8"/><rect x="236" y="88" width="28" height="4" fill="#fff2b8"/><rect x="232" y="92" width="36" height="4" fill="#fff2b8"/><rect x="232" y="96" width="36" height="4" fill="#fff2b8"/><rect x="228" y="100" width="44" height="4" fill="#fff2b8"/><rect x="228" y="104" width="44" height="4" fill="#fff2b8"/><rect x="228" y="108" width="44" height="4" fill="#fff2b8"/><rect x="232" y="112" width="36" height="4" fill="#fff2b8"/><rect x="232" y="116" width="36" height="4" fill="#fff2b8"/><rect x="236" y="120" width="28" height="4" fill="#fff2b8"/><rect x="248" y="124" width="4" height="4" fill="#fff2b8"/><rect x="0" y="124" width="352" height="12" fill="#f0b07a"/><rect x="0" y="132" width="4" height="4" fill="#5f7fb8"/><rect x="8" y="132" width="4" height="4" fill="#5f7fb8"/><rect x="16" y="132" width="4" height="4" fill="#5f7fb8"/><rect x="24" y="132" width="4" height="4" fill="#5f7fb8"/><rect x="32" y="132" width="4" height="4" fill="#5f7fb8"/><rect x="40" y="132" width="4" height="4" fill="#5f7fb8"/><rect x="48" y="132" width="4" height="4" fill="#5f7fb8"/><rect x="56" y="132" width="4" height="4" fill="#5f7fb8"/><rect x="64" y="132" width="4" height="4" fill="#5f7fb8"/><rect x="72" y="132" width="4" height="4" fill="#5f7fb8"/><rect x="80" y="132" width="4" height="4" fill="#5f7fb8"/><rect x="88" y="132" width="4" height="4" fill="#5f7fb8"/><rect x="96" y="132" width="4" height="4" fill="#5f7fb8"/><rect x="104" y="132" width="4" height="4" fill="#5f7fb8"/><rect x="112" y="132" width="4" height="4" fill="#5f7fb8"/><rect x="120" y="132" width="4" height="4" fill="#5f7fb8"/><rect x="128" y="132" width="4" height="4" fill="#5f7fb8"/><rect x="136" y="132" width="4" height="4" fill="#5f7fb8"/><rect x="144" y="132" width="4" height="4" fill="#5f7fb8"/><rect x="152" y="132" width="4" height="4" fill="#5f7fb8"/><rect x="160" y="132" width="4" height="4" fill="#5f7fb8"/><rect x="168" y="132" width="4" height="4" fill="#5f7fb8"/><rect x="176" y="132" width="4" height="4" fill="#5f7fb8"/><rect x="184" y="132" width="4" height="4" fill="#5f7fb8"/><rect x="192" y="132" width="4" height="4" fill="#5f7fb8"/><rect x="200" y="132" width="4" height="4" fill="#5f7fb8"/><rect x="208" y="132" width="4" height="4" fill="#5f7fb8"/><rect x="216" y="132" width="4" height="4" fill="#5f7fb8"/><rect x="224" y="132" width="4" height="4" fill="#5f7fb8"/><rect x="232" y="132" width="4" height="4" fill="#5f7fb8"/><rect x="240" y="132" width="4" height="4" fill="#5f7fb8"/><rect x="248" y="132" width="4" height="4" fill="#5f7fb8"/><rect x="256" y="132" width="4" height="4" fill="#5f7fb8"/><rect x="264" y="132" width="4" height="4" fill="#5f7fb8"/><rect x="272" y="132" width="4" height="4" fill="#5f7fb8"/><rect x="280" y="132" width="4" height="4" fill="#5f7fb8"/><rect x="288" y="132" width="4" height="4" fill="#5f7fb8"/><rect x="296" y="132" width="4" height="4" fill="#5f7fb8"/><rect x="304" y="132" width="4" height="4" fill="#5f7fb8"/><rect x="312" y="132" width="4" height="4" fill="#5f7fb8"/><rect x="320" y="132" width="4" height="4" fill="#5f7fb8"/><rect x="328" y="132" width="4" height="4" fill="#5f7fb8"/><rect x="336" y="132" width="4" height="4" fill="#5f7fb8"/><rect x="344" y="132" width="4" height="4" fill="#5f7fb8"/><rect x="0" y="136" width="352" height="20" fill="#5f7fb8"/><rect x="4" y="152" width="4" height="4" fill="#3a64a8"/><rect x="12" y="152" width="4" height="4" fill="#3a64a8"/><rect x="20" y="152" width="4" height="4" fill="#3a64a8"/><rect x="28" y="152" width="4" height="4" fill="#3a64a8"/><rect x="36" y="152" width="4" height="4" fill="#3a64a8"/><rect x="44" y="152" width="4" height="4" fill="#3a64a8"/><rect x="52" y="152" width="4" height="4" fill="#3a64a8"/><rect x="60" y="152" width="4" height="4" fill="#3a64a8"/><rect x="68" y="152" width="4" height="4" fill="#3a64a8"/><rect x="76" y="152" width="4" height="4" fill="#3a64a8"/><rect x="84" y="152" width="4" height="4" fill="#3a64a8"/><rect x="92" y="152" width="4" height="4" fill="#3a64a8"/><rect x="100" y="152" width="4" height="4" fill="#3a64a8"/><rect x="108" y="152" width="4" height="4" fill="#3a64a8"/><rect x="116" y="152" width="4" height="4" fill="#3a64a8"/><rect x="124" y="152" width="4" height="4" fill="#3a64a8"/><rect x="132" y="152" width="4" height="4" fill="#3a64a8"/><rect x="140" y="152" width="4" height="4" fill="#3a64a8"/><rect x="148" y="152" width="4" height="4" fill="#3a64a8"/><rect x="156" y="152" width="4" height="4" fill="#3a64a8"/><rect x="164" y="152" width="4" height="4" fill="#3a64a8"/><rect x="172" y="152" width="4" height="4" fill="#3a64a8"/><rect x="180" y="152" width="4" height="4" fill="#3a64a8"/><rect x="188" y="152" width="4" height="4" fill="#3a64a8"/><rect x="196" y="152" width="4" height="4" fill="#3a64a8"/><rect x="204" y="152" width="4" height="4" fill="#3a64a8"/><rect x="212" y="152" width="4" height="4" fill="#3a64a8"/><rect x="220" y="152" width="4" height="4" fill="#3a64a8"/><rect x="228" y="152" width="4" height="4" fill="#3a64a8"/><rect x="236" y="152" width="4" height="4" fill="#3a64a8"/><rect x="244" y="152" width="4" height="4" fill="#3a64a8"/><rect x="252" y="152" width="4" height="4" fill="#3a64a8"/><rect x="260" y="152" width="4" height="4" fill="#3a64a8"/><rect x="268" y="152" width="4" height="4" fill="#3a64a8"/><rect x="276" y="152" width="4" height="4" fill="#3a64a8"/><rect x="284" y="152" width="4" height="4" fill="#3a64a8"/><rect x="292" y="152" width="4" height="4" fill="#3a64a8"/><rect x="300" y="152" width="4" height="4" fill="#3a64a8"/><rect x="308" y="152" width="4" height="4" fill="#3a64a8"/><rect x="316" y="152" width="4" height="4" fill="#3a64a8"/><rect x="324" y="152" width="4" height="4" fill="#3a64a8"/><rect x="332" y="152" width="4" height="4" fill="#3a64a8"/><rect x="340" y="152" width="4" height="4" fill="#3a64a8"/><rect x="348" y="152" width="4" height="4" fill="#3a64a8"/><rect x="0" y="156" width="352" height="28" fill="#3a64a8"/><rect x="0" y="180" width="4" height="4" fill="#2f5a9e"/><rect x="8" y="180" width="4" height="4" fill="#2f5a9e"/><rect x="16" y="180" width="4" height="4" fill="#2f5a9e"/><rect x="24" y="180" width="4" height="4" fill="#2f5a9e"/><rect x="32" y="180" width="4" height="4" fill="#2f5a9e"/><rect x="40" y="180" width="4" height="4" fill="#2f5a9e"/><rect x="48" y="180" width="4" height="4" fill="#2f5a9e"/><rect x="56" y="180" width="4" height="4" fill="#2f5a9e"/><rect x="64" y="180" width="4" height="4" fill="#2f5a9e"/><rect x="72" y="180" width="4" height="4" fill="#2f5a9e"/><rect x="80" y="180" width="4" height="4" fill="#2f5a9e"/><rect x="88" y="180" width="4" height="4" fill="#2f5a9e"/><rect x="96" y="180" width="4" height="4" fill="#2f5a9e"/><rect x="104" y="180" width="4" height="4" fill="#2f5a9e"/><rect x="112" y="180" width="4" height="4" fill="#2f5a9e"/><rect x="120" y="180" width="4" height="4" fill="#2f5a9e"/><rect x="128" y="180" width="4" height="4" fill="#2f5a9e"/><rect x="136" y="180" width="4" height="4" fill="#2f5a9e"/><rect x="144" y="180" width="4" height="4" fill="#2f5a9e"/><rect x="152" y="180" width="4" height="4" fill="#2f5a9e"/><rect x="160" y="180" width="4" height="4" fill="#2f5a9e"/><rect x="168" y="180" width="4" height="4" fill="#2f5a9e"/><rect x="176" y="180" width="4" height="4" fill="#2f5a9e"/><rect x="184" y="180" width="4" height="4" fill="#2f5a9e"/><rect x="192" y="180" width="4" height="4" fill="#2f5a9e"/><rect x="200" y="180" width="4" height="4" fill="#2f5a9e"/><rect x="208" y="180" width="4" height="4" fill="#2f5a9e"/><rect x="216" y="180" width="4" height="4" fill="#2f5a9e"/><rect x="224" y="180" width="4" height="4" fill="#2f5a9e"/><rect x="232" y="180" width="4" height="4" fill="#2f5a9e"/><rect x="240" y="180" width="4" height="4" fill="#2f5a9e"/><rect x="248" y="180" width="4" height="4" fill="#2f5a9e"/><rect x="256" y="180" width="4" height="4" fill="#2f5a9e"/><rect x="264" y="180" width="4" height="4" fill="#2f5a9e"/><rect x="272" y="180" width="4" height="4" fill="#2f5a9e"/><rect x="280" y="180" width="4" height="4" fill="#2f5a9e"/><rect x="288" y="180" width="4" height="4" fill="#2f5a9e"/><rect x="296" y="180" width="4" height="4" fill="#2f5a9e"/><rect x="304" y="180" width="4" height="4" fill="#2f5a9e"/><rect x="312" y="180" width="4" height="4" fill="#2f5a9e"/><rect x="320" y="180" width="4" height="4" fill="#2f5a9e"/><rect x="328" y="180" width="4" height="4" fill="#2f5a9e"/><rect x="336" y="180" width="4" height="4" fill="#2f5a9e"/><rect x="344" y="180" width="4" height="4" fill="#2f5a9e"/><rect x="0" y="184" width="352" height="24" fill="#2f5a9e"/><rect x="0" y="144" width="4" height="8" fill="#e9e4da"/><rect x="0" y="152" width="4" height="4" fill="#9c9890"/><rect x="0" y="156" width="4" height="48" fill="#5a5660"/><rect x="0" y="140" width="4" height="4" fill="#b8b2a8"/><rect x="4" y="144" width="4" height="8" fill="#e9e4da"/><rect x="4" y="152" width="4" height="4" fill="#9c9890"/><rect x="8" y="144" width="4" height="8" fill="#e9e4da"/><rect x="8" y="152" width="4" height="4" fill="#9c9890"/><rect x="8" y="140" width="4" height="4" fill="#b8b2a8"/><rect x="12" y="144" width="4" height="8" fill="#e9e4da"/><rect x="12" y="152" width="4" height="4" fill="#9c9890"/><rect x="16" y="144" width="4" height="8" fill="#e9e4da"/><rect x="16" y="152" width="4" height="4" fill="#9c9890"/><rect x="16" y="156" width="4" height="48" fill="#5a5660"/><rect x="16" y="140" width="4" height="4" fill="#b8b2a8"/><rect x="20" y="144" width="4" height="8" fill="#e9e4da"/><rect x="20" y="152" width="4" height="4" fill="#9c9890"/><rect x="24" y="144" width="4" height="8" fill="#e9e4da"/><rect x="24" y="152" width="4" height="4" fill="#9c9890"/><rect x="24" y="140" width="4" height="4" fill="#b8b2a8"/><rect x="28" y="144" width="4" height="8" fill="#e9e4da"/><rect x="28" y="152" width="4" height="4" fill="#9c9890"/><rect x="32" y="144" width="4" height="8" fill="#e9e4da"/><rect x="32" y="152" width="4" height="4" fill="#9c9890"/><rect x="32" y="156" width="4" height="44" fill="#5a5660"/><rect x="32" y="140" width="4" height="4" fill="#b8b2a8"/><rect x="36" y="144" width="4" height="8" fill="#e9e4da"/><rect x="36" y="152" width="4" height="4" fill="#9c9890"/><rect x="40" y="144" width="4" height="8" fill="#e9e4da"/><rect x="40" y="152" width="4" height="4" fill="#9c9890"/><rect x="40" y="140" width="4" height="4" fill="#b8b2a8"/><rect x="44" y="144" width="4" height="8" fill="#e9e4da"/><rect x="44" y="152" width="4" height="4" fill="#9c9890"/><rect x="48" y="144" width="4" height="8" fill="#e9e4da"/><rect x="48" y="152" width="4" height="4" fill="#9c9890"/><rect x="48" y="156" width="4" height="44" fill="#5a5660"/><rect x="48" y="140" width="4" height="4" fill="#b8b2a8"/><rect x="52" y="144" width="4" height="8" fill="#e9e4da"/><rect x="52" y="152" width="4" height="4" fill="#9c9890"/><rect x="56" y="144" width="4" height="8" fill="#e9e4da"/><rect x="56" y="152" width="4" height="4" fill="#9c9890"/><rect x="56" y="140" width="4" height="4" fill="#b8b2a8"/><rect x="60" y="144" width="4" height="8" fill="#e9e4da"/><rect x="60" y="152" width="4" height="4" fill="#9c9890"/><rect x="64" y="144" width="4" height="8" fill="#e9e4da"/><rect x="64" y="152" width="4" height="4" fill="#9c9890"/><rect x="64" y="156" width="4" height="40" fill="#5a5660"/><rect x="64" y="140" width="4" height="4" fill="#b8b2a8"/><rect x="68" y="144" width="4" height="8" fill="#e9e4da"/><rect x="68" y="152" width="4" height="4" fill="#9c9890"/><rect x="72" y="140" width="4" height="8" fill="#e9e4da"/><rect x="72" y="148" width="4" height="4" fill="#9c9890"/><rect x="72" y="136" width="4" height="4" fill="#b8b2a8"/><rect x="76" y="140" width="4" height="8" fill="#e9e4da"/><rect x="76" y="148" width="4" height="4" fill="#9c9890"/><rect x="80" y="140" width="4" height="8" fill="#e9e4da"/><rect x="80" y="148" width="4" height="4" fill="#9c9890"/><rect x="80" y="152" width="4" height="40" fill="#5a5660"/><rect x="80" y="136" width="4" height="4" fill="#b8b2a8"/><rect x="84" y="140" width="4" height="8" fill="#e9e4da"/><rect x="84" y="148" width="4" height="4" fill="#9c9890"/><rect x="88" y="140" width="4" height="8" fill="#e9e4da"/><rect x="88" y="148" width="4" height="4" fill="#9c9890"/><rect x="88" y="136" width="4" height="4" fill="#b8b2a8"/><rect x="92" y="140" width="4" height="8" fill="#e9e4da"/><rect x="92" y="148" width="4" height="4" fill="#9c9890"/><rect x="96" y="140" width="4" height="8" fill="#e9e4da"/><rect x="96" y="148" width="4" height="4" fill="#9c9890"/><rect x="96" y="152" width="4" height="36" fill="#5a5660"/><rect x="96" y="136" width="4" height="4" fill="#b8b2a8"/><rect x="100" y="140" width="4" height="8" fill="#e9e4da"/><rect x="100" y="148" width="4" height="4" fill="#9c9890"/><rect x="104" y="140" width="4" height="8" fill="#e9e4da"/><rect x="104" y="148" width="4" height="4" fill="#9c9890"/><rect x="104" y="136" width="4" height="4" fill="#b8b2a8"/><rect x="108" y="140" width="4" height="8" fill="#e9e4da"/><rect x="108" y="148" width="4" height="4" fill="#9c9890"/><rect x="112" y="140" width="4" height="8" fill="#e9e4da"/><rect x="112" y="148" width="4" height="4" fill="#9c9890"/><rect x="112" y="152" width="4" height="36" fill="#5a5660"/><rect x="112" y="136" width="4" height="4" fill="#b8b2a8"/><rect x="116" y="140" width="4" height="8" fill="#e9e4da"/><rect x="116" y="148" width="4" height="4" fill="#9c9890"/><rect x="120" y="140" width="4" height="8" fill="#e9e4da"/><rect x="120" y="148" width="4" height="4" fill="#9c9890"/><rect x="120" y="136" width="4" height="4" fill="#b8b2a8"/><rect x="124" y="140" width="4" height="8" fill="#e9e4da"/><rect x="124" y="148" width="4" height="4" fill="#9c9890"/><rect x="128" y="140" width="4" height="8" fill="#e9e4da"/><rect x="128" y="148" width="4" height="4" fill="#9c9890"/><rect x="128" y="152" width="4" height="32" fill="#5a5660"/><rect x="128" y="136" width="4" height="4" fill="#b8b2a8"/><rect x="132" y="140" width="4" height="8" fill="#e9e4da"/><rect x="132" y="148" width="4" height="4" fill="#9c9890"/><rect x="136" y="140" width="4" height="8" fill="#e9e4da"/><rect x="136" y="148" width="4" height="4" fill="#9c9890"/><rect x="136" y="136" width="4" height="4" fill="#b8b2a8"/><rect x="140" y="140" width="4" height="8" fill="#e9e4da"/><rect x="140" y="148" width="4" height="4" fill="#9c9890"/><rect x="144" y="136" width="4" height="8" fill="#e9e4da"/><rect x="144" y="144" width="4" height="4" fill="#9c9890"/><rect x="144" y="148" width="4" height="32" fill="#5a5660"/><rect x="144" y="132" width="4" height="4" fill="#b8b2a8"/><rect x="148" y="136" width="4" height="8" fill="#e9e4da"/><rect x="148" y="144" width="4" height="4" fill="#9c9890"/><rect x="152" y="136" width="4" height="8" fill="#e9e4da"/><rect x="152" y="144" width="4" height="4" fill="#9c9890"/><rect x="152" y="132" width="4" height="4" fill="#b8b2a8"/><rect x="156" y="136" width="4" height="8" fill="#e9e4da"/><rect x="156" y="144" width="4" height="4" fill="#9c9890"/><rect x="160" y="136" width="4" height="8" fill="#e9e4da"/><rect x="160" y="144" width="4" height="4" fill="#9c9890"/><rect x="160" y="148" width="4" height="28" fill="#5a5660"/><rect x="160" y="132" width="4" height="4" fill="#b8b2a8"/><rect x="164" y="136" width="4" height="8" fill="#e9e4da"/><rect x="164" y="144" width="4" height="4" fill="#9c9890"/><rect x="168" y="136" width="4" height="8" fill="#e9e4da"/><rect x="168" y="144" width="4" height="4" fill="#9c9890"/><rect x="168" y="132" width="4" height="4" fill="#b8b2a8"/><rect x="172" y="136" width="4" height="8" fill="#e9e4da"/><rect x="172" y="144" width="4" height="4" fill="#9c9890"/><rect x="176" y="136" width="4" height="8" fill="#e9e4da"/><rect x="176" y="144" width="4" height="4" fill="#9c9890"/><rect x="176" y="148" width="4" height="28" fill="#5a5660"/><rect x="176" y="132" width="4" height="4" fill="#b8b2a8"/><rect x="180" y="136" width="4" height="8" fill="#e9e4da"/><rect x="180" y="144" width="4" height="4" fill="#9c9890"/><rect x="184" y="136" width="4" height="8" fill="#e9e4da"/><rect x="184" y="144" width="4" height="4" fill="#9c9890"/><rect x="184" y="132" width="4" height="4" fill="#b8b2a8"/><rect x="188" y="136" width="4" height="8" fill="#e9e4da"/><rect x="188" y="144" width="4" height="4" fill="#9c9890"/><rect x="192" y="136" width="4" height="8" fill="#e9e4da"/><rect x="192" y="144" width="4" height="4" fill="#9c9890"/><rect x="192" y="148" width="4" height="24" fill="#5a5660"/><rect x="192" y="132" width="4" height="4" fill="#b8b2a8"/><rect x="196" y="136" width="4" height="8" fill="#e9e4da"/><rect x="196" y="144" width="4" height="4" fill="#9c9890"/><rect x="200" y="136" width="4" height="8" fill="#e9e4da"/><rect x="200" y="144" width="4" height="4" fill="#9c9890"/><rect x="200" y="132" width="4" height="4" fill="#b8b2a8"/><rect x="204" y="136" width="4" height="8" fill="#e9e4da"/><rect x="204" y="144" width="4" height="4" fill="#9c9890"/><rect x="208" y="136" width="4" height="8" fill="#e9e4da"/><rect x="208" y="144" width="4" height="4" fill="#9c9890"/><rect x="208" y="148" width="4" height="24" fill="#5a5660"/><rect x="208" y="132" width="4" height="4" fill="#b8b2a8"/><rect x="212" y="136" width="4" height="8" fill="#e9e4da"/><rect x="212" y="144" width="4" height="4" fill="#9c9890"/><rect x="216" y="132" width="4" height="8" fill="#e9e4da"/><rect x="216" y="140" width="4" height="4" fill="#9c9890"/><rect x="216" y="128" width="4" height="4" fill="#b8b2a8"/><rect x="220" y="132" width="4" height="8" fill="#e9e4da"/><rect x="220" y="140" width="4" height="4" fill="#9c9890"/><rect x="224" y="132" width="4" height="8" fill="#e9e4da"/><rect x="224" y="140" width="4" height="4" fill="#9c9890"/><rect x="224" y="144" width="4" height="20" fill="#5a5660"/><rect x="224" y="128" width="4" height="4" fill="#b8b2a8"/><rect x="228" y="132" width="4" height="8" fill="#e9e4da"/><rect x="228" y="140" width="4" height="4" fill="#9c9890"/><rect x="232" y="132" width="4" height="8" fill="#e9e4da"/><rect x="232" y="140" width="4" height="4" fill="#9c9890"/><rect x="232" y="128" width="4" height="4" fill="#b8b2a8"/><rect x="236" y="132" width="4" height="8" fill="#e9e4da"/><rect x="236" y="140" width="4" height="4" fill="#9c9890"/><rect x="240" y="132" width="4" height="8" fill="#e9e4da"/><rect x="240" y="140" width="4" height="4" fill="#9c9890"/><rect x="240" y="144" width="4" height="20" fill="#5a5660"/><rect x="240" y="128" width="4" height="4" fill="#b8b2a8"/><rect x="244" y="132" width="4" height="8" fill="#e9e4da"/><rect x="244" y="140" width="4" height="4" fill="#9c9890"/><rect x="248" y="132" width="4" height="8" fill="#e9e4da"/><rect x="248" y="140" width="4" height="4" fill="#9c9890"/><rect x="248" y="128" width="4" height="4" fill="#b8b2a8"/><rect x="252" y="132" width="4" height="8" fill="#e9e4da"/><rect x="252" y="140" width="4" height="4" fill="#9c9890"/><rect x="256" y="132" width="4" height="8" fill="#e9e4da"/><rect x="256" y="140" width="4" height="4" fill="#9c9890"/><rect x="256" y="144" width="4" height="16" fill="#5a5660"/><rect x="256" y="128" width="4" height="4" fill="#b8b2a8"/><rect x="260" y="132" width="4" height="8" fill="#e9e4da"/><rect x="260" y="140" width="4" height="4" fill="#9c9890"/><rect x="264" y="132" width="4" height="8" fill="#e9e4da"/><rect x="264" y="140" width="4" height="4" fill="#9c9890"/><rect x="264" y="128" width="4" height="4" fill="#b8b2a8"/><rect x="268" y="132" width="4" height="8" fill="#e9e4da"/><rect x="268" y="140" width="4" height="4" fill="#9c9890"/><rect x="272" y="132" width="4" height="8" fill="#e9e4da"/><rect x="272" y="140" width="4" height="4" fill="#9c9890"/><rect x="272" y="144" width="4" height="16" fill="#5a5660"/><rect x="272" y="128" width="4" height="4" fill="#b8b2a8"/><rect x="276" y="132" width="4" height="8" fill="#e9e4da"/><rect x="276" y="140" width="4" height="4" fill="#9c9890"/><rect x="280" y="132" width="4" height="8" fill="#e9e4da"/><rect x="280" y="140" width="4" height="4" fill="#9c9890"/><rect x="280" y="128" width="4" height="4" fill="#b8b2a8"/><rect x="284" y="132" width="4" height="8" fill="#e9e4da"/><rect x="284" y="140" width="4" height="4" fill="#9c9890"/><rect x="288" y="128" width="4" height="8" fill="#e9e4da"/><rect x="288" y="136" width="4" height="4" fill="#9c9890"/><rect x="288" y="140" width="4" height="12" fill="#5a5660"/><rect x="288" y="124" width="4" height="4" fill="#b8b2a8"/><rect x="292" y="128" width="4" height="8" fill="#e9e4da"/><rect x="292" y="136" width="4" height="4" fill="#9c9890"/><rect x="296" y="128" width="4" height="8" fill="#e9e4da"/><rect x="296" y="136" width="4" height="4" fill="#9c9890"/><rect x="296" y="124" width="4" height="4" fill="#b8b2a8"/><rect x="300" y="128" width="4" height="8" fill="#e9e4da"/><rect x="300" y="136" width="4" height="4" fill="#9c9890"/><rect x="304" y="128" width="4" height="8" fill="#e9e4da"/><rect x="304" y="136" width="4" height="4" fill="#9c9890"/><rect x="304" y="140" width="4" height="12" fill="#5a5660"/><rect x="304" y="124" width="4" height="4" fill="#b8b2a8"/><rect x="308" y="128" width="4" height="8" fill="#e9e4da"/><rect x="308" y="136" width="4" height="4" fill="#9c9890"/><rect x="312" y="128" width="4" height="8" fill="#e9e4da"/><rect x="312" y="136" width="4" height="4" fill="#9c9890"/><rect x="312" y="124" width="4" height="4" fill="#b8b2a8"/><rect x="316" y="128" width="4" height="8" fill="#e9e4da"/><rect x="316" y="136" width="4" height="4" fill="#9c9890"/><rect x="272" y="104" width="48" height="24" fill="#f1ece2"/><rect x="272" y="104" width="48" height="4" fill="#c8452e"/><rect x="280" y="112" width="8" height="8" fill="#3a5586"/><rect x="300" y="112" width="8" height="8" fill="#3a5586"/><rect x="324" y="80" width="4" height="48" fill="#e9c23a"/><rect x="312" y="80" width="24" height="4" fill="#e9c23a"/><rect x="312" y="84" width="4" height="16" fill="#7a7a80"/><rect x="0" y="208" width="352" height="48" fill="#e6cf9a"/><rect x="292" y="236" width="4" height="4" fill="#d4ba84"/><rect x="164" y="252" width="4" height="4" fill="#d4ba84"/><rect x="28" y="220" width="4" height="4" fill="#d4ba84"/><rect x="124" y="236" width="4" height="4" fill="#d4ba84"/><rect x="64" y="244" width="4" height="4" fill="#d4ba84"/><rect x="72" y="232" width="4" height="4" fill="#d4ba84"/><rect x="40" y="240" width="4" height="4" fill="#d4ba84"/><rect x="20" y="252" width="4" height="4" fill="#d4ba84"/><rect x="252" y="232" width="4" height="4" fill="#d4ba84"/><rect x="308" y="248" width="4" height="4" fill="#d4ba84"/><rect x="236" y="228" width="4" height="4" fill="#d4ba84"/><rect x="48" y="216" width="4" height="4" fill="#d4ba84"/><rect x="76" y="252" width="4" height="4" fill="#d4ba84"/><rect x="108" y="244" width="4" height="4" fill="#d4ba84"/><rect x="256" y="240" width="4" height="4" fill="#d4ba84"/><rect x="332" y="228" width="4" height="4" fill="#d4ba84"/><rect x="316" y="236" width="4" height="4" fill="#d4ba84"/><rect x="284" y="240" width="4" height="4" fill="#d4ba84"/><rect x="80" y="228" width="4" height="4" fill="#d4ba84"/><rect x="152" y="224" width="4" height="4" fill="#d4ba84"/><rect x="244" y="244" width="4" height="4" fill="#d4ba84"/><rect x="176" y="228" width="4" height="4" fill="#d4ba84"/><rect x="60" y="224" width="4" height="4" fill="#d4ba84"/><rect x="348" y="248" width="4" height="4" fill="#d4ba84"/><rect x="104" y="220" width="4" height="4" fill="#d4ba84"/><rect x="288" y="216" width="4" height="4" fill="#d4ba84"/><rect x="36" y="232" width="4" height="4" fill="#d4ba84"/><rect x="156" y="244" width="4" height="4" fill="#d4ba84"/><rect x="76" y="244" width="4" height="4" fill="#d4ba84"/><rect x="120" y="224" width="4" height="4" fill="#d4ba84"/><rect x="344" y="240" width="4" height="4" fill="#d4ba84"/><rect x="220" y="232" width="4" height="4" fill="#d4ba84"/><rect x="288" y="220" width="4" height="4" fill="#d4ba84"/><rect x="204" y="224" width="4" height="4" fill="#d4ba84"/><rect x="80" y="244" width="4" height="4" fill="#d4ba84"/><rect x="300" y="224" width="4" height="4" fill="#d4ba84"/><rect x="120" y="244" width="4" height="4" fill="#d4ba84"/><rect x="80" y="232" width="4" height="4" fill="#d4ba84"/><rect x="324" y="252" width="4" height="4" fill="#d4ba84"/><rect x="280" y="236" width="4" height="4" fill="#d4ba84"/><rect x="0" y="200" width="352" height="8" fill="#f4f1ea"/><rect x="96" y="232" width="24" height="8" fill="#e05a4a"/><rect x="100" y="228" width="8" height="4" fill="#e0aa80"/><g class="glint"><rect x="232" y="128" width="36" height="4" fill="#ffe09a"/><rect x="228" y="136" width="32" height="4" fill="#ffe09a"/><rect x="228" y="144" width="32" height="4" fill="#ffe09a"/><rect x="224" y="152" width="28" height="4" fill="#ffe09a"/><rect x="220" y="160" width="24" height="4" fill="#ffe09a"/><rect x="220" y="168" width="24" height="4" fill="#ffe09a"/><rect x="216" y="176" width="20" height="4" fill="#ffe09a"/><rect x="328" y="168" width="8" height="4" fill="#cfe4ff"/><rect x="36" y="184" width="4" height="4" fill="#cfe4ff"/><rect x="12" y="184" width="12" height="4" fill="#cfe4ff"/><rect x="192" y="172" width="4" height="4" fill="#cfe4ff"/><rect x="60" y="144" width="8" height="4" fill="#cfe4ff"/><rect x="60" y="152" width="12" height="4" fill="#cfe4ff"/><rect x="8" y="156" width="8" height="4" fill="#cfe4ff"/><rect x="260" y="156" width="12" height="4" fill="#cfe4ff"/><rect x="252" y="176" width="4" height="4" fill="#cfe4ff"/><rect x="276" y="152" width="8" height="4" fill="#cfe4ff"/><rect x="292" y="184" width="8" height="4" fill="#cfe4ff"/><rect x="152" y="184" width="8" height="4" fill="#cfe4ff"/><rect x="128" y="148" width="4" height="4" fill="#cfe4ff"/><rect x="240" y="140" width="8" height="4" fill="#cfe4ff"/></g><g class="waves"><rect x="0" y="192" width="12" height="4" fill="#ffffff"/><rect x="24" y="192" width="12" height="4" fill="#ffffff"/><rect x="48" y="192" width="12" height="4" fill="#ffffff"/><rect x="72" y="192" width="12" height="4" fill="#ffffff"/><rect x="96" y="192" width="12" height="4" fill="#ffffff"/><rect x="120" y="192" width="12" height="4" fill="#ffffff"/><rect x="144" y="192" width="12" height="4" fill="#ffffff"/><rect x="168" y="192" width="12" height="4" fill="#ffffff"/><rect x="192" y="192" width="12" height="4" fill="#ffffff"/><rect x="216" y="192" width="12" height="4" fill="#ffffff"/><rect x="240" y="192" width="12" height="4" fill="#ffffff"/><rect x="264" y="192" width="12" height="4" fill="#ffffff"/><rect x="288" y="192" width="12" height="4" fill="#ffffff"/><rect x="312" y="192" width="12" height="4" fill="#ffffff"/><rect x="336" y="192" width="12" height="4" fill="#ffffff"/><rect x="0" y="180" width="12" height="4" fill="#d8e8ff"/><rect x="24" y="180" width="12" height="4" fill="#d8e8ff"/><rect x="48" y="180" width="12" height="4" fill="#d8e8ff"/><rect x="72" y="180" width="12" height="4" fill="#d8e8ff"/><rect x="96" y="180" width="12" height="4" fill="#d8e8ff"/><rect x="120" y="180" width="12" height="4" fill="#d8e8ff"/><rect x="144" y="180" width="12" height="4" fill="#d8e8ff"/><rect x="168" y="180" width="12" height="4" fill="#d8e8ff"/><rect x="192" y="180" width="12" height="4" fill="#d8e8ff"/><rect x="216" y="180" width="12" height="4" fill="#d8e8ff"/><rect x="240" y="180" width="12" height="4" fill="#d8e8ff"/><rect x="264" y="180" width="12" height="4" fill="#d8e8ff"/><rect x="288" y="180" width="12" height="4" fill="#d8e8ff"/><rect x="312" y="180" width="12" height="4" fill="#d8e8ff"/><rect x="336" y="180" width="12" height="4" fill="#d8e8ff"/></g><g class="drift"><rect x="80" y="56" width="16" height="4" fill="#6a5a4a"/><rect x="72" y="52" width="8" height="4" fill="#6a5a4a"/><rect x="96" y="52" width="8" height="4" fill="#6a5a4a"/><rect x="84" y="52" width="8" height="4" fill="#8a7a66"/><rect x="92" y="60" width="4" height="4" fill="#d9a24a"/><rect x="120" y="44" width="16" height="4" fill="#6a5a4a"/><rect x="112" y="40" width="8" height="4" fill="#6a5a4a"/><rect x="136" y="40" width="8" height="4" fill="#6a5a4a"/><rect x="124" y="40" width="8" height="4" fill="#8a7a66"/><rect x="132" y="48" width="4" height="4" fill="#d9a24a"/><rect x="160" y="60" width="16" height="4" fill="#6a5a4a"/><rect x="152" y="56" width="8" height="4" fill="#6a5a4a"/><rect x="176" y="56" width="8" height="4" fill="#6a5a4a"/><rect x="164" y="56" width="8" height="4" fill="#8a7a66"/><rect x="172" y="64" width="4" height="4" fill="#d9a24a"/></g><g class="ride"><rect x="64" y="212" width="8" height="8" fill="#e0aa80"/><rect x="64" y="220" width="8" height="12" fill="#3f6fd1"/><rect x="64" y="232" width="4" height="4" fill="#1d1d2b"/><rect x="68" y="232" width="4" height="4" fill="#1d1d2b"/></g><rect class="foil" x="0" y="0" width="352" height="256" fill="url(#sheen)"/></g>
<rect x="21" y="340" width="358" height="26" fill="#8e3fd0" stroke="#12121c" stroke-width="3"/>
<rect x="33" y="347" width="6" height="3" fill="#fff"/><rect x="30" y="350" width="12" height="3" fill="#fff"/><rect x="33" y="353" width="6" height="3" fill="#fff"/><rect x="33" y="356" width="6" height="3" fill="#fff"/>
<text x="48" y="358" font-family="ui-monospace, 'SF Mono', Menlo, 'DejaVu Sans Mono', monospace" font-size="12" font-weight="700" fill="#ffffff" letter-spacing="2">RARE</text>
<text x="370" y="358" font-family="ui-monospace, 'SF Mono', Menlo, 'DejaVu Sans Mono', monospace" font-size="11" font-weight="700" fill="#ffffff" text-anchor="end">LA JOLLA</text>
<text x="24" y="392" font-family="ui-monospace, 'SF Mono', Menlo, 'DejaVu Sans Mono', monospace" font-size="13" fill="#2a2a36">A long research pier walking straight out</text>
<text x="24" y="410" font-family="ui-monospace, 'SF Mono', Menlo, 'DejaVu Sans Mono', monospace" font-size="13" fill="#2a2a36">into the Pacific. The pelicans treat it as</text>
<text x="24" y="428" font-family="ui-monospace, 'SF Mono', Menlo, 'DejaVu Sans Mono', monospace" font-size="13" fill="#2a2a36">theirs.</text>
<rect x="24" y="456" width="113.33333333333333" height="40" fill="#ffffff" stroke="#12121c" stroke-width="2"/><rect x="27" y="459" width="107.33333333333333" height="12" fill="#8e3fd0"/><text x="32" y="468" font-family="ui-monospace, 'SF Mono', Menlo, 'DejaVu Sans Mono', monospace" font-size="8" font-weight="700" fill="#ffffff" letter-spacing="1.5">EDITION</text><text x="32" y="488" font-family="ui-monospace, 'SF Mono', Menlo, 'DejaVu Sans Mono', monospace" font-size="13" font-weight="700" fill="#12121c">25 MAX</text><rect x="143.33333333333331" y="456" width="113.33333333333333" height="40" fill="#ffffff" stroke="#12121c" stroke-width="2"/><rect x="146.33333333333331" y="459" width="107.33333333333333" height="12" fill="#12121c"/><text x="151.33333333333331" y="468" font-family="ui-monospace, 'SF Mono', Menlo, 'DejaVu Sans Mono', monospace" font-size="8" font-weight="700" fill="#ffffff" letter-spacing="1.5">MINT</text><text x="151.33333333333331" y="488" font-family="ui-monospace, 'SF Mono', Menlo, 'DejaVu Sans Mono', monospace" font-size="13" font-weight="700" fill="#12121c">3 TEZ</text><rect x="262.66666666666663" y="456" width="113.33333333333333" height="40" fill="#ffffff" stroke="#12121c" stroke-width="2"/><rect x="265.66666666666663" y="459" width="107.33333333333333" height="12" fill="#12121c"/><text x="270.66666666666663" y="468" font-family="ui-monospace, 'SF Mono', Menlo, 'DejaVu Sans Mono', monospace" font-size="8" font-weight="700" fill="#ffffff" letter-spacing="1.5">CARD</text><text x="270.66666666666663" y="488" font-family="ui-monospace, 'SF Mono', Menlo, 'DejaVu Sans Mono', monospace" font-size="13" font-weight="700" fill="#12121c">02/12</text>
<line x1="24" y1="510" x2="376" y2="510" stroke="#12121c" stroke-width="2" stroke-dasharray="4 4"/>
<text x="24" y="528" font-family="ui-monospace, 'SF Mono', Menlo, 'DejaVu Sans Mono', monospace" font-size="9" font-weight="700" fill="#5a5a66" letter-spacing="1">UNOFFICIAL · PLACES ONLY · CC0 · POINTCAST.XYZ</text>
<text x="376" y="528" font-family="ui-monospace, 'SF Mono', Menlo, 'DejaVu Sans Mono', monospace" font-size="9" font-weight="700" fill="#5a5a66" text-anchor="end">TEZOS</text>
</svg>
