<svg xmlns="http://www.w3.org/2000/svg" viewBox="0 0 400 560" width="400" height="560" shape-rendering="crispEdges" role="img" aria-labelledby="t d">
<title id="t">Campus Cards · Set 08 · San Diego · 11/12 Library Walk (Common)</title>
<desc id="d">The long walk up the middle of campus, club tables on both sides, the library at the end. Unofficial. An independent PointCast art project about places. Not affiliated with, sponsored by, or endorsed by the University of California or any campus. No university logos, seals, mascots, or marks are used.</desc>
<style>
.glint{animation:blink 2.4s steps(2) infinite}
.twinkle{animation:blink 3.1s steps(2) infinite .7s}
.waves{animation:slide 3s steps(3) infinite}
.drift{animation:drift 14s linear infinite alternate}
.drift2{animation:drift 19s linear infinite alternate-reverse}
.bob{animation:bob 2.2s steps(2) infinite}
.sway{animation:sway 2.8s steps(2) infinite}
.peck{animation:bob 1.7s steps(2) infinite}
.ride{animation:ride 6s steps(24) infinite}
.ride2{animation:ride 7.5s steps(30) infinite reverse}
.spin{transform-box:fill-box;transform-origin:center;animation:spin 9s steps(36) infinite}
.glow{animation:glow 4s ease-in-out infinite}
.ring{animation:ring 3.2s steps(2) infinite}
.bell{animation:blink 1.6s steps(2) infinite}
.alpen{animation:glow 6s ease-in-out infinite}
.foil{animation:foil 5s linear infinite}
@keyframes blink{50%{opacity:.25}}
@keyframes slide{to{transform:translateX(8px)}}
@keyframes drift{to{transform:translateX(24px)}}
@keyframes bob{50%{transform:translateY(4px)}}
@keyframes sway{50%{transform:translateX(4px)}}
@keyframes ride{from{transform:translateX(-160px)}to{transform:translateX(160px)}}
@keyframes spin{to{transform:rotate(-360deg)}}
@keyframes glow{50%{opacity:.6}}
@keyframes ring{0%,100%{opacity:0}50%{opacity:.9}}
@keyframes foil{from{transform:translateX(-360px)}to{transform:translateX(360px)}}
</style>
<defs>
<clipPath id="art"><rect x="0" y="0" width="352" height="256"/></clipPath>
<linearGradient id="sheen" x1="0" y1="0" x2="1" y2="1"><stop offset="0" stop-color="#fff" stop-opacity="0"/><stop offset=".45" stop-color="#fff" stop-opacity="0"/><stop offset=".5" stop-color="#fff" stop-opacity=".55"/><stop offset=".55" stop-color="#fff" stop-opacity="0"/><stop offset="1" stop-color="#fff" stop-opacity="0"/></linearGradient>
<pattern id="dots" width="8" height="8" patternUnits="userSpaceOnUse"><rect width="8" height="8" fill="#3a7d44"/><rect x="0" y="0" width="2" height="2" fill="#000" fill-opacity=".18"/></pattern>
</defs>
<rect width="400" height="560" fill="#12121c"/>
<rect x="6" y="6" width="388" height="548" fill="url(#dots)"/>
<rect x="14" y="14" width="372" height="532" fill="#f7f1e1" stroke="#12121c" stroke-width="3"/>
<rect x="14" y="14" width="372" height="44" fill="#0f7fb8" stroke="#12121c" stroke-width="3"/>
<text x="26" y="34" font-family="ui-monospace, 'SF Mono', Menlo, 'DejaVu Sans Mono', monospace" font-size="10" font-weight="700" fill="#ffffff" letter-spacing="1.5">CAMPUS CARDS · SET 08 · SAN DIEGO</text>
<text x="26" y="51" font-family="ui-monospace, 'SF Mono', Menlo, 'DejaVu Sans Mono', monospace" font-size="17" font-weight="700" fill="#ffffff">Library Walk</text>
<text x="374" y="51" font-family="ui-monospace, 'SF Mono', Menlo, 'DejaVu Sans Mono', monospace" font-size="14" font-weight="700" fill="#ffffff" text-anchor="end">11/12</text>
<rect x="21" y="73" width="358" height="262" fill="#12121c"/>
<g transform="translate(24 76)" clip-path="url(#art)"><rect x="0" y="0" width="352" height="32" fill="#5ab4f0"/><rect x="0" y="28" width="4" height="4" fill="#8ccaf4"/><rect x="8" y="28" width="4" height="4" fill="#8ccaf4"/><rect x="16" y="28" width="4" height="4" fill="#8ccaf4"/><rect x="24" y="28" width="4" height="4" fill="#8ccaf4"/><rect x="32" y="28" width="4" height="4" fill="#8ccaf4"/><rect x="40" y="28" width="4" height="4" fill="#8ccaf4"/><rect x="48" y="28" width="4" height="4" fill="#8ccaf4"/><rect x="56" y="28" width="4" height="4" fill="#8ccaf4"/><rect x="64" y="28" width="4" height="4" fill="#8ccaf4"/><rect x="72" y="28" width="4" height="4" fill="#8ccaf4"/><rect x="80" y="28" width="4" height="4" fill="#8ccaf4"/><rect x="88" y="28" width="4" height="4" fill="#8ccaf4"/><rect x="96" y="28" width="4" height="4" fill="#8ccaf4"/><rect x="104" y="28" width="4" height="4" fill="#8ccaf4"/><rect x="112" y="28" width="4" height="4" fill="#8ccaf4"/><rect x="120" y="28" width="4" height="4" fill="#8ccaf4"/><rect x="128" y="28" width="4" height="4" fill="#8ccaf4"/><rect x="136" y="28" width="4" height="4" fill="#8ccaf4"/><rect x="144" y="28" width="4" height="4" fill="#8ccaf4"/><rect x="152" y="28" width="4" height="4" fill="#8ccaf4"/><rect x="160" y="28" width="4" height="4" fill="#8ccaf4"/><rect x="168" y="28" width="4" height="4" fill="#8ccaf4"/><rect x="176" y="28" width="4" height="4" fill="#8ccaf4"/><rect x="184" y="28" width="4" height="4" fill="#8ccaf4"/><rect x="192" y="28" width="4" height="4" fill="#8ccaf4"/><rect x="200" y="28" width="4" height="4" fill="#8ccaf4"/><rect x="208" y="28" width="4" height="4" fill="#8ccaf4"/><rect x="216" y="28" width="4" height="4" fill="#8ccaf4"/><rect x="224" y="28" width="4" height="4" fill="#8ccaf4"/><rect x="232" y="28" width="4" height="4" fill="#8ccaf4"/><rect x="240" y="28" width="4" height="4" fill="#8ccaf4"/><rect x="248" y="28" width="4" height="4" fill="#8ccaf4"/><rect x="256" y="28" width="4" height="4" fill="#8ccaf4"/><rect x="264" y="28" width="4" height="4" fill="#8ccaf4"/><rect x="272" y="28" width="4" height="4" fill="#8ccaf4"/><rect x="280" y="28" width="4" height="4" fill="#8ccaf4"/><rect x="288" y="28" width="4" height="4" fill="#8ccaf4"/><rect x="296" y="28" width="4" height="4" fill="#8ccaf4"/><rect x="304" y="28" width="4" height="4" fill="#8ccaf4"/><rect x="312" y="28" width="4" height="4" fill="#8ccaf4"/><rect x="320" y="28" width="4" height="4" fill="#8ccaf4"/><rect x="328" y="28" width="4" height="4" fill="#8ccaf4"/><rect x="336" y="28" width="4" height="4" fill="#8ccaf4"/><rect x="344" y="28" width="4" height="4" fill="#8ccaf4"/><rect x="0" y="32" width="352" height="24" fill="#8ccaf4"/><rect x="4" y="52" width="4" height="4" fill="#bfe4fa"/><rect x="12" y="52" width="4" height="4" fill="#bfe4fa"/><rect x="20" y="52" width="4" height="4" fill="#bfe4fa"/><rect x="28" y="52" width="4" height="4" fill="#bfe4fa"/><rect x="36" y="52" width="4" height="4" fill="#bfe4fa"/><rect x="44" y="52" width="4" height="4" fill="#bfe4fa"/><rect x="52" y="52" width="4" height="4" fill="#bfe4fa"/><rect x="60" y="52" width="4" height="4" fill="#bfe4fa"/><rect x="68" y="52" width="4" height="4" fill="#bfe4fa"/><rect x="76" y="52" width="4" height="4" fill="#bfe4fa"/><rect x="84" y="52" width="4" height="4" fill="#bfe4fa"/><rect x="92" y="52" width="4" height="4" fill="#bfe4fa"/><rect x="100" y="52" width="4" height="4" fill="#bfe4fa"/><rect x="108" y="52" width="4" height="4" fill="#bfe4fa"/><rect x="116" y="52" width="4" height="4" fill="#bfe4fa"/><rect x="124" y="52" width="4" height="4" fill="#bfe4fa"/><rect x="132" y="52" width="4" height="4" fill="#bfe4fa"/><rect x="140" y="52" width="4" height="4" fill="#bfe4fa"/><rect x="148" y="52" width="4" height="4" fill="#bfe4fa"/><rect x="156" y="52" width="4" height="4" fill="#bfe4fa"/><rect x="164" y="52" width="4" height="4" fill="#bfe4fa"/><rect x="172" y="52" width="4" height="4" fill="#bfe4fa"/><rect x="180" y="52" width="4" height="4" fill="#bfe4fa"/><rect x="188" y="52" width="4" height="4" fill="#bfe4fa"/><rect x="196" y="52" width="4" height="4" fill="#bfe4fa"/><rect x="204" y="52" width="4" height="4" fill="#bfe4fa"/><rect x="212" y="52" width="4" height="4" fill="#bfe4fa"/><rect x="220" y="52" width="4" height="4" fill="#bfe4fa"/><rect x="228" y="52" width="4" height="4" fill="#bfe4fa"/><rect x="236" y="52" width="4" height="4" fill="#bfe4fa"/><rect x="244" y="52" width="4" height="4" fill="#bfe4fa"/><rect x="252" y="52" width="4" height="4" fill="#bfe4fa"/><rect x="260" y="52" width="4" height="4" fill="#bfe4fa"/><rect x="268" y="52" width="4" height="4" fill="#bfe4fa"/><rect x="276" y="52" width="4" height="4" fill="#bfe4fa"/><rect x="284" y="52" width="4" height="4" fill="#bfe4fa"/><rect x="292" y="52" width="4" height="4" fill="#bfe4fa"/><rect x="300" y="52" width="4" height="4" fill="#bfe4fa"/><rect x="308" y="52" width="4" height="4" fill="#bfe4fa"/><rect x="316" y="52" width="4" height="4" fill="#bfe4fa"/><rect x="324" y="52" width="4" height="4" fill="#bfe4fa"/><rect x="332" y="52" width="4" height="4" fill="#bfe4fa"/><rect x="340" y="52" width="4" height="4" fill="#bfe4fa"/><rect x="348" y="52" width="4" height="4" fill="#bfe4fa"/><rect x="0" y="56" width="352" height="24" fill="#bfe4fa"/><rect x="168" y="56" width="16" height="20" fill="#c9c2b6"/><rect x="152" y="48" width="48" height="8" fill="#3f5a8a"/><rect x="152" y="52" width="48" height="4" fill="#d8d1c5"/><rect x="148" y="40" width="56" height="8" fill="#3f5a8a"/><rect x="148" y="44" width="56" height="4" fill="#d8d1c5"/><rect x="152" y="32" width="48" height="8" fill="#3f5a8a"/><rect x="152" y="36" width="48" height="4" fill="#d8d1c5"/><rect x="160" y="24" width="32" height="8" fill="#3f5a8a"/><rect x="160" y="28" width="32" height="4" fill="#d8d1c5"/><rect x="156" y="68" width="4" height="4" fill="#d6cfc3"/><rect x="192" y="68" width="4" height="4" fill="#d6cfc3"/><rect x="160" y="64" width="4" height="4" fill="#d6cfc3"/><rect x="188" y="64" width="4" height="4" fill="#d6cfc3"/><rect x="0" y="12" width="4" height="148" fill="#3f7a4a"/><rect x="4" y="20" width="4" height="140" fill="#3f7a4a"/><rect x="8" y="20" width="4" height="140" fill="#3f7a4a"/><rect x="12" y="20" width="4" height="140" fill="#3f7a4a"/><rect x="16" y="24" width="4" height="136" fill="#3f7a4a"/><rect x="20" y="24" width="4" height="136" fill="#3f7a4a"/><rect x="24" y="20" width="4" height="140" fill="#3f7a4a"/><rect x="28" y="20" width="4" height="140" fill="#3f7a4a"/><rect x="32" y="20" width="4" height="140" fill="#3f7a4a"/><rect x="36" y="20" width="4" height="140" fill="#3f7a4a"/><rect x="40" y="24" width="4" height="136" fill="#3f7a4a"/><rect x="44" y="24" width="4" height="136" fill="#3f7a4a"/><rect x="48" y="28" width="4" height="132" fill="#3f7a4a"/><rect x="52" y="32" width="4" height="128" fill="#3f7a4a"/><rect x="56" y="36" width="4" height="124" fill="#3f7a4a"/><rect x="60" y="36" width="4" height="124" fill="#3f7a4a"/><rect x="64" y="40" width="4" height="120" fill="#3f7a4a"/><rect x="68" y="40" width="4" height="120" fill="#3f7a4a"/><rect x="72" y="40" width="4" height="120" fill="#3f7a4a"/><rect x="76" y="40" width="4" height="120" fill="#3f7a4a"/><rect x="80" y="36" width="4" height="124" fill="#3f7a4a"/><rect x="84" y="36" width="4" height="124" fill="#3f7a4a"/><rect x="88" y="40" width="4" height="120" fill="#3f7a4a"/><rect x="92" y="40" width="4" height="120" fill="#3f7a4a"/><rect x="96" y="40" width="4" height="120" fill="#3f7a4a"/><rect x="100" y="48" width="4" height="112" fill="#3f7a4a"/><rect x="104" y="52" width="4" height="108" fill="#3f7a4a"/><rect x="108" y="52" width="4" height="108" fill="#3f7a4a"/><rect x="112" y="56" width="4" height="104" fill="#3f7a4a"/><rect x="116" y="56" width="4" height="104" fill="#3f7a4a"/><rect x="120" y="56" width="4" height="104" fill="#3f7a4a"/><rect x="124" y="56" width="4" height="104" fill="#3f7a4a"/><rect x="128" y="56" width="4" height="104" fill="#3f7a4a"/><rect x="132" y="52" width="4" height="108" fill="#3f7a4a"/><rect x="136" y="56" width="4" height="104" fill="#3f7a4a"/><rect x="140" y="56" width="4" height="104" fill="#3f7a4a"/><rect x="144" y="56" width="4" height="104" fill="#3f7a4a"/><rect x="148" y="60" width="4" height="100" fill="#3f7a4a"/><rect x="152" y="64" width="4" height="96" fill="#3f7a4a"/><rect x="156" y="68" width="4" height="92" fill="#3f7a4a"/><rect x="160" y="72" width="4" height="88" fill="#3f7a4a"/><rect x="164" y="72" width="4" height="88" fill="#3f7a4a"/><rect x="168" y="72" width="4" height="88" fill="#3f7a4a"/><rect x="172" y="76" width="4" height="84" fill="#3f7a4a"/><rect x="176" y="72" width="4" height="88" fill="#3f7a4a"/><rect x="180" y="68" width="4" height="92" fill="#3f7a4a"/><rect x="184" y="64" width="4" height="96" fill="#3f7a4a"/><rect x="188" y="64" width="4" height="96" fill="#3f7a4a"/><rect x="192" y="64" width="4" height="96" fill="#3f7a4a"/><rect x="196" y="60" width="4" height="100" fill="#3f7a4a"/><rect x="200" y="64" width="4" height="96" fill="#3f7a4a"/><rect x="204" y="68" width="4" height="92" fill="#3f7a4a"/><rect x="208" y="64" width="4" height="96" fill="#3f7a4a"/><rect x="212" y="64" width="4" height="96" fill="#3f7a4a"/><rect x="216" y="64" width="4" height="96" fill="#3f7a4a"/><rect x="220" y="60" width="4" height="100" fill="#3f7a4a"/><rect x="224" y="56" width="4" height="104" fill="#3f7a4a"/><rect x="228" y="56" width="4" height="104" fill="#3f7a4a"/><rect x="232" y="48" width="4" height="112" fill="#3f7a4a"/><rect x="236" y="48" width="4" height="112" fill="#3f7a4a"/><rect x="240" y="48" width="4" height="112" fill="#3f7a4a"/><rect x="244" y="44" width="4" height="116" fill="#3f7a4a"/><rect x="248" y="44" width="4" height="116" fill="#3f7a4a"/><rect x="252" y="48" width="4" height="112" fill="#3f7a4a"/><rect x="256" y="48" width="4" height="112" fill="#3f7a4a"/><rect x="260" y="48" width="4" height="112" fill="#3f7a4a"/><rect x="264" y="48" width="4" height="112" fill="#3f7a4a"/><rect x="268" y="44" width="4" height="116" fill="#3f7a4a"/><rect x="272" y="44" width="4" height="116" fill="#3f7a4a"/><rect x="276" y="40" width="4" height="120" fill="#3f7a4a"/><rect x="280" y="32" width="4" height="128" fill="#3f7a4a"/><rect x="284" y="32" width="4" height="128" fill="#3f7a4a"/><rect x="288" y="32" width="4" height="128" fill="#3f7a4a"/><rect x="292" y="28" width="4" height="132" fill="#3f7a4a"/><rect x="296" y="28" width="4" height="132" fill="#3f7a4a"/><rect x="300" y="32" width="4" height="128" fill="#3f7a4a"/><rect x="304" y="28" width="4" height="132" fill="#3f7a4a"/><rect x="308" y="32" width="4" height="128" fill="#3f7a4a"/><rect x="312" y="32" width="4" height="128" fill="#3f7a4a"/><rect x="316" y="28" width="4" height="132" fill="#3f7a4a"/><rect x="320" y="28" width="4" height="132" fill="#3f7a4a"/><rect x="324" y="28" width="4" height="132" fill="#3f7a4a"/><rect x="328" y="20" width="4" height="140" fill="#3f7a4a"/><rect x="332" y="16" width="4" height="144" fill="#3f7a4a"/><rect x="336" y="16" width="4" height="144" fill="#3f7a4a"/><rect x="340" y="12" width="4" height="148" fill="#3f7a4a"/><rect x="344" y="12" width="4" height="148" fill="#3f7a4a"/><rect x="348" y="12" width="4" height="148" fill="#3f7a4a"/><rect x="0" y="60" width="4" height="116" fill="#2f6a3c"/><rect x="4" y="64" width="4" height="112" fill="#2f6a3c"/><rect x="8" y="64" width="4" height="112" fill="#2f6a3c"/><rect x="12" y="68" width="4" height="108" fill="#2f6a3c"/><rect x="16" y="68" width="4" height="108" fill="#2f6a3c"/><rect x="20" y="64" width="4" height="112" fill="#2f6a3c"/><rect x="24" y="60" width="4" height="116" fill="#2f6a3c"/><rect x="28" y="64" width="4" height="112" fill="#2f6a3c"/><rect x="32" y="64" width="4" height="112" fill="#2f6a3c"/><rect x="36" y="64" width="4" height="112" fill="#2f6a3c"/><rect x="40" y="68" width="4" height="108" fill="#2f6a3c"/><rect x="44" y="76" width="4" height="100" fill="#2f6a3c"/><rect x="48" y="76" width="4" height="100" fill="#2f6a3c"/><rect x="52" y="76" width="4" height="100" fill="#2f6a3c"/><rect x="56" y="76" width="4" height="100" fill="#2f6a3c"/><rect x="60" y="76" width="4" height="100" fill="#2f6a3c"/><rect x="64" y="72" width="4" height="104" fill="#2f6a3c"/><rect x="68" y="72" width="4" height="104" fill="#2f6a3c"/><rect x="72" y="72" width="4" height="104" fill="#2f6a3c"/><rect x="76" y="76" width="4" height="100" fill="#2f6a3c"/><rect x="80" y="80" width="4" height="96" fill="#2f6a3c"/><rect x="84" y="84" width="4" height="92" fill="#2f6a3c"/><rect x="88" y="84" width="4" height="92" fill="#2f6a3c"/><rect x="92" y="88" width="4" height="88" fill="#2f6a3c"/><rect x="96" y="88" width="4" height="88" fill="#2f6a3c"/><rect x="100" y="84" width="4" height="92" fill="#2f6a3c"/><rect x="104" y="80" width="4" height="96" fill="#2f6a3c"/><rect x="108" y="84" width="4" height="92" fill="#2f6a3c"/><rect x="112" y="84" width="4" height="92" fill="#2f6a3c"/><rect x="116" y="84" width="4" height="92" fill="#2f6a3c"/><rect x="120" y="88" width="4" height="88" fill="#2f6a3c"/><rect x="124" y="96" width="4" height="80" fill="#2f6a3c"/><rect x="128" y="96" width="4" height="80" fill="#2f6a3c"/><rect x="132" y="96" width="4" height="80" fill="#2f6a3c"/><rect x="136" y="96" width="4" height="80" fill="#2f6a3c"/><rect x="140" y="96" width="4" height="80" fill="#2f6a3c"/><rect x="144" y="96" width="4" height="80" fill="#2f6a3c"/><rect x="148" y="92" width="4" height="84" fill="#2f6a3c"/><rect x="152" y="92" width="4" height="84" fill="#2f6a3c"/><rect x="156" y="96" width="4" height="80" fill="#2f6a3c"/><rect x="160" y="100" width="4" height="76" fill="#2f6a3c"/><rect x="164" y="100" width="4" height="76" fill="#2f6a3c"/><rect x="168" y="104" width="4" height="72" fill="#2f6a3c"/><rect x="172" y="108" width="4" height="68" fill="#2f6a3c"/><rect x="176" y="108" width="4" height="68" fill="#2f6a3c"/><rect x="180" y="104" width="4" height="72" fill="#2f6a3c"/><rect x="184" y="100" width="4" height="76" fill="#2f6a3c"/><rect x="188" y="96" width="4" height="80" fill="#2f6a3c"/><rect x="192" y="96" width="4" height="80" fill="#2f6a3c"/><rect x="196" y="96" width="4" height="80" fill="#2f6a3c"/><rect x="200" y="96" width="4" height="80" fill="#2f6a3c"/><rect x="204" y="96" width="4" height="80" fill="#2f6a3c"/><rect x="208" y="100" width="4" height="76" fill="#2f6a3c"/><rect x="212" y="100" width="4" height="76" fill="#2f6a3c"/><rect x="216" y="96" width="4" height="80" fill="#2f6a3c"/><rect x="220" y="92" width="4" height="84" fill="#2f6a3c"/><rect x="224" y="92" width="4" height="84" fill="#2f6a3c"/><rect x="228" y="88" width="4" height="88" fill="#2f6a3c"/><rect x="232" y="84" width="4" height="92" fill="#2f6a3c"/><rect x="236" y="84" width="4" height="92" fill="#2f6a3c"/><rect x="240" y="88" width="4" height="88" fill="#2f6a3c"/><rect x="244" y="88" width="4" height="88" fill="#2f6a3c"/><rect x="248" y="88" width="4" height="88" fill="#2f6a3c"/><rect x="252" y="88" width="4" height="88" fill="#2f6a3c"/><rect x="256" y="88" width="4" height="88" fill="#2f6a3c"/><rect x="260" y="84" width="4" height="92" fill="#2f6a3c"/><rect x="264" y="80" width="4" height="96" fill="#2f6a3c"/><rect x="268" y="76" width="4" height="100" fill="#2f6a3c"/><rect x="272" y="76" width="4" height="100" fill="#2f6a3c"/><rect x="276" y="76" width="4" height="100" fill="#2f6a3c"/><rect x="280" y="76" width="4" height="100" fill="#2f6a3c"/><rect x="284" y="76" width="4" height="100" fill="#2f6a3c"/><rect x="288" y="80" width="4" height="96" fill="#2f6a3c"/><rect x="292" y="80" width="4" height="96" fill="#2f6a3c"/><rect x="296" y="76" width="4" height="100" fill="#2f6a3c"/><rect x="300" y="72" width="4" height="104" fill="#2f6a3c"/><rect x="304" y="72" width="4" height="104" fill="#2f6a3c"/><rect x="308" y="68" width="4" height="108" fill="#2f6a3c"/><rect x="312" y="64" width="4" height="112" fill="#2f6a3c"/><rect x="316" y="64" width="4" height="112" fill="#2f6a3c"/><rect x="320" y="68" width="4" height="108" fill="#2f6a3c"/><rect x="324" y="68" width="4" height="108" fill="#2f6a3c"/><rect x="328" y="68" width="4" height="108" fill="#2f6a3c"/><rect x="332" y="68" width="4" height="108" fill="#2f6a3c"/><rect x="336" y="68" width="4" height="108" fill="#2f6a3c"/><rect x="340" y="64" width="4" height="112" fill="#2f6a3c"/><rect x="344" y="60" width="4" height="116" fill="#2f6a3c"/><rect x="348" y="56" width="4" height="120" fill="#2f6a3c"/><rect x="0" y="80" width="352" height="176" fill="#6fae4a"/><rect x="0" y="12" width="4" height="84" fill="#3f7a4a"/><rect x="4" y="20" width="4" height="76" fill="#3f7a4a"/><rect x="8" y="20" width="4" height="76" fill="#3f7a4a"/><rect x="12" y="20" width="4" height="76" fill="#3f7a4a"/><rect x="16" y="24" width="4" height="72" fill="#3f7a4a"/><rect x="20" y="24" width="4" height="72" fill="#3f7a4a"/><rect x="24" y="20" width="4" height="76" fill="#3f7a4a"/><rect x="28" y="20" width="4" height="76" fill="#3f7a4a"/><rect x="32" y="20" width="4" height="76" fill="#3f7a4a"/><rect x="36" y="20" width="4" height="76" fill="#3f7a4a"/><rect x="40" y="24" width="4" height="72" fill="#3f7a4a"/><rect x="44" y="24" width="4" height="72" fill="#3f7a4a"/><rect x="48" y="28" width="4" height="68" fill="#3f7a4a"/><rect x="52" y="32" width="4" height="64" fill="#3f7a4a"/><rect x="56" y="36" width="4" height="60" fill="#3f7a4a"/><rect x="60" y="36" width="4" height="60" fill="#3f7a4a"/><rect x="64" y="40" width="4" height="56" fill="#3f7a4a"/><rect x="68" y="40" width="4" height="56" fill="#3f7a4a"/><rect x="72" y="40" width="4" height="56" fill="#3f7a4a"/><rect x="76" y="40" width="4" height="56" fill="#3f7a4a"/><rect x="80" y="36" width="4" height="60" fill="#3f7a4a"/><rect x="84" y="36" width="4" height="60" fill="#3f7a4a"/><rect x="88" y="40" width="4" height="56" fill="#3f7a4a"/><rect x="92" y="40" width="4" height="56" fill="#3f7a4a"/><rect x="96" y="40" width="4" height="56" fill="#3f7a4a"/><rect x="100" y="48" width="4" height="48" fill="#3f7a4a"/><rect x="104" y="52" width="4" height="44" fill="#3f7a4a"/><rect x="108" y="52" width="4" height="44" fill="#3f7a4a"/><rect x="112" y="56" width="4" height="40" fill="#3f7a4a"/><rect x="116" y="56" width="4" height="40" fill="#3f7a4a"/><rect x="120" y="56" width="4" height="40" fill="#3f7a4a"/><rect x="124" y="56" width="4" height="40" fill="#3f7a4a"/><rect x="128" y="56" width="4" height="40" fill="#3f7a4a"/><rect x="132" y="52" width="4" height="44" fill="#3f7a4a"/><rect x="136" y="56" width="4" height="40" fill="#3f7a4a"/><rect x="140" y="56" width="4" height="40" fill="#3f7a4a"/><rect x="144" y="56" width="4" height="40" fill="#3f7a4a"/><rect x="148" y="60" width="4" height="36" fill="#3f7a4a"/><rect x="152" y="64" width="4" height="32" fill="#3f7a4a"/><rect x="156" y="68" width="4" height="28" fill="#3f7a4a"/><rect x="160" y="72" width="4" height="24" fill="#3f7a4a"/><rect x="164" y="72" width="4" height="24" fill="#3f7a4a"/><rect x="168" y="72" width="4" height="24" fill="#3f7a4a"/><rect x="172" y="76" width="4" height="20" fill="#3f7a4a"/><rect x="176" y="72" width="4" height="24" fill="#3f7a4a"/><rect x="180" y="68" width="4" height="28" fill="#3f7a4a"/><rect x="184" y="64" width="4" height="32" fill="#3f7a4a"/><rect x="188" y="64" width="4" height="32" fill="#3f7a4a"/><rect x="192" y="64" width="4" height="32" fill="#3f7a4a"/><rect x="196" y="60" width="4" height="36" fill="#3f7a4a"/><rect x="200" y="64" width="4" height="32" fill="#3f7a4a"/><rect x="204" y="68" width="4" height="28" fill="#3f7a4a"/><rect x="208" y="64" width="4" height="32" fill="#3f7a4a"/><rect x="212" y="64" width="4" height="32" fill="#3f7a4a"/><rect x="216" y="64" width="4" height="32" fill="#3f7a4a"/><rect x="220" y="60" width="4" height="36" fill="#3f7a4a"/><rect x="224" y="56" width="4" height="40" fill="#3f7a4a"/><rect x="228" y="56" width="4" height="40" fill="#3f7a4a"/><rect x="232" y="48" width="4" height="48" fill="#3f7a4a"/><rect x="236" y="48" width="4" height="48" fill="#3f7a4a"/><rect x="240" y="48" width="4" height="48" fill="#3f7a4a"/><rect x="244" y="44" width="4" height="52" fill="#3f7a4a"/><rect x="248" y="44" width="4" height="52" fill="#3f7a4a"/><rect x="252" y="48" width="4" height="48" fill="#3f7a4a"/><rect x="256" y="48" width="4" height="48" fill="#3f7a4a"/><rect x="260" y="48" width="4" height="48" fill="#3f7a4a"/><rect x="264" y="48" width="4" height="48" fill="#3f7a4a"/><rect x="268" y="44" width="4" height="52" fill="#3f7a4a"/><rect x="272" y="44" width="4" height="52" fill="#3f7a4a"/><rect x="276" y="40" width="4" height="56" fill="#3f7a4a"/><rect x="280" y="32" width="4" height="64" fill="#3f7a4a"/><rect x="284" y="32" width="4" height="64" fill="#3f7a4a"/><rect x="288" y="32" width="4" height="64" fill="#3f7a4a"/><rect x="292" y="28" width="4" height="68" fill="#3f7a4a"/><rect x="296" y="28" width="4" height="68" fill="#3f7a4a"/><rect x="300" y="32" width="4" height="64" fill="#3f7a4a"/><rect x="304" y="28" width="4" height="68" fill="#3f7a4a"/><rect x="308" y="32" width="4" height="64" fill="#3f7a4a"/><rect x="312" y="32" width="4" height="64" fill="#3f7a4a"/><rect x="316" y="28" width="4" height="68" fill="#3f7a4a"/><rect x="320" y="28" width="4" height="68" fill="#3f7a4a"/><rect x="324" y="28" width="4" height="68" fill="#3f7a4a"/><rect x="328" y="20" width="4" height="76" fill="#3f7a4a"/><rect x="332" y="16" width="4" height="80" fill="#3f7a4a"/><rect x="336" y="16" width="4" height="80" fill="#3f7a4a"/><rect x="340" y="12" width="4" height="84" fill="#3f7a4a"/><rect x="344" y="12" width="4" height="84" fill="#3f7a4a"/><rect x="348" y="12" width="4" height="84" fill="#3f7a4a"/><rect x="0" y="104" width="352" height="8" fill="#7cbc56"/><rect x="0" y="124" width="352" height="8" fill="#7cbc56"/><rect x="0" y="144" width="352" height="8" fill="#7cbc56"/><rect x="0" y="164" width="352" height="8" fill="#7cbc56"/><rect x="0" y="184" width="352" height="8" fill="#7cbc56"/><rect x="0" y="204" width="352" height="8" fill="#7cbc56"/><rect x="0" y="224" width="352" height="8" fill="#7cbc56"/><rect x="0" y="244" width="352" height="8" fill="#7cbc56"/><rect x="168" y="76" width="16" height="4" fill="#d8d0bc"/><rect x="168" y="80" width="20" height="4" fill="#c8c0aa"/><rect x="164" y="84" width="28" height="4" fill="#d8d0bc"/><rect x="160" y="88" width="32" height="4" fill="#d8d0bc"/><rect x="160" y="92" width="36" height="4" fill="#d8d0bc"/><rect x="156" y="96" width="44" height="4" fill="#c8c0aa"/><rect x="152" y="100" width="48" height="4" fill="#d8d0bc"/><rect x="152" y="104" width="52" height="4" fill="#d8d0bc"/><rect x="148" y="108" width="56" height="4" fill="#d8d0bc"/><rect x="144" y="112" width="64" height="4" fill="#c8c0aa"/><rect x="144" y="116" width="68" height="4" fill="#d8d0bc"/><rect x="140" y="120" width="72" height="4" fill="#d8d0bc"/><rect x="136" y="124" width="80" height="4" fill="#d8d0bc"/><rect x="136" y="128" width="84" height="4" fill="#c8c0aa"/><rect x="132" y="132" width="88" height="4" fill="#d8d0bc"/><rect x="128" y="136" width="96" height="4" fill="#d8d0bc"/><rect x="128" y="140" width="100" height="4" fill="#d8d0bc"/><rect x="124" y="144" width="104" height="4" fill="#c8c0aa"/><rect x="124" y="148" width="108" height="4" fill="#d8d0bc"/><rect x="120" y="152" width="116" height="4" fill="#d8d0bc"/><rect x="116" y="156" width="120" height="4" fill="#d8d0bc"/><rect x="116" y="160" width="124" height="4" fill="#c8c0aa"/><rect x="112" y="164" width="132" height="4" fill="#d8d0bc"/><rect x="108" y="168" width="136" height="4" fill="#d8d0bc"/><rect x="108" y="172" width="140" height="4" fill="#d8d0bc"/><rect x="104" y="176" width="148" height="4" fill="#c8c0aa"/><rect x="100" y="180" width="152" height="4" fill="#d8d0bc"/><rect x="100" y="184" width="156" height="4" fill="#d8d0bc"/><rect x="96" y="188" width="160" height="4" fill="#d8d0bc"/><rect x="92" y="192" width="168" height="4" fill="#c8c0aa"/><rect x="92" y="196" width="172" height="4" fill="#d8d0bc"/><rect x="88" y="200" width="176" height="4" fill="#d8d0bc"/><rect x="84" y="204" width="184" height="4" fill="#d8d0bc"/><rect x="84" y="208" width="188" height="4" fill="#c8c0aa"/><rect x="80" y="212" width="192" height="4" fill="#d8d0bc"/><rect x="76" y="216" width="200" height="4" fill="#d8d0bc"/><rect x="76" y="220" width="204" height="4" fill="#d8d0bc"/><rect x="72" y="224" width="208" height="4" fill="#c8c0aa"/><rect x="72" y="228" width="212" height="4" fill="#d8d0bc"/><rect x="68" y="232" width="220" height="4" fill="#d8d0bc"/><rect x="64" y="236" width="224" height="4" fill="#d8d0bc"/><rect x="64" y="240" width="228" height="4" fill="#c8c0aa"/><rect x="60" y="244" width="236" height="4" fill="#d8d0bc"/><rect x="56" y="248" width="240" height="4" fill="#d8d0bc"/><rect x="56" y="252" width="244" height="4" fill="#d8d0bc"/><rect x="136" y="104" width="8" height="8" fill="#e05a4a"/><rect x="208" y="104" width="8" height="8" fill="#8e3fd0"/><rect x="140" y="100" width="4" height="4" fill="#ffffff"/><rect x="124" y="128" width="8" height="8" fill="#f0b82a"/><rect x="220" y="128" width="8" height="8" fill="#3fb8a8"/><rect x="104" y="152" width="12" height="8" fill="#3f6fd1"/><rect x="236" y="152" width="12" height="8" fill="#ff8fc4"/><rect x="108" y="148" width="4" height="4" fill="#ffffff"/><rect x="88" y="176" width="12" height="8" fill="#8e3fd0"/><rect x="252" y="176" width="12" height="8" fill="#e05a4a"/><rect x="68" y="200" width="16" height="8" fill="#3fb8a8"/><rect x="268" y="200" width="16" height="8" fill="#f0b82a"/><rect x="72" y="192" width="4" height="4" fill="#ffffff"/><rect x="52" y="224" width="16" height="8" fill="#ff8fc4"/><rect x="284" y="224" width="16" height="8" fill="#3f6fd1"/><rect x="80" y="216" width="12" height="20" fill="#ffd23f"/><rect x="80" y="220" width="12" height="4" fill="#1d1d2b"/><rect x="256" y="208" width="12" height="20" fill="#ffffff"/><rect x="256" y="212" width="12" height="4" fill="#e05a4a"/><rect x="188" y="176" width="8" height="8" fill="#e0aa80"/><rect x="188" y="184" width="8" height="12" fill="#1d1d2b"/><rect x="188" y="196" width="4" height="4" fill="#1d1d2b"/><rect x="192" y="196" width="4" height="4" fill="#1d1d2b"/><rect x="208" y="216" width="8" height="8" fill="#e0aa80"/><rect x="208" y="224" width="8" height="12" fill="#f0b82a"/><rect x="208" y="236" width="4" height="4" fill="#1d1d2b"/><rect x="212" y="236" width="4" height="4" fill="#1d1d2b"/><rect x="172" y="124" width="4" height="8" fill="#4a9a6a"/><rect x="184" y="108" width="4" height="8" fill="#e05a4a"/><g class="sway"><rect x="128" y="124" width="4" height="4" fill="#ffffff"/><rect x="92" y="168" width="4" height="4" fill="#ffffff"/><rect x="56" y="216" width="4" height="4" fill="#ffffff"/></g><g class="bob"><rect x="160" y="152" width="8" height="8" fill="#e0aa80"/><rect x="160" y="160" width="8" height="12" fill="#e05a4a"/><rect x="160" y="172" width="4" height="4" fill="#1d1d2b"/><rect x="164" y="172" width="4" height="4" fill="#1d1d2b"/><rect x="144" y="208" width="8" height="8" fill="#e0aa80"/><rect x="144" y="216" width="8" height="12" fill="#3f6fd1"/><rect x="144" y="228" width="4" height="4" fill="#1d1d2b"/><rect x="148" y="228" width="4" height="4" fill="#1d1d2b"/></g></g>
<rect x="21" y="340" width="358" height="26" fill="#3a7d44" stroke="#12121c" stroke-width="3"/>
<rect x="33" y="347" width="6" height="3" fill="#fff"/><rect x="30" y="350" width="12" height="6" fill="#fff"/><rect x="33" y="356" width="6" height="3" fill="#fff"/>
<text x="48" y="358" font-family="ui-monospace, 'SF Mono', Menlo, 'DejaVu Sans Mono', monospace" font-size="12" font-weight="700" fill="#ffffff" letter-spacing="2">COMMON</text>
<text x="370" y="358" font-family="ui-monospace, 'SF Mono', Menlo, 'DejaVu Sans Mono', monospace" font-size="11" font-weight="700" fill="#ffffff" text-anchor="end">LA JOLLA</text>
<text x="24" y="392" font-family="ui-monospace, 'SF Mono', Menlo, 'DejaVu Sans Mono', monospace" font-size="13" fill="#2a2a36">The long walk up the middle of campus,</text>
<text x="24" y="410" font-family="ui-monospace, 'SF Mono', Menlo, 'DejaVu Sans Mono', monospace" font-size="13" fill="#2a2a36">club tables on both sides, the library at</text>
<text x="24" y="428" font-family="ui-monospace, 'SF Mono', Menlo, 'DejaVu Sans Mono', monospace" font-size="13" fill="#2a2a36">the end.</text>
<rect x="24" y="456" width="113.33333333333333" height="40" fill="#ffffff" stroke="#12121c" stroke-width="2"/><rect x="27" y="459" width="107.33333333333333" height="12" fill="#3a7d44"/><text x="32" y="468" font-family="ui-monospace, 'SF Mono', Menlo, 'DejaVu Sans Mono', monospace" font-size="8" font-weight="700" fill="#ffffff" letter-spacing="1.5">EDITION</text><text x="32" y="488" font-family="ui-monospace, 'SF Mono', Menlo, 'DejaVu Sans Mono', monospace" font-size="13" font-weight="700" fill="#12121c">OPEN</text><rect x="143.33333333333331" y="456" width="113.33333333333333" height="40" fill="#ffffff" stroke="#12121c" stroke-width="2"/><rect x="146.33333333333331" y="459" width="107.33333333333333" height="12" fill="#12121c"/><text x="151.33333333333331" y="468" font-family="ui-monospace, 'SF Mono', Menlo, 'DejaVu Sans Mono', monospace" font-size="8" font-weight="700" fill="#ffffff" letter-spacing="1.5">MINT</text><text x="151.33333333333331" y="488" font-family="ui-monospace, 'SF Mono', Menlo, 'DejaVu Sans Mono', monospace" font-size="13" font-weight="700" fill="#12121c">0.5 TEZ</text><rect x="262.66666666666663" y="456" width="113.33333333333333" height="40" fill="#ffffff" stroke="#12121c" stroke-width="2"/><rect x="265.66666666666663" y="459" width="107.33333333333333" height="12" fill="#12121c"/><text x="270.66666666666663" y="468" font-family="ui-monospace, 'SF Mono', Menlo, 'DejaVu Sans Mono', monospace" font-size="8" font-weight="700" fill="#ffffff" letter-spacing="1.5">CARD</text><text x="270.66666666666663" y="488" font-family="ui-monospace, 'SF Mono', Menlo, 'DejaVu Sans Mono', monospace" font-size="13" font-weight="700" fill="#12121c">11/12</text>
<line x1="24" y1="510" x2="376" y2="510" stroke="#12121c" stroke-width="2" stroke-dasharray="4 4"/>
<text x="24" y="528" font-family="ui-monospace, 'SF Mono', Menlo, 'DejaVu Sans Mono', monospace" font-size="9" font-weight="700" fill="#5a5a66" letter-spacing="1">UNOFFICIAL · PLACES ONLY · CC0 · POINTCAST.XYZ</text>
<text x="376" y="528" font-family="ui-monospace, 'SF Mono', Menlo, 'DejaVu Sans Mono', monospace" font-size="9" font-weight="700" fill="#5a5a66" text-anchor="end">TEZOS</text>
</svg>
