<svg xmlns="http://www.w3.org/2000/svg" viewBox="0 0 400 560" width="400" height="560" shape-rendering="crispEdges" role="img" aria-labelledby="t d">
<title id="t">Campus Cards · Set 03 · Davis · 04/12 Farmers Market (Uncommon)</title>
<desc id="d">Saturday morning in the park: peaches, peppers, bread, a band, and everyone you know from class. Unofficial. An independent PointCast art project about places. Not affiliated with, sponsored by, or endorsed by the University of California or any campus. No university logos, seals, mascots, or marks are used.</desc>
<style>
.glint{animation:blink 2.4s steps(2) infinite}
.twinkle{animation:blink 3.1s steps(2) infinite .7s}
.waves{animation:slide 3s steps(3) infinite}
.drift{animation:drift 14s linear infinite alternate}
.drift2{animation:drift 19s linear infinite alternate-reverse}
.bob{animation:bob 2.2s steps(2) infinite}
.sway{animation:sway 2.8s steps(2) infinite}
.peck{animation:bob 1.7s steps(2) infinite}
.ride{animation:ride 6s steps(24) infinite}
.ride2{animation:ride 7.5s steps(30) infinite reverse}
.spin{transform-box:fill-box;transform-origin:center;animation:spin 9s steps(36) infinite}
.glow{animation:glow 4s ease-in-out infinite}
.ring{animation:ring 3.2s steps(2) infinite}
.bell{animation:blink 1.6s steps(2) infinite}
.alpen{animation:glow 6s ease-in-out infinite}
.foil{animation:foil 5s linear infinite}
@keyframes blink{50%{opacity:.25}}
@keyframes slide{to{transform:translateX(8px)}}
@keyframes drift{to{transform:translateX(24px)}}
@keyframes bob{50%{transform:translateY(4px)}}
@keyframes sway{50%{transform:translateX(4px)}}
@keyframes ride{from{transform:translateX(-160px)}to{transform:translateX(160px)}}
@keyframes spin{to{transform:rotate(-360deg)}}
@keyframes glow{50%{opacity:.6}}
@keyframes ring{0%,100%{opacity:0}50%{opacity:.9}}
@keyframes foil{from{transform:translateX(-360px)}to{transform:translateX(360px)}}
</style>
<defs>
<clipPath id="art"><rect x="0" y="0" width="352" height="256"/></clipPath>
<linearGradient id="sheen" x1="0" y1="0" x2="1" y2="1"><stop offset="0" stop-color="#fff" stop-opacity="0"/><stop offset=".45" stop-color="#fff" stop-opacity="0"/><stop offset=".5" stop-color="#fff" stop-opacity=".55"/><stop offset=".55" stop-color="#fff" stop-opacity="0"/><stop offset="1" stop-color="#fff" stop-opacity="0"/></linearGradient>
<pattern id="dots" width="8" height="8" patternUnits="userSpaceOnUse"><rect width="8" height="8" fill="#1f6fd1"/><rect x="0" y="0" width="2" height="2" fill="#000" fill-opacity=".18"/></pattern>
</defs>
<rect width="400" height="560" fill="#12121c"/>
<rect x="6" y="6" width="388" height="548" fill="url(#dots)"/>
<rect x="14" y="14" width="372" height="532" fill="#f7f1e1" stroke="#12121c" stroke-width="3"/>
<rect x="14" y="14" width="372" height="44" fill="#5b8a2e" stroke="#12121c" stroke-width="3"/>
<text x="26" y="34" font-family="ui-monospace, 'SF Mono', Menlo, 'DejaVu Sans Mono', monospace" font-size="10" font-weight="700" fill="#ffffff" letter-spacing="1.5">CAMPUS CARDS · SET 03 · DAVIS</text>
<text x="26" y="51" font-family="ui-monospace, 'SF Mono', Menlo, 'DejaVu Sans Mono', monospace" font-size="17" font-weight="700" fill="#ffffff">Farmers Market</text>
<text x="374" y="51" font-family="ui-monospace, 'SF Mono', Menlo, 'DejaVu Sans Mono', monospace" font-size="14" font-weight="700" fill="#ffffff" text-anchor="end">04/12</text>
<rect x="21" y="73" width="358" height="262" fill="#12121c"/>
<g transform="translate(24 76)" clip-path="url(#art)"><rect x="0" y="0" width="352" height="256" fill="#6aa84a"/><rect x="308" y="212" width="4" height="4" fill="#5f9a42"/><rect x="216" y="224" width="4" height="4" fill="#5f9a42"/><rect x="92" y="240" width="4" height="4" fill="#5f9a42"/><rect x="228" y="220" width="4" height="4" fill="#5f9a42"/><rect x="164" y="216" width="4" height="4" fill="#5f9a42"/><rect x="332" y="0" width="4" height="4" fill="#5f9a42"/><rect x="56" y="228" width="4" height="4" fill="#78b856"/><rect x="68" y="36" width="4" height="4" fill="#5f9a42"/><rect x="116" y="12" width="4" height="4" fill="#78b856"/><rect x="260" y="88" width="4" height="4" fill="#5f9a42"/><rect x="92" y="200" width="4" height="4" fill="#78b856"/><rect x="156" y="40" width="4" height="4" fill="#78b856"/><rect x="92" y="208" width="4" height="4" fill="#5f9a42"/><rect x="8" y="44" width="4" height="4" fill="#5f9a42"/><rect x="16" y="40" width="4" height="4" fill="#5f9a42"/><rect x="240" y="72" width="4" height="4" fill="#78b856"/><rect x="316" y="228" width="4" height="4" fill="#5f9a42"/><rect x="104" y="64" width="4" height="4" fill="#5f9a42"/><rect x="4" y="96" width="4" height="4" fill="#78b856"/><rect x="44" y="172" width="4" height="4" fill="#5f9a42"/><rect x="220" y="36" width="4" height="4" fill="#5f9a42"/><rect x="328" y="244" width="4" height="4" fill="#5f9a42"/><rect x="120" y="152" width="4" height="4" fill="#5f9a42"/><rect x="236" y="248" width="4" height="4" fill="#78b856"/><rect x="228" y="20" width="4" height="4" fill="#5f9a42"/><rect x="220" y="148" width="4" height="4" fill="#5f9a42"/><rect x="88" y="64" width="4" height="4" fill="#5f9a42"/><rect x="208" y="56" width="4" height="4" fill="#78b856"/><rect x="60" y="32" width="4" height="4" fill="#5f9a42"/><rect x="16" y="192" width="4" height="4" fill="#78b856"/><rect x="88" y="208" width="4" height="4" fill="#5f9a42"/><rect x="324" y="96" width="4" height="4" fill="#78b856"/><rect x="120" y="28" width="4" height="4" fill="#5f9a42"/><rect x="32" y="228" width="4" height="4" fill="#78b856"/><rect x="196" y="56" width="4" height="4" fill="#78b856"/><rect x="180" y="8" width="4" height="4" fill="#78b856"/><rect x="60" y="200" width="4" height="4" fill="#5f9a42"/><rect x="312" y="48" width="4" height="4" fill="#78b856"/><rect x="252" y="44" width="4" height="4" fill="#78b856"/><rect x="328" y="108" width="4" height="4" fill="#5f9a42"/><rect x="284" y="196" width="4" height="4" fill="#78b856"/><rect x="328" y="248" width="4" height="4" fill="#5f9a42"/><rect x="332" y="220" width="4" height="4" fill="#78b856"/><rect x="8" y="228" width="4" height="4" fill="#5f9a42"/><rect x="48" y="4" width="4" height="4" fill="#5f9a42"/><rect x="244" y="124" width="4" height="4" fill="#5f9a42"/><rect x="44" y="236" width="4" height="4" fill="#78b856"/><rect x="332" y="180" width="4" height="4" fill="#5f9a42"/><rect x="68" y="184" width="4" height="4" fill="#78b856"/><rect x="104" y="32" width="4" height="4" fill="#5f9a42"/><rect x="156" y="168" width="4" height="4" fill="#5f9a42"/><rect x="96" y="56" width="4" height="4" fill="#5f9a42"/><rect x="32" y="144" width="4" height="4" fill="#5f9a42"/><rect x="240" y="12" width="4" height="4" fill="#5f9a42"/><rect x="168" y="108" width="4" height="4" fill="#78b856"/><rect x="188" y="20" width="4" height="4" fill="#5f9a42"/><rect x="72" y="216" width="4" height="4" fill="#5f9a42"/><rect x="52" y="44" width="4" height="4" fill="#5f9a42"/><rect x="60" y="40" width="4" height="4" fill="#78b856"/><rect x="220" y="136" width="4" height="4" fill="#5f9a42"/><rect x="276" y="4" width="4" height="4" fill="#5f9a42"/><rect x="0" y="208" width="4" height="4" fill="#78b856"/><rect x="332" y="168" width="4" height="4" fill="#78b856"/><rect x="156" y="52" width="4" height="4" fill="#5f9a42"/><rect x="96" y="180" width="4" height="4" fill="#78b856"/><rect x="308" y="120" width="4" height="4" fill="#78b856"/><rect x="336" y="96" width="4" height="4" fill="#78b856"/><rect x="132" y="144" width="4" height="4" fill="#78b856"/><rect x="0" y="4" width="4" height="4" fill="#78b856"/><rect x="92" y="120" width="4" height="4" fill="#5f9a42"/><rect x="324" y="152" width="4" height="4" fill="#78b856"/><rect x="280" y="244" width="4" height="4" fill="#78b856"/><rect x="240" y="32" width="4" height="4" fill="#78b856"/><rect x="56" y="76" width="4" height="4" fill="#78b856"/><rect x="44" y="76" width="4" height="4" fill="#5f9a42"/><rect x="252" y="80" width="4" height="4" fill="#78b856"/><rect x="280" y="188" width="4" height="4" fill="#5f9a42"/><rect x="4" y="0" width="4" height="4" fill="#78b856"/><rect x="36" y="4" width="4" height="4" fill="#78b856"/><rect x="308" y="84" width="4" height="4" fill="#5f9a42"/><rect x="192" y="212" width="4" height="4" fill="#5f9a42"/><rect x="12" y="28" width="4" height="4" fill="#5f9a42"/><rect x="168" y="208" width="4" height="4" fill="#78b856"/><rect x="0" y="212" width="4" height="4" fill="#5f9a42"/><rect x="60" y="192" width="4" height="4" fill="#78b856"/><rect x="148" y="36" width="4" height="4" fill="#5f9a42"/><rect x="336" y="44" width="4" height="4" fill="#5f9a42"/><rect x="96" y="100" width="4" height="4" fill="#5f9a42"/><rect x="144" y="124" width="4" height="4" fill="#5f9a42"/><rect x="148" y="84" width="4" height="4" fill="#78b856"/><rect x="328" y="116" width="4" height="4" fill="#78b856"/><rect x="24" y="132" width="4" height="4" fill="#78b856"/><rect x="328" y="164" width="4" height="4" fill="#5f9a42"/><rect x="100" y="252" width="4" height="4" fill="#78b856"/><rect x="280" y="204" width="4" height="4" fill="#5f9a42"/><rect x="20" y="228" width="4" height="4" fill="#5f9a42"/><rect x="200" y="156" width="4" height="4" fill="#78b856"/><rect x="132" y="48" width="4" height="4" fill="#5f9a42"/><rect x="88" y="172" width="4" height="4" fill="#5f9a42"/><rect x="288" y="36" width="4" height="4" fill="#78b856"/><rect x="252" y="252" width="4" height="4" fill="#78b856"/><rect x="68" y="160" width="4" height="4" fill="#78b856"/><rect x="100" y="148" width="4" height="4" fill="#78b856"/><rect x="344" y="200" width="4" height="4" fill="#5f9a42"/><rect x="64" y="212" width="4" height="4" fill="#78b856"/><rect x="320" y="48" width="4" height="4" fill="#78b856"/><rect x="232" y="0" width="4" height="4" fill="#78b856"/><rect x="296" y="80" width="4" height="4" fill="#5f9a42"/><rect x="260" y="184" width="4" height="4" fill="#5f9a42"/><rect x="40" y="252" width="4" height="4" fill="#78b856"/><rect x="104" y="48" width="4" height="4" fill="#5f9a42"/><rect x="192" y="148" width="4" height="4" fill="#5f9a42"/><rect x="328" y="160" width="4" height="4" fill="#78b856"/><rect x="64" y="72" width="4" height="4" fill="#5f9a42"/><rect x="348" y="184" width="4" height="4" fill="#5f9a42"/><rect x="148" y="104" width="4" height="4" fill="#78b856"/><rect x="348" y="196" width="4" height="4" fill="#5f9a42"/><rect x="248" y="148" width="4" height="4" fill="#5f9a42"/><rect x="180" y="244" width="4" height="4" fill="#78b856"/><rect x="116" y="112" width="4" height="4" fill="#78b856"/><rect x="0" y="0" width="44" height="4" fill="#2f6231"/><rect x="0" y="4" width="48" height="4" fill="#2f6231"/><rect x="0" y="8" width="48" height="4" fill="#2f6231"/><rect x="0" y="12" width="48" height="4" fill="#2f6231"/><rect x="0" y="16" width="48" height="4" fill="#2f6231"/><rect x="0" y="20" width="48" height="4" fill="#2f6231"/><rect x="0" y="24" width="44" height="4" fill="#2f6231"/><rect x="0" y="28" width="44" height="4" fill="#2f6231"/><rect x="0" y="32" width="40" height="4" fill="#2f6231"/><rect x="4" y="36" width="28" height="4" fill="#2f6231"/><rect x="16" y="40" width="4" height="4" fill="#2f6231"/><rect x="0" y="0" width="28" height="4" fill="#3f7c3c"/><rect x="0" y="4" width="28" height="4" fill="#3f7c3c"/><rect x="0" y="8" width="28" height="4" fill="#3f7c3c"/><rect x="0" y="12" width="24" height="4" fill="#3f7c3c"/><rect x="0" y="16" width="20" height="4" fill="#3f7c3c"/><rect x="8" y="20" width="4" height="4" fill="#3f7c3c"/><rect x="48" y="0" width="52" height="4" fill="#2f6231"/><rect x="44" y="4" width="60" height="4" fill="#2f6231"/><rect x="44" y="8" width="60" height="4" fill="#2f6231"/><rect x="44" y="12" width="60" height="4" fill="#2f6231"/><rect x="44" y="16" width="60" height="4" fill="#2f6231"/><rect x="44" y="20" width="60" height="4" fill="#2f6231"/><rect x="48" y="24" width="52" height="4" fill="#2f6231"/><rect x="48" y="28" width="52" height="4" fill="#2f6231"/><rect x="52" y="32" width="44" height="4" fill="#2f6231"/><rect x="60" y="36" width="28" height="4" fill="#2f6231"/><rect x="72" y="40" width="4" height="4" fill="#2f6231"/><rect x="48" y="0" width="36" height="4" fill="#3f7c3c"/><rect x="48" y="4" width="36" height="4" fill="#3f7c3c"/><rect x="48" y="8" width="36" height="4" fill="#3f7c3c"/><rect x="52" y="12" width="28" height="4" fill="#3f7c3c"/><rect x="56" y="16" width="20" height="4" fill="#3f7c3c"/><rect x="64" y="20" width="4" height="4" fill="#3f7c3c"/><rect x="104" y="0" width="52" height="4" fill="#2f6231"/><rect x="100" y="4" width="60" height="4" fill="#2f6231"/><rect x="100" y="8" width="60" height="4" fill="#2f6231"/><rect x="100" y="12" width="60" height="4" fill="#2f6231"/><rect x="100" y="16" width="60" height="4" fill="#2f6231"/><rect x="100" y="20" width="60" height="4" fill="#2f6231"/><rect x="104" y="24" width="52" height="4" fill="#2f6231"/><rect x="104" y="28" width="52" height="4" fill="#2f6231"/><rect x="108" y="32" width="44" height="4" fill="#2f6231"/><rect x="116" y="36" width="28" height="4" fill="#2f6231"/><rect x="128" y="40" width="4" height="4" fill="#2f6231"/><rect x="104" y="0" width="36" height="4" fill="#3f7c3c"/><rect x="104" y="4" width="36" height="4" fill="#3f7c3c"/><rect x="104" y="8" width="36" height="4" fill="#3f7c3c"/><rect x="108" y="12" width="28" height="4" fill="#3f7c3c"/><rect x="112" y="16" width="20" height="4" fill="#3f7c3c"/><rect x="120" y="20" width="4" height="4" fill="#3f7c3c"/><rect x="160" y="0" width="52" height="4" fill="#2f6231"/><rect x="156" y="4" width="60" height="4" fill="#2f6231"/><rect x="156" y="8" width="60" height="4" fill="#2f6231"/><rect x="156" y="12" width="60" height="4" fill="#2f6231"/><rect x="156" y="16" width="60" height="4" fill="#2f6231"/><rect x="156" y="20" width="60" height="4" fill="#2f6231"/><rect x="160" y="24" width="52" height="4" fill="#2f6231"/><rect x="160" y="28" width="52" height="4" fill="#2f6231"/><rect x="164" y="32" width="44" height="4" fill="#2f6231"/><rect x="172" y="36" width="28" height="4" fill="#2f6231"/><rect x="184" y="40" width="4" height="4" fill="#2f6231"/><rect x="160" y="0" width="36" height="4" fill="#3f7c3c"/><rect x="160" y="4" width="36" height="4" fill="#3f7c3c"/><rect x="160" y="8" width="36" height="4" fill="#3f7c3c"/><rect x="164" y="12" width="28" height="4" fill="#3f7c3c"/><rect x="168" y="16" width="20" height="4" fill="#3f7c3c"/><rect x="176" y="20" width="4" height="4" fill="#3f7c3c"/><rect x="216" y="0" width="52" height="4" fill="#2f6231"/><rect x="212" y="4" width="60" height="4" fill="#2f6231"/><rect x="212" y="8" width="60" height="4" fill="#2f6231"/><rect x="212" y="12" width="60" height="4" fill="#2f6231"/><rect x="212" y="16" width="60" height="4" fill="#2f6231"/><rect x="212" y="20" width="60" height="4" fill="#2f6231"/><rect x="216" y="24" width="52" height="4" fill="#2f6231"/><rect x="216" y="28" width="52" height="4" fill="#2f6231"/><rect x="220" y="32" width="44" height="4" fill="#2f6231"/><rect x="228" y="36" width="28" height="4" fill="#2f6231"/><rect x="240" y="40" width="4" height="4" fill="#2f6231"/><rect x="216" y="0" width="36" height="4" fill="#3f7c3c"/><rect x="216" y="4" width="36" height="4" fill="#3f7c3c"/><rect x="216" y="8" width="36" height="4" fill="#3f7c3c"/><rect x="220" y="12" width="28" height="4" fill="#3f7c3c"/><rect x="224" y="16" width="20" height="4" fill="#3f7c3c"/><rect x="232" y="20" width="4" height="4" fill="#3f7c3c"/><rect x="272" y="0" width="52" height="4" fill="#2f6231"/><rect x="268" y="4" width="60" height="4" fill="#2f6231"/><rect x="268" y="8" width="60" height="4" fill="#2f6231"/><rect x="268" y="12" width="60" height="4" fill="#2f6231"/><rect x="268" y="16" width="60" height="4" fill="#2f6231"/><rect x="268" y="20" width="60" height="4" fill="#2f6231"/><rect x="272" y="24" width="52" height="4" fill="#2f6231"/><rect x="272" y="28" width="52" height="4" fill="#2f6231"/><rect x="276" y="32" width="44" height="4" fill="#2f6231"/><rect x="284" y="36" width="28" height="4" fill="#2f6231"/><rect x="296" y="40" width="4" height="4" fill="#2f6231"/><rect x="272" y="0" width="36" height="4" fill="#3f7c3c"/><rect x="272" y="4" width="36" height="4" fill="#3f7c3c"/><rect x="272" y="8" width="36" height="4" fill="#3f7c3c"/><rect x="276" y="12" width="28" height="4" fill="#3f7c3c"/><rect x="280" y="16" width="20" height="4" fill="#3f7c3c"/><rect x="288" y="20" width="4" height="4" fill="#3f7c3c"/><rect x="0" y="88" width="352" height="24" fill="#cdbb98"/><rect x="0" y="176" width="352" height="24" fill="#cdbb98"/><rect x="0" y="40" width="352" height="8" fill="#cdbb98"/><rect x="4" y="48" width="48" height="36" fill="#f4f4f4"/><rect x="4" y="48" width="8" height="36" fill="#e05a4a"/><rect x="20" y="48" width="8" height="36" fill="#e05a4a"/><rect x="36" y="48" width="8" height="36" fill="#e05a4a"/><rect x="4" y="84" width="48" height="4" fill="#4a5a3a"/><rect x="8" y="88" width="40" height="8" fill="#8a5e3c"/><rect x="8" y="88" width="4" height="4" fill="#c43a2e"/><rect x="12" y="92" width="4" height="4" fill="#e0453a"/><rect x="16" y="88" width="4" height="4" fill="#c43a2e"/><rect x="20" y="92" width="4" height="4" fill="#e0453a"/><rect x="24" y="88" width="4" height="4" fill="#c43a2e"/><rect x="28" y="92" width="4" height="4" fill="#e0453a"/><rect x="32" y="88" width="4" height="4" fill="#c43a2e"/><rect x="36" y="92" width="4" height="4" fill="#e0453a"/><rect x="40" y="88" width="4" height="4" fill="#c43a2e"/><rect x="44" y="92" width="4" height="4" fill="#e0453a"/><rect x="64" y="48" width="48" height="36" fill="#f0b82a"/><rect x="64" y="48" width="8" height="36" fill="#f4f4f4"/><rect x="80" y="48" width="8" height="36" fill="#f4f4f4"/><rect x="96" y="48" width="8" height="36" fill="#f4f4f4"/><rect x="64" y="84" width="48" height="4" fill="#4a5a3a"/><rect x="68" y="88" width="40" height="8" fill="#8a5e3c"/><rect x="68" y="88" width="4" height="4" fill="#e8a04a"/><rect x="72" y="92" width="4" height="4" fill="#f28c3a"/><rect x="76" y="88" width="4" height="4" fill="#e8a04a"/><rect x="80" y="92" width="4" height="4" fill="#f28c3a"/><rect x="84" y="88" width="4" height="4" fill="#e8a04a"/><rect x="88" y="92" width="4" height="4" fill="#f28c3a"/><rect x="92" y="88" width="4" height="4" fill="#e8a04a"/><rect x="96" y="92" width="4" height="4" fill="#f28c3a"/><rect x="100" y="88" width="4" height="4" fill="#e8a04a"/><rect x="104" y="92" width="4" height="4" fill="#f28c3a"/><rect x="124" y="48" width="48" height="36" fill="#3f6fd1"/><rect x="124" y="48" width="8" height="36" fill="#f4f4f4"/><rect x="140" y="48" width="8" height="36" fill="#f4f4f4"/><rect x="156" y="48" width="8" height="36" fill="#f4f4f4"/><rect x="124" y="84" width="48" height="4" fill="#4a5a3a"/><rect x="128" y="88" width="40" height="8" fill="#8a5e3c"/><rect x="128" y="88" width="4" height="4" fill="#3f8a3a"/><rect x="132" y="92" width="4" height="4" fill="#6aa84f"/><rect x="136" y="88" width="4" height="4" fill="#3f8a3a"/><rect x="140" y="92" width="4" height="4" fill="#6aa84f"/><rect x="144" y="88" width="4" height="4" fill="#3f8a3a"/><rect x="148" y="92" width="4" height="4" fill="#6aa84f"/><rect x="152" y="88" width="4" height="4" fill="#3f8a3a"/><rect x="156" y="92" width="4" height="4" fill="#6aa84f"/><rect x="160" y="88" width="4" height="4" fill="#3f8a3a"/><rect x="164" y="92" width="4" height="4" fill="#6aa84f"/><rect x="184" y="48" width="48" height="36" fill="#f4f4f4"/><rect x="184" y="48" width="8" height="36" fill="#4a9a6a"/><rect x="200" y="48" width="8" height="36" fill="#4a9a6a"/><rect x="216" y="48" width="8" height="36" fill="#4a9a6a"/><rect x="184" y="84" width="48" height="4" fill="#4a5a3a"/><rect x="188" y="88" width="40" height="8" fill="#8a5e3c"/><rect x="188" y="88" width="4" height="4" fill="#6a2aa0"/><rect x="192" y="92" width="4" height="4" fill="#8e3fd0"/><rect x="196" y="88" width="4" height="4" fill="#6a2aa0"/><rect x="200" y="92" width="4" height="4" fill="#8e3fd0"/><rect x="204" y="88" width="4" height="4" fill="#6a2aa0"/><rect x="208" y="92" width="4" height="4" fill="#8e3fd0"/><rect x="212" y="88" width="4" height="4" fill="#6a2aa0"/><rect x="216" y="92" width="4" height="4" fill="#8e3fd0"/><rect x="220" y="88" width="4" height="4" fill="#6a2aa0"/><rect x="224" y="92" width="4" height="4" fill="#8e3fd0"/><rect x="244" y="48" width="48" height="36" fill="#ff8fc4"/><rect x="244" y="48" width="8" height="36" fill="#f4f4f4"/><rect x="260" y="48" width="8" height="36" fill="#f4f4f4"/><rect x="276" y="48" width="8" height="36" fill="#f4f4f4"/><rect x="244" y="84" width="48" height="4" fill="#4a5a3a"/><rect x="248" y="88" width="40" height="8" fill="#8a5e3c"/><rect x="248" y="88" width="4" height="4" fill="#e0b020"/><rect x="252" y="92" width="4" height="4" fill="#f0d040"/><rect x="256" y="88" width="4" height="4" fill="#e0b020"/><rect x="260" y="92" width="4" height="4" fill="#f0d040"/><rect x="264" y="88" width="4" height="4" fill="#e0b020"/><rect x="268" y="92" width="4" height="4" fill="#f0d040"/><rect x="272" y="88" width="4" height="4" fill="#e0b020"/><rect x="276" y="92" width="4" height="4" fill="#f0d040"/><rect x="280" y="88" width="4" height="4" fill="#e0b020"/><rect x="284" y="92" width="4" height="4" fill="#f0d040"/><rect x="304" y="48" width="48" height="36" fill="#f4f4f4"/><rect x="304" y="48" width="8" height="36" fill="#3fb8a8"/><rect x="320" y="48" width="8" height="36" fill="#3fb8a8"/><rect x="336" y="48" width="8" height="36" fill="#3fb8a8"/><rect x="304" y="84" width="48" height="4" fill="#4a5a3a"/><rect x="308" y="88" width="40" height="8" fill="#8a5e3c"/><rect x="308" y="88" width="4" height="4" fill="#e07070"/><rect x="312" y="92" width="4" height="4" fill="#f4a0a0"/><rect x="316" y="88" width="4" height="4" fill="#e07070"/><rect x="320" y="92" width="4" height="4" fill="#f4a0a0"/><rect x="324" y="88" width="4" height="4" fill="#e07070"/><rect x="328" y="92" width="4" height="4" fill="#f4a0a0"/><rect x="332" y="88" width="4" height="4" fill="#e07070"/><rect x="336" y="92" width="4" height="4" fill="#f4a0a0"/><rect x="340" y="88" width="4" height="4" fill="#e07070"/><rect x="344" y="92" width="4" height="4" fill="#f4a0a0"/><rect x="20" y="120" width="48" height="36" fill="#3f6fd1"/><rect x="20" y="120" width="8" height="36" fill="#f4f4f4"/><rect x="36" y="120" width="8" height="36" fill="#f4f4f4"/><rect x="52" y="120" width="8" height="36" fill="#f4f4f4"/><rect x="20" y="156" width="48" height="4" fill="#4a5a3a"/><rect x="24" y="160" width="40" height="8" fill="#8a5e3c"/><rect x="24" y="160" width="4" height="4" fill="#e8a04a"/><rect x="28" y="164" width="4" height="4" fill="#f28c3a"/><rect x="32" y="160" width="4" height="4" fill="#e8a04a"/><rect x="36" y="164" width="4" height="4" fill="#f28c3a"/><rect x="40" y="160" width="4" height="4" fill="#e8a04a"/><rect x="44" y="164" width="4" height="4" fill="#f28c3a"/><rect x="48" y="160" width="4" height="4" fill="#e8a04a"/><rect x="52" y="164" width="4" height="4" fill="#f28c3a"/><rect x="56" y="160" width="4" height="4" fill="#e8a04a"/><rect x="60" y="164" width="4" height="4" fill="#f28c3a"/><rect x="80" y="120" width="48" height="36" fill="#f4f4f4"/><rect x="80" y="120" width="8" height="36" fill="#4a9a6a"/><rect x="96" y="120" width="8" height="36" fill="#4a9a6a"/><rect x="112" y="120" width="8" height="36" fill="#4a9a6a"/><rect x="80" y="156" width="48" height="4" fill="#4a5a3a"/><rect x="84" y="160" width="40" height="8" fill="#8a5e3c"/><rect x="84" y="160" width="4" height="4" fill="#3f8a3a"/><rect x="88" y="164" width="4" height="4" fill="#6aa84f"/><rect x="92" y="160" width="4" height="4" fill="#3f8a3a"/><rect x="96" y="164" width="4" height="4" fill="#6aa84f"/><rect x="100" y="160" width="4" height="4" fill="#3f8a3a"/><rect x="104" y="164" width="4" height="4" fill="#6aa84f"/><rect x="108" y="160" width="4" height="4" fill="#3f8a3a"/><rect x="112" y="164" width="4" height="4" fill="#6aa84f"/><rect x="116" y="160" width="4" height="4" fill="#3f8a3a"/><rect x="120" y="164" width="4" height="4" fill="#6aa84f"/><rect x="140" y="120" width="48" height="36" fill="#ff8fc4"/><rect x="140" y="120" width="8" height="36" fill="#f4f4f4"/><rect x="156" y="120" width="8" height="36" fill="#f4f4f4"/><rect x="172" y="120" width="8" height="36" fill="#f4f4f4"/><rect x="140" y="156" width="48" height="4" fill="#4a5a3a"/><rect x="144" y="160" width="40" height="8" fill="#8a5e3c"/><rect x="144" y="160" width="4" height="4" fill="#6a2aa0"/><rect x="148" y="164" width="4" height="4" fill="#8e3fd0"/><rect x="152" y="160" width="4" height="4" fill="#6a2aa0"/><rect x="156" y="164" width="4" height="4" fill="#8e3fd0"/><rect x="160" y="160" width="4" height="4" fill="#6a2aa0"/><rect x="164" y="164" width="4" height="4" fill="#8e3fd0"/><rect x="168" y="160" width="4" height="4" fill="#6a2aa0"/><rect x="172" y="164" width="4" height="4" fill="#8e3fd0"/><rect x="176" y="160" width="4" height="4" fill="#6a2aa0"/><rect x="180" y="164" width="4" height="4" fill="#8e3fd0"/><rect x="200" y="120" width="48" height="36" fill="#f4f4f4"/><rect x="200" y="120" width="8" height="36" fill="#3fb8a8"/><rect x="216" y="120" width="8" height="36" fill="#3fb8a8"/><rect x="232" y="120" width="8" height="36" fill="#3fb8a8"/><rect x="200" y="156" width="48" height="4" fill="#4a5a3a"/><rect x="204" y="160" width="40" height="8" fill="#8a5e3c"/><rect x="204" y="160" width="4" height="4" fill="#e0b020"/><rect x="208" y="164" width="4" height="4" fill="#f0d040"/><rect x="212" y="160" width="4" height="4" fill="#e0b020"/><rect x="216" y="164" width="4" height="4" fill="#f0d040"/><rect x="220" y="160" width="4" height="4" fill="#e0b020"/><rect x="224" y="164" width="4" height="4" fill="#f0d040"/><rect x="228" y="160" width="4" height="4" fill="#e0b020"/><rect x="232" y="164" width="4" height="4" fill="#f0d040"/><rect x="236" y="160" width="4" height="4" fill="#e0b020"/><rect x="240" y="164" width="4" height="4" fill="#f0d040"/><rect x="260" y="120" width="48" height="36" fill="#f4f4f4"/><rect x="260" y="120" width="8" height="36" fill="#e05a4a"/><rect x="276" y="120" width="8" height="36" fill="#e05a4a"/><rect x="292" y="120" width="8" height="36" fill="#e05a4a"/><rect x="260" y="156" width="48" height="4" fill="#4a5a3a"/><rect x="264" y="160" width="40" height="8" fill="#8a5e3c"/><rect x="264" y="160" width="4" height="4" fill="#e07070"/><rect x="268" y="164" width="4" height="4" fill="#f4a0a0"/><rect x="272" y="160" width="4" height="4" fill="#e07070"/><rect x="276" y="164" width="4" height="4" fill="#f4a0a0"/><rect x="280" y="160" width="4" height="4" fill="#e07070"/><rect x="284" y="164" width="4" height="4" fill="#f4a0a0"/><rect x="288" y="160" width="4" height="4" fill="#e07070"/><rect x="292" y="164" width="4" height="4" fill="#f4a0a0"/><rect x="296" y="160" width="4" height="4" fill="#e07070"/><rect x="300" y="164" width="4" height="4" fill="#f4a0a0"/><rect x="320" y="120" width="32" height="36" fill="#f0b82a"/><rect x="320" y="120" width="8" height="36" fill="#f4f4f4"/><rect x="336" y="120" width="8" height="36" fill="#f4f4f4"/><rect x="320" y="156" width="32" height="4" fill="#4a5a3a"/><rect x="324" y="160" width="28" height="8" fill="#8a5e3c"/><rect x="324" y="160" width="4" height="4" fill="#c43a2e"/><rect x="328" y="164" width="4" height="4" fill="#e0453a"/><rect x="332" y="160" width="4" height="4" fill="#c43a2e"/><rect x="336" y="164" width="4" height="4" fill="#e0453a"/><rect x="340" y="160" width="4" height="4" fill="#c43a2e"/><rect x="344" y="164" width="4" height="4" fill="#e0453a"/><rect x="348" y="160" width="4" height="4" fill="#c43a2e"/><rect x="0" y="208" width="48" height="48" fill="#f4f4f4"/><rect x="4" y="208" width="8" height="48" fill="#4a9a6a"/><rect x="24" y="208" width="8" height="48" fill="#4a9a6a"/><rect x="44" y="208" width="8" height="48" fill="#4a9a6a"/><rect x="60" y="208" width="64" height="48" fill="#ff8fc4"/><rect x="60" y="208" width="8" height="48" fill="#f4f4f4"/><rect x="80" y="208" width="8" height="48" fill="#f4f4f4"/><rect x="100" y="208" width="8" height="48" fill="#f4f4f4"/><rect x="120" y="208" width="8" height="48" fill="#f4f4f4"/><rect x="136" y="208" width="64" height="48" fill="#f4f4f4"/><rect x="136" y="208" width="8" height="48" fill="#3fb8a8"/><rect x="156" y="208" width="8" height="48" fill="#3fb8a8"/><rect x="176" y="208" width="8" height="48" fill="#3fb8a8"/><rect x="196" y="208" width="8" height="48" fill="#3fb8a8"/><rect x="212" y="208" width="64" height="48" fill="#f4f4f4"/><rect x="212" y="208" width="8" height="48" fill="#e05a4a"/><rect x="232" y="208" width="8" height="48" fill="#e05a4a"/><rect x="252" y="208" width="8" height="48" fill="#e05a4a"/><rect x="272" y="208" width="8" height="48" fill="#e05a4a"/><rect x="288" y="208" width="64" height="48" fill="#f0b82a"/><rect x="288" y="208" width="8" height="48" fill="#f4f4f4"/><rect x="308" y="208" width="8" height="48" fill="#f4f4f4"/><rect x="328" y="208" width="8" height="48" fill="#f4f4f4"/><rect x="348" y="208" width="4" height="48" fill="#f4f4f4"/><rect x="208" y="192" width="8" height="8" fill="#f0b82a"/><rect x="208" y="188" width="8" height="4" fill="#c68a5e"/><rect x="140" y="96" width="8" height="8" fill="#ff8fc4"/><rect x="140" y="92" width="8" height="4" fill="#8a5a3a"/><rect x="236" y="188" width="8" height="8" fill="#e05a4a"/><rect x="236" y="184" width="8" height="4" fill="#e0aa80"/><rect x="48" y="100" width="8" height="8" fill="#4a9a6a"/><rect x="48" y="96" width="8" height="4" fill="#f0c8a0"/><rect x="312" y="184" width="8" height="8" fill="#3fb8a8"/><rect x="312" y="180" width="8" height="4" fill="#c68a5e"/><rect x="180" y="104" width="8" height="8" fill="#3f6fd1"/><rect x="180" y="100" width="8" height="4" fill="#8a5a3a"/><rect x="96" y="192" width="8" height="8" fill="#8e3fd0"/><rect x="96" y="188" width="8" height="4" fill="#e0aa80"/><rect x="124" y="96" width="8" height="8" fill="#1d1d2b"/><rect x="124" y="92" width="8" height="4" fill="#f0c8a0"/><g class="ride"><rect x="164" y="188" width="8" height="8" fill="#e05a4a"/><rect x="164" y="184" width="8" height="4" fill="#e0aa80"/><rect x="96" y="100" width="8" height="8" fill="#4a9a6a"/><rect x="96" y="96" width="8" height="4" fill="#f0c8a0"/><rect x="72" y="192" width="8" height="8" fill="#3fb8a8"/><rect x="72" y="188" width="8" height="4" fill="#c68a5e"/><rect x="48" y="96" width="8" height="8" fill="#3f6fd1"/><rect x="48" y="92" width="8" height="4" fill="#8a5a3a"/><rect x="128" y="192" width="8" height="8" fill="#8e3fd0"/><rect x="128" y="188" width="8" height="4" fill="#e0aa80"/><rect x="280" y="104" width="8" height="8" fill="#1d1d2b"/><rect x="280" y="100" width="8" height="4" fill="#f0c8a0"/><rect x="48" y="184" width="8" height="8" fill="#f0b82a"/><rect x="48" y="180" width="8" height="4" fill="#c68a5e"/><rect x="196" y="104" width="8" height="8" fill="#ff8fc4"/><rect x="196" y="100" width="8" height="4" fill="#8a5a3a"/><rect x="300" y="188" width="8" height="8" fill="#e05a4a"/><rect x="300" y="184" width="8" height="4" fill="#e0aa80"/></g><g class="ride2"><rect x="188" y="100" width="8" height="8" fill="#3f6fd1"/><rect x="188" y="96" width="8" height="4" fill="#8a5a3a"/><rect x="96" y="188" width="8" height="8" fill="#8e3fd0"/><rect x="96" y="184" width="8" height="4" fill="#e0aa80"/><rect x="264" y="100" width="8" height="8" fill="#1d1d2b"/><rect x="264" y="96" width="8" height="4" fill="#f0c8a0"/><rect x="292" y="184" width="8" height="8" fill="#f0b82a"/><rect x="292" y="180" width="8" height="4" fill="#c68a5e"/><rect x="300" y="96" width="8" height="8" fill="#ff8fc4"/><rect x="300" y="92" width="8" height="4" fill="#8a5a3a"/><rect x="148" y="188" width="8" height="8" fill="#e05a4a"/><rect x="148" y="184" width="8" height="4" fill="#e0aa80"/><rect x="28" y="100" width="8" height="8" fill="#4a9a6a"/><rect x="28" y="96" width="8" height="4" fill="#f0c8a0"/><rect x="44" y="184" width="8" height="8" fill="#3fb8a8"/><rect x="44" y="180" width="8" height="4" fill="#c68a5e"/><rect x="136" y="96" width="8" height="8" fill="#3f6fd1"/><rect x="136" y="92" width="8" height="4" fill="#8a5a3a"/></g><g class="bob"><rect x="144" y="32" width="8" height="8" fill="#f0b82a"/><rect x="144" y="28" width="8" height="4" fill="#e0aa80"/><rect x="160" y="32" width="8" height="8" fill="#4a9a6a"/><rect x="160" y="28" width="8" height="4" fill="#8a5a3a"/><rect x="176" y="32" width="8" height="8" fill="#8e3fd0"/><rect x="176" y="28" width="8" height="4" fill="#c68a5e"/><rect x="64" y="72" width="8" height="8" fill="#e05a4a"/><rect x="72" y="68" width="8" height="8" fill="#f0d040"/></g><g class="twinkle"><rect x="152" y="36" width="4" height="4" fill="#f0b82a"/></g></g>
<rect x="21" y="340" width="358" height="26" fill="#1f6fd1" stroke="#12121c" stroke-width="3"/>
<rect x="33" y="347" width="6" height="3" fill="#fff"/><rect x="30" y="350" width="12" height="3" fill="#fff"/><rect x="30" y="353" width="12" height="3" fill="#fff"/><rect x="33" y="356" width="6" height="3" fill="#fff"/>
<text x="48" y="358" font-family="ui-monospace, 'SF Mono', Menlo, 'DejaVu Sans Mono', monospace" font-size="12" font-weight="700" fill="#ffffff" letter-spacing="2">UNCOMMON</text>
<text x="370" y="358" font-family="ui-monospace, 'SF Mono', Menlo, 'DejaVu Sans Mono', monospace" font-size="11" font-weight="700" fill="#ffffff" text-anchor="end">DAVIS</text>
<text x="24" y="392" font-family="ui-monospace, 'SF Mono', Menlo, 'DejaVu Sans Mono', monospace" font-size="13" fill="#2a2a36">Saturday morning in the park: peaches,</text>
<text x="24" y="410" font-family="ui-monospace, 'SF Mono', Menlo, 'DejaVu Sans Mono', monospace" font-size="13" fill="#2a2a36">peppers, bread, a band, and everyone you</text>
<text x="24" y="428" font-family="ui-monospace, 'SF Mono', Menlo, 'DejaVu Sans Mono', monospace" font-size="13" fill="#2a2a36">know from class.</text>
<rect x="24" y="456" width="113.33333333333333" height="40" fill="#ffffff" stroke="#12121c" stroke-width="2"/><rect x="27" y="459" width="107.33333333333333" height="12" fill="#1f6fd1"/><text x="32" y="468" font-family="ui-monospace, 'SF Mono', Menlo, 'DejaVu Sans Mono', monospace" font-size="8" font-weight="700" fill="#ffffff" letter-spacing="1.5">EDITION</text><text x="32" y="488" font-family="ui-monospace, 'SF Mono', Menlo, 'DejaVu Sans Mono', monospace" font-size="13" font-weight="700" fill="#12121c">100 MAX</text><rect x="143.33333333333331" y="456" width="113.33333333333333" height="40" fill="#ffffff" stroke="#12121c" stroke-width="2"/><rect x="146.33333333333331" y="459" width="107.33333333333333" height="12" fill="#12121c"/><text x="151.33333333333331" y="468" font-family="ui-monospace, 'SF Mono', Menlo, 'DejaVu Sans Mono', monospace" font-size="8" font-weight="700" fill="#ffffff" letter-spacing="1.5">MINT</text><text x="151.33333333333331" y="488" font-family="ui-monospace, 'SF Mono', Menlo, 'DejaVu Sans Mono', monospace" font-size="13" font-weight="700" fill="#12121c">1 TEZ</text><rect x="262.66666666666663" y="456" width="113.33333333333333" height="40" fill="#ffffff" stroke="#12121c" stroke-width="2"/><rect x="265.66666666666663" y="459" width="107.33333333333333" height="12" fill="#12121c"/><text x="270.66666666666663" y="468" font-family="ui-monospace, 'SF Mono', Menlo, 'DejaVu Sans Mono', monospace" font-size="8" font-weight="700" fill="#ffffff" letter-spacing="1.5">CARD</text><text x="270.66666666666663" y="488" font-family="ui-monospace, 'SF Mono', Menlo, 'DejaVu Sans Mono', monospace" font-size="13" font-weight="700" fill="#12121c">04/12</text>
<line x1="24" y1="510" x2="376" y2="510" stroke="#12121c" stroke-width="2" stroke-dasharray="4 4"/>
<text x="24" y="528" font-family="ui-monospace, 'SF Mono', Menlo, 'DejaVu Sans Mono', monospace" font-size="9" font-weight="700" fill="#5a5a66" letter-spacing="1">UNOFFICIAL · PLACES ONLY · CC0 · POINTCAST.XYZ</text>
<text x="376" y="528" font-family="ui-monospace, 'SF Mono', Menlo, 'DejaVu Sans Mono', monospace" font-size="9" font-weight="700" fill="#5a5a66" text-anchor="end">TEZOS</text>
</svg>
