<svg xmlns="http://www.w3.org/2000/svg" xmlns:xlink="http://www.w3.org/1999/xlink" width="1600" height="1600" viewBox="0 0 1600 1600" role="img"><title>03. Moon Rim. A drum bandmate, 92 beats per minute. The sixteen bars show its rhythm.</title><rect x="0" y="0" width="1600" height="1600" fill="#dc83cc"/><text x="72" y="94" fill="#171717" font-family="Arial" font-weight="700" font-size="42" letter-spacing="3">NOUNS DRUM CLUB</text><text x="1138" y="94" fill="#171717" font-family="Arial" font-weight="700" font-size="32" letter-spacing="3">BANDMATES</text><circle cx="800" cy="690" r="465" fill="#f5f0e7"/><text x="65" y="390" fill="#171717" font-family="Arial" font-weight="700" font-size="272" opacity=".13">03</text><svg x="270" y="250" width="1080" height="1080" viewBox="0 0 320 320" shape-rendering="crispEdges"><rect width="140" height="10" x="90" y="210" fill="#c5b9a1" /><rect width="140" height="10" x="90" y="220" fill="#c5b9a1" /><rect width="140" height="10" x="90" y="230" fill="#c5b9a1" /><rect width="140" height="10" x="90" y="240" fill="#c5b9a1" /><rect width="20" height="10" x="90" y="250" fill="#c5b9a1" /><rect width="110" height="10" x="120" y="250" fill="#c5b9a1" /><rect width="20" height="10" x="90" y="260" fill="#c5b9a1" /><rect width="110" height="10" x="120" y="260" fill="#c5b9a1" /><rect width="20" height="10" x="90" y="270" fill="#c5b9a1" /><rect width="110" height="10" x="120" y="270" fill="#c5b9a1" /><rect width="20" height="10" x="90" y="280" fill="#c5b9a1" /><rect width="110" height="10" x="120" y="280" fill="#c5b9a1" /><rect width="20" height="10" x="90" y="290" fill="#c5b9a1" /><rect width="110" height="10" x="120" y="290" fill="#c5b9a1" /><rect width="20" height="10" x="90" y="300" fill="#c5b9a1" /><rect width="110" height="10" x="120" y="300" fill="#c5b9a1" /><rect width="20" height="10" x="90" y="310" fill="#c5b9a1" /><rect width="110" height="10" x="120" y="310" fill="#c5b9a1" /><rect width="10" height="10" x="120" y="210" fill="#ffc110" /><rect width="10" height="10" x="190" y="210" fill="#ffc110" /><rect width="10" height="10" x="130" y="220" fill="#ffc110" /><rect width="10" height="10" x="180" y="220" fill="#ffc110" /><rect width="10" height="10" x="140" y="230" fill="#ffc110" /><rect width="10" height="10" x="170" y="230" fill="#ffc110" /><rect width="20" height="10" x="150" y="240" fill="#ffc110" /><rect width="60" height="10" x="130" y="250" fill="#fff671" /><rect width="40" height="10" x="130" y="260" fill="#ffc110" /><rect width="20" height="10" x="170" y="260" fill="#fff671" /><rect width="40" height="10" x="130" y="270" fill="#ffc110" /><rect width="20" height="10" x="170" y="270" fill="#fff671" /><rect width="60" height="10" x="130" y="20" fill="#f938d8" /><rect width="20" height="10" x="110" y="30" fill="#f938d8" /><rect width="60" height="10" x="130" y="30" fill="#410d66" /><rect width="20" height="10" x="190" y="30" fill="#f938d8" /><rect width="10" height="10" x="100" y="40" fill="#f938d8" /><rect width="100" height="10" x="110" y="40" fill="#410d66" /><rect width="10" height="10" x="210" y="40" fill="#f938d8" /><rect width="10" height="10" x="90" y="50" fill="#f938d8" /><rect width="70" height="10" x="100" y="50" fill="#410d66" /><rect width="10" height="10" x="170" y="50" fill="#f938d8" /><rect width="40" height="10" x="180" y="50" fill="#410d66" /><rect width="10" height="10" x="220" y="50" fill="#f938d8" /><rect width="10" height="10" x="80" y="60" fill="#f938d8" /><rect width="30" height="10" x="90" y="60" fill="#410d66" /><rect width="10" height="10" x="120" y="60" fill="#f938d8" /><rect width="100" height="10" x="130" y="60" fill="#410d66" /><rect width="10" height="10" x="230" y="60" fill="#f938d8" /><rect width="10" height="10" x="70" y="70" fill="#f938d8" /><rect width="30" height="10" x="80" y="70" fill="#410d66" /><rect width="10" height="10" x="110" y="70" fill="#f938d8" /><rect width="10" height="10" x="120" y="70" fill="#410d66" /><rect width="10" height="10" x="130" y="70" fill="#f938d8" /><rect width="50" height="10" x="140" y="70" fill="#410d66" /><rect width="10" height="10" x="190" y="70" fill="#f938d8" /><rect width="40" height="10" x="200" y="70" fill="#410d66" /><rect width="10" height="10" x="240" y="70" fill="#f938d8" /><rect width="10" height="10" x="70" y="80" fill="#f938d8" /><rect width="40" height="10" x="80" y="80" fill="#410d66" /><rect width="10" height="10" x="120" y="80" fill="#f938d8" /><rect width="50" height="10" x="130" y="80" fill="#410d66" /><rect width="30" height="10" x="180" y="80" fill="#f938d8" /><rect width="30" height="10" x="210" y="80" fill="#410d66" /><rect width="10" height="10" x="240" y="80" fill="#f938d8" /><rect width="10" height="10" x="60" y="90" fill="#f938d8" /><rect width="120" height="10" x="70" y="90" fill="#410d66" /><rect width="10" height="10" x="190" y="90" fill="#f938d8" /><rect width="50" height="10" x="200" y="90" fill="#410d66" /><rect width="10" height="10" x="250" y="90" fill="#f938d8" /><rect width="10" height="10" x="60" y="100" fill="#f938d8" /><rect width="70" height="10" x="70" y="100" fill="#410d66" /><rect width="10" height="10" x="140" y="100" fill="#f938d8" /><rect width="100" height="10" x="150" y="100" fill="#410d66" /><rect width="10" height="10" x="250" y="100" fill="#f938d8" /><rect width="10" height="10" x="60" y="110" fill="#f938d8" /><rect width="180" height="10" x="70" y="110" fill="#410d66" /><rect width="10" height="10" x="250" y="110" fill="#f938d8" /><rect width="10" height="10" x="60" y="120" fill="#f938d8" /><rect width="180" height="10" x="70" y="120" fill="#410d66" /><rect width="10" height="10" x="250" y="120" fill="#f938d8" /><rect width="10" height="10" x="60" y="130" fill="#f938d8" /><rect width="180" height="10" x="70" y="130" fill="#410d66" /><rect width="10" height="10" x="250" y="130" fill="#f938d8" /><rect width="10" height="10" x="60" y="140" fill="#f938d8" /><rect width="180" height="10" x="70" y="140" fill="#410d66" /><rect width="10" height="10" x="250" y="140" fill="#f938d8" /><rect width="10" height="10" x="70" y="150" fill="#f938d8" /><rect width="160" height="10" x="80" y="150" fill="#410d66" /><rect width="10" height="10" x="240" y="150" fill="#f938d8" /><rect width="10" height="10" x="70" y="160" fill="#f938d8" /><rect width="160" height="10" x="80" y="160" fill="#410d66" /><rect width="10" height="10" x="240" y="160" fill="#f938d8" /><rect width="10" height="10" x="80" y="170" fill="#f938d8" /><rect width="140" height="10" x="90" y="170" fill="#410d66" /><rect width="10" height="10" x="230" y="170" fill="#f938d8" /><rect width="160" height="10" x="80" y="180" fill="#552d1d" /><rect width="50" height="10" x="80" y="190" fill="#552d1d" /><rect width="70" height="10" x="130" y="190" fill="#000000" /><rect width="40" height="10" x="200" y="190" fill="#552d1d" /><rect width="160" height="10" x="80" y="200" fill="#552d1d" /><rect width="60" height="10" x="100" y="110" fill="#000000" /><rect width="60" height="10" x="170" y="110" fill="#000000" /><rect width="10" height="10" x="100" y="120" fill="#000000" /><rect width="20" height="10" x="110" y="120" fill="#ffffff" /><rect width="30" height="10" x="130" y="120" fill="#000000" /><rect width="10" height="10" x="170" y="120" fill="#000000" /><rect width="20" height="10" x="180" y="120" fill="#ffffff" /><rect width="30" height="10" x="200" y="120" fill="#000000" /><rect width="40" height="10" x="70" y="130" fill="#000000" /><rect width="20" height="10" x="110" y="130" fill="#ffffff" /><rect width="50" height="10" x="130" y="130" fill="#000000" /><rect width="20" height="10" x="180" y="130" fill="#ffffff" /><rect width="30" height="10" x="200" y="130" fill="#000000" /><rect width="10" height="10" x="70" y="140" fill="#000000" /><rect width="10" height="10" x="100" y="140" fill="#000000" /><rect width="20" height="10" x="110" y="140" fill="#ffffff" /><rect width="30" height="10" x="130" y="140" fill="#000000" /><rect width="10" height="10" x="170" y="140" fill="#000000" /><rect width="20" height="10" x="180" y="140" fill="#ffffff" /><rect width="30" height="10" x="200" y="140" fill="#000000" /><rect width="10" height="10" x="70" y="150" fill="#000000" /><rect width="10" height="10" x="100" y="150" fill="#000000" /><rect width="20" height="10" x="110" y="150" fill="#ffffff" /><rect width="30" height="10" x="130" y="150" fill="#000000" /><rect width="10" height="10" x="170" y="150" fill="#000000" /><rect width="20" height="10" x="180" y="150" fill="#ffffff" /><rect width="30" height="10" x="200" y="150" fill="#000000" /><rect width="60" height="10" x="100" y="160" fill="#000000" /><rect width="60" height="10" x="170" y="160" fill="#000000" /></svg><rect x="0" y="1170" width="1600" height="430" fill="#f5f0e7"/><rect x="72" y="991" width="66" height="142" fill="#171717"/><rect x="164" y="1062.3" width="66" height="70.7" fill="#171717"/><rect x="256" y="1115" width="66" height="18" fill="#ffffff66"/><rect x="348" y="1062.3" width="66" height="70.7" fill="#171717"/><rect x="440" y="1006.5" width="66" height="126.5" fill="#171717"/><rect x="532" y="1062.3" width="66" height="70.7" fill="#171717"/><rect x="624" y="1115" width="66" height="18" fill="#ffffff66"/><rect x="716" y="991" width="66" height="142" fill="#171717"/><rect x="808" y="1115" width="66" height="18" fill="#ffffff66"/><rect x="900" y="1062.3" width="66" height="70.7" fill="#171717"/><rect x="992" y="991" width="66" height="142" fill="#171717"/><rect x="1084" y="1062.3" width="66" height="70.7" fill="#171717"/><rect x="1176" y="1006.5" width="66" height="126.5" fill="#171717"/><rect x="1268" y="1062.3" width="66" height="70.7" fill="#171717"/><rect x="1360" y="1025.1" width="66" height="107.89999999999999" fill="#171717"/><rect x="1452" y="1025.1" width="66" height="107.89999999999999" fill="#171717"/><text x="72" y="1267" fill="#171717" font-family="Arial" font-weight="700" font-size="35" letter-spacing="2">DRUM / 92 BPM</text><text x="65" y="1410" fill="#171717" font-family="Arial" font-weight="700" font-size="120" letter-spacing="-5">MOON RIM</text><text x="72" y="1518" fill="#171717" font-family="Arial" font-weight="700" font-size="34" >EVERYBODY’S IN THE BAND.</text><text x="1310" y="1518" fill="#171717" font-family="Arial" font-weight="700" font-size="34" >03 / 12</text></svg>