<svg width="320" height="320" viewBox="0 0 320 320" xmlns="http://www.w3.org/2000/svg" shape-rendering="crispEdges"><rect width="100%" height="100%" fill="#e1d7d5" /><rect width="140" height="10" x="90" y="210" fill="#e9265c" /><rect width="140" height="10" x="90" y="220" fill="#e9265c" /><rect width="140" height="10" x="90" y="230" fill="#e9265c" /><rect width="140" height="10" x="90" y="240" fill="#e9265c" /><rect width="20" height="10" x="90" y="250" fill="#e9265c" /><rect width="110" height="10" x="120" y="250" fill="#e9265c" /><rect width="20" height="10" x="90" y="260" fill="#e9265c" /><rect width="110" height="10" x="120" y="260" fill="#e9265c" /><rect width="20" height="10" x="90" y="270" fill="#e9265c" /><rect width="110" height="10" x="120" y="270" fill="#e9265c" /><rect width="20" height="10" x="90" y="280" fill="#e9265c" /><rect width="110" height="10" x="120" y="280" fill="#e9265c" /><rect width="20" height="10" x="90" y="290" fill="#e9265c" /><rect width="110" height="10" x="120" y="290" fill="#e9265c" /><rect width="20" height="10" x="90" y="300" fill="#e9265c" /><rect width="110" height="10" x="120" y="300" fill="#e9265c" /><rect width="20" height="10" x="90" y="310" fill="#e9265c" /><rect width="110" height="10" x="120" y="310" fill="#e9265c" /><rect width="30" height="10" x="130" y="210" fill="#00a556" /><rect width="30" height="10" x="170" y="210" fill="#ffc925" /><rect width="20" height="10" x="210" y="210" fill="#fe500c" /><rect width="30" height="10" x="90" y="220" fill="#9f21a0" /><rect width="30" height="10" x="130" y="220" fill="#00a556" /><rect width="30" height="10" x="170" y="220" fill="#ffc925" /><rect width="30" height="10" x="90" y="230" fill="#9f21a0" /><rect width="30" height="10" x="130" y="230" fill="#00a556" /><rect width="30" height="10" x="200" y="230" fill="#9f21a0" /><rect width="30" height="10" x="90" y="240" fill="#9f21a0" /><rect width="30" height="10" x="160" y="240" fill="#c5030e" /><rect width="30" height="10" x="200" y="240" fill="#9f21a0" /><rect width="30" height="10" x="120" y="250" fill="#fe500c" /><rect width="30" height="10" x="160" y="250" fill="#c5030e" /><rect width="30" height="10" x="200" y="250" fill="#9f21a0" /><rect width="20" height="10" x="90" y="260" fill="#ffc925" /><rect width="30" height="10" x="120" y="260" fill="#fe500c" /><rect width="30" height="10" x="160" y="260" fill="#c5030e" /><rect width="20" height="10" x="90" y="270" fill="#ffc925" /><rect width="30" height="10" x="120" y="270" fill="#fe500c" /><rect width="30" height="10" x="190" y="270" fill="#ffc925" /><rect width="20" height="10" x="90" y="280" fill="#ffc925" /><rect width="30" height="10" x="150" y="280" fill="#00a556" /><rect width="30" height="10" x="190" y="280" fill="#ffc925" /><rect width="20" height="10" x="120" y="290" fill="#9f21a0" /><rect width="30" height="10" x="150" y="290" fill="#00a556" /><rect width="30" height="10" x="190" y="290" fill="#ffc925" /><rect width="10" height="10" x="90" y="300" fill="#c5030e" /><rect width="20" height="10" x="120" y="300" fill="#9f21a0" /><rect width="30" height="10" x="150" y="300" fill="#00a556" /><rect width="10" height="10" x="220" y="300" fill="#9f21a0" /><rect width="10" height="10" x="90" y="310" fill="#c5030e" /><rect width="20" height="10" x="120" y="310" fill="#9f21a0" /><rect width="30" height="10" x="180" y="310" fill="#c5030e" /><rect width="10" height="10" x="220" y="310" fill="#9f21a0" /><rect width="10" height="10" x="80" y="30" fill="#4d271b" /><rect width="10" height="10" x="90" y="30" fill="#1f1d29" /><rect width="30" height="10" x="100" y="30" fill="#7e5243" /><rect width="10" height="10" x="130" y="30" fill="#4d271b" /><rect width="30" height="10" x="140" y="30" fill="#7e5243" /><rect width="10" height="10" x="80" y="40" fill="#4d271b" /><rect width="10" height="10" x="90" y="40" fill="#1f1d29" /><rect width="20" height="10" x="100" y="40" fill="#4d271b" /><rect width="10" height="10" x="120" y="40" fill="#7e5243" /><rect width="30" height="10" x="130" y="40" fill="#4d271b" /><rect width="10" height="10" x="160" y="40" fill="#7e5243" /><rect width="20" height="10" x="80" y="50" fill="#1f1d29" /><rect width="90" height="10" x="100" y="50" fill="#4d271b" /><rect width="10" height="10" x="80" y="60" fill="#4d271b" /><rect width="10" height="10" x="90" y="60" fill="#1f1d29" /><rect width="30" height="10" x="100" y="60" fill="#7e5243" /><rect width="10" height="10" x="130" y="60" fill="#4d271b" /><rect width="30" height="10" x="140" y="60" fill="#7e5243" /><rect width="10" height="10" x="170" y="60" fill="#4d271b" /><rect width="10" height="10" x="180" y="60" fill="#7e5243" /><rect width="10" height="10" x="80" y="70" fill="#4d271b" /><rect width="10" height="10" x="90" y="70" fill="#1f1d29" /><rect width="20" height="10" x="100" y="70" fill="#4d271b" /><rect width="10" height="10" x="120" y="70" fill="#7e5243" /><rect width="30" height="10" x="130" y="70" fill="#4d271b" /><rect width="10" height="10" x="160" y="70" fill="#7e5243" /><rect width="30" height="10" x="170" y="70" fill="#4d271b" /><rect width="10" height="10" x="200" y="70" fill="#7e5243" /><rect width="10" height="10" x="210" y="70" fill="#4d271b" /><rect width="20" height="10" x="80" y="80" fill="#1f1d29" /><rect width="120" height="10" x="100" y="80" fill="#4d271b" /><rect width="10" height="10" x="80" y="90" fill="#4d271b" /><rect width="10" height="10" x="90" y="90" fill="#1f1d29" /><rect width="30" height="10" x="100" y="90" fill="#7e5243" /><rect width="10" height="10" x="130" y="90" fill="#4d271b" /><rect width="30" height="10" x="140" y="90" fill="#7e5243" /><rect width="10" height="10" x="170" y="90" fill="#4d271b" /><rect width="30" height="10" x="180" y="90" fill="#7e5243" /><rect width="10" height="10" x="210" y="90" fill="#4d271b" /><rect width="20" height="10" x="220" y="90" fill="#7e5243" /><rect width="30" height="10" x="70" y="100" fill="#a3baed" /><rect width="150" height="10" x="100" y="100" fill="#caeff9" /><rect width="180" height="10" x="70" y="110" fill="#a3baed" /><rect width="180" height="10" x="70" y="120" fill="#a3baed" /><rect width="180" height="10" x="70" y="130" fill="#a3baed" /><rect width="180" height="10" x="70" y="140" fill="#a3baed" /><rect width="180" height="10" x="70" y="150" fill="#a3baed" /><rect width="20" height="10" x="80" y="160" fill="#b92b3c" /><rect width="140" height="10" x="100" y="160" fill="#e9265c" /><rect width="160" height="10" x="80" y="170" fill="#e9265c" /><rect width="160" height="10" x="80" y="180" fill="#e9265c" /><rect width="30" height="10" x="80" y="190" fill="#e9265c" /><rect width="120" height="10" x="110" y="190" fill="#b92b3c" /><rect width="10" height="10" x="230" y="190" fill="#e9265c" /><rect width="160" height="10" x="80" y="200" fill="#e9265c" /><rect width="60" height="10" x="100" y="110" fill="#5648ed" /><rect width="60" height="10" x="170" y="110" fill="#5648ed" /><rect width="10" height="10" x="100" y="120" fill="#5648ed" /><rect width="20" height="10" x="110" y="120" fill="#ffffff" /><rect width="20" height="10" x="130" y="120" fill="#000000" /><rect width="10" height="10" x="150" y="120" fill="#5648ed" /><rect width="10" height="10" x="170" y="120" fill="#5648ed" /><rect width="20" height="10" x="180" y="120" fill="#ffffff" /><rect width="20" height="10" x="200" y="120" fill="#000000" /><rect width="10" height="10" x="220" y="120" fill="#5648ed" /><rect width="40" height="10" x="70" y="130" fill="#5648ed" /><rect width="20" height="10" x="110" y="130" fill="#ffffff" /><rect width="20" height="10" x="130" y="130" fill="#000000" /><rect width="30" height="10" x="150" y="130" fill="#5648ed" /><rect width="20" height="10" x="180" y="130" fill="#ffffff" /><rect width="20" height="10" x="200" y="130" fill="#000000" /><rect width="10" height="10" x="220" y="130" fill="#5648ed" /><rect width="10" height="10" x="70" y="140" fill="#5648ed" /><rect width="10" height="10" x="100" y="140" fill="#5648ed" /><rect width="20" height="10" x="110" y="140" fill="#ffffff" /><rect width="20" height="10" x="130" y="140" fill="#000000" /><rect width="10" height="10" x="150" y="140" fill="#5648ed" /><rect width="10" height="10" x="170" y="140" fill="#5648ed" /><rect width="20" height="10" x="180" y="140" fill="#ffffff" /><rect width="20" height="10" x="200" y="140" fill="#000000" /><rect width="10" height="10" x="220" y="140" fill="#5648ed" /><rect width="10" height="10" x="70" y="150" fill="#5648ed" /><rect width="10" height="10" x="100" y="150" fill="#5648ed" /><rect width="20" height="10" x="110" y="150" fill="#ffffff" /><rect width="20" height="10" x="130" y="150" fill="#000000" /><rect width="10" height="10" x="150" y="150" fill="#5648ed" /><rect width="10" height="10" x="170" y="150" fill="#5648ed" /><rect width="20" height="10" x="180" y="150" fill="#ffffff" /><rect width="20" height="10" x="200" y="150" fill="#000000" /><rect width="10" height="10" x="220" y="150" fill="#5648ed" /><rect width="60" height="10" x="100" y="160" fill="#5648ed" /><rect width="60" height="10" x="170" y="160" fill="#5648ed" /></svg>