<svg xmlns="http://www.w3.org/2000/svg" viewBox="0 0 32 32" shape-rendering="crispEdges" width="32" height="32">
  <rect x="2" y="6" width="28" height="20" fill="#e8b3c0"/>
  <rect x="3" y="5" width="26" height="1" fill="#e8b3c0"/>
  <rect x="3" y="26" width="26" height="1" fill="#e8b3c0"/>
  <rect x="2" y="6" width="28" height="1" fill="#f4d3da"/>
  <rect x="2" y="25" width="28" height="1" fill="#c47081"/>
  <rect x="6" y="8" width="20" height="6" fill="#f4e7c8"/>
  <rect x="6" y="8" width="20" height="1" fill="#1a0a06"/>
  <rect x="6" y="13" width="20" height="1" fill="#1a0a06"/>
  <rect x="6" y="9" width="1" height="4" fill="#1a0a06"/>
  <rect x="25" y="9" width="1" height="4" fill="#1a0a06"/>
  <rect x="8" y="11" width="6" height="1" fill="#5a3422"/>
  <rect x="16" y="11" width="8" height="1" fill="#5a3422"/>
  <rect x="7" y="16" width="8" height="6" fill="#1a0a06"/>
  <rect x="9" y="17" width="4" height="4" fill="#3a2410"/>
  <rect x="10" y="18" width="2" height="2" fill="#fffaf0"/>
  <rect x="10" y="18" width="1" height="2" fill="#1a0a06"/>
  <rect x="17" y="16" width="8" height="6" fill="#1a0a06"/>
  <rect x="19" y="17" width="4" height="4" fill="#3a2410"/>
  <rect x="20" y="18" width="2" height="2" fill="#fffaf0"/>
  <rect x="20" y="18" width="1" height="2" fill="#1a0a06"/>
  <rect x="15" y="19" width="2" height="1" fill="#3a2410"/>
  <rect x="5" y="25" width="2" height="2" fill="#1a0a06"/>
  <rect x="25" y="25" width="2" height="2" fill="#1a0a06"/>
</svg>
